<svg xmlns="http://www.w3.org/2000/svg" xmlns:xlink="http://www.w3.org/1999/xlink" viewBox="0 0 570.8 356.63"><defs><style>.cls-1{isolation:isolate;}.cls-2{fill:url(#Degradado_sin_nombre_3);}.cls-3{fill:url(#Degradado_sin_nombre_3-2);}.cls-4{fill:url(#linear-gradient);}.cls-5{fill:url(#linear-gradient-2);}.cls-6{fill:url(#linear-gradient-3);}.cls-7{fill:url(#linear-gradient-4);}.cls-8{fill:url(#linear-gradient-5);}.cls-9{fill:url(#linear-gradient-6);}.cls-10{fill:#b8d9c4;}.cls-11{opacity:0.36;}.cls-12{opacity:0.7;mix-blend-mode:overlay;}.cls-13{fill:#fff;}.cls-14{fill:#000d06;}.cls-15{fill:#012615;}.cls-16{fill:#05a66b;}.cls-17{fill:#02734a;}.cls-18{fill:none;}</style><linearGradient id="Degradado_sin_nombre_3" x1="556" y1="202.51" x2="643.7" y2="120.13" gradientUnits="userSpaceOnUse"><stop offset="0" stop-color="#0f4c81" stop-opacity="0.2"/><stop offset="0.33" stop-color="#0f4c81" stop-opacity="0.7"/><stop offset="1" stop-color="#0f4c81"/></linearGradient><linearGradient id="Degradado_sin_nombre_3-2" x1="551.44" y1="199.79" x2="640.21" y2="116.4" xlink:href="#Degradado_sin_nombre_3"/><linearGradient id="linear-gradient" x1="567.6" y1="62.41" x2="579.77" y2="-20.67" gradientUnits="userSpaceOnUse"><stop offset="0" stop-color="#05a66b" stop-opacity="0"/><stop offset="0.33" stop-color="#05a66b" stop-opacity="0.7"/><stop offset="0.88" stop-color="#012615"/></linearGradient><linearGradient id="linear-gradient-2" x1="406.38" y1="105.42" x2="431.46" y2="-65.71" xlink:href="#linear-gradient"/><linearGradient id="linear-gradient-3" x1="0.53" y1="277.33" x2="2.31" y2="375.3" gradientUnits="userSpaceOnUse"><stop offset="0" stop-color="#05a66b" stop-opacity="0"/><stop offset="0.33" stop-color="#02734a" stop-opacity="0.7"/><stop offset="1" stop-color="#012615"/></linearGradient><linearGradient id="linear-gradient-4" x1="285.22" y1="277.23" x2="287.12" y2="381.77" xlink:href="#linear-gradient-3"/><linearGradient id="linear-gradient-5" x1="342" y1="324.2" x2="434.59" y2="472.95" gradientUnits="userSpaceOnUse"><stop offset="0" stop-color="#05a66b" stop-opacity="0"/><stop offset="0.33" stop-color="#02734a" stop-opacity="0.7"/><stop offset="1" stop-color="#014023"/></linearGradient><linearGradient id="linear-gradient-6" x1="368.06" y1="288.83" x2="470.82" y2="453.92" xlink:href="#linear-gradient-5"/></defs><title>statsbg</title><g class="cls-1"><g id="Layer_2" data-name="Layer 2"><g id="OBJECTS"><path class="cls-2" d="M570.8,43.79V333.42"/><path class="cls-3" d="M514.21,104.37c-6.81,60.76,54.32,90.78,41.06,133.82-11.52,37.42-18.34,76,15.53,95.23V43.79C548.08,54.27,518.7,64.3,514.21,104.37Z"/><path class="cls-4" d="M570.8,0V81.07"/><path class="cls-5" d="M261,0c-2.11,27.54,13.59,71.77,66.91,61.16,50.14-10,65.76,7.6,87.59,53s71.52,54.73,112.3-4.91c15.52-22.69,30.76-28.65,43-28.17V0Z"/><path class="cls-6" d="M.56,356.19V201.77"/><path class="cls-7" d="M570.8,249.4c-22.18,13.72-55,21.86-85.86-4.07-49.07-41.28-108.15-71.06-137-1.65S272.32,355.36,212.35,314,111.88,353,62,330.31c-37.31-17-43.24-91-61.48-128.54V356.19H570.8Z"/><path class="cls-8" d="M570.8,356.19H153"/><path class="cls-9" d="M570.8,201.73c-16.63,23.9-50.29,55.08-106.06,35.71-64.34-22.34-76.4,36-96.55,56.43s-55.91,31.36-100.46,11.36c-41.83-18.77-109.12-5.28-114.7,51H570.8Z"/><path class="cls-10" d="M489.88,167.53c-13.45,8.68-30.37,12.93-47.66,12-16.59-.93-31.52-6.69-41-15.82-13.84-13.41-14.65-32.14-2.27-52.75,14.31-23.83,18.83-46.67,13.44-67.87-4.3-16.93-14.26-29.6-21.87-37.26-2.2-2.22-4.34-4.15-6.3-5.8h-.55c9.27,7.78,23.12,22.35,28.41,43.14,5.36,21.12.85,43.87-13.41,67.62-12.47,20.75-11.64,39.63,2.33,53.15,9.48,9.19,24.48,15,41.15,15.91,1.62.09,3.23.14,4.83.14,15.65,0,30.78-4.25,43-12.15,18.64-12,53.29-17.6,80.74-20.18v-.33C543.31,149.88,508.59,155.46,489.88,167.53Z"/><path class="cls-10" d="M570.8,147.3v.33"/><path class="cls-10" d="M490.47,164.93c-13.62,7.5-31.74,10.89-49.73,9.28s-33.67-8-43.14-17.43c-8.62-8.64-16.19-23.85-3.27-47.2,14.95-27,17.26-52.77,6.88-76.58-6.65-15.23-17.15-26.36-24.28-33h-.59c34.06,32.29,40,69.07,17.69,109.41-5.36,9.69-7.62,18.85-6.73,27.24A33.34,33.34,0,0,0,397.36,157c9.52,9.54,25.32,15.93,43.35,17.54q4.41.39,8.81.39c15.05,0,29.67-3.41,41.11-9.72,18.31-10.08,53.12-13.85,80.17-15.21v-.35C543.71,151,508.83,154.81,490.47,164.93Z"/><path class="cls-10" d="M570.8,149.67V150"/><path class="cls-10" d="M491.05,162.33C477,168.65,458,171,439,168.8c-19.53-2.27-36.1-9.19-45.47-19-10.61-11.09-11.94-25.48-3.84-41.59,12.39-24.63,14.22-48.5,5.44-71C388.38,20.05,376.81,7.38,369.74,0h-.5c14.46,15.07,48.14,52.33,20.11,108.07-8.18,16.26-6.83,30.79,3.9,42,9.43,9.85,26.08,16.81,45.69,19.09a119.86,119.86,0,0,0,14,.81c14.15,0,27.62-2.52,38.29-7.31,17.2-7.72,50.1-9.95,79.6-10.14v-.35C541.25,152.35,508.29,154.6,491.05,162.33Z"/><path class="cls-10" d="M570.8,152.17v.35"/><path class="cls-10" d="M570.8,154.83v.42"/><path class="cls-10" d="M570.21,154.8c-26.17-1-61.05-1-78.57,4.93-14.58,4.91-35,6.24-54.66,3.55-21.65-3-38.66-10.2-47.9-20.38-9-9.89-10.35-22-4.07-36,10.14-22.62,11.35-44.87,3.6-66.13-6.44-17.68-17.43-30.69-24.7-39.29L362.68,0h-.49l1.43,1.7c14.45,17.1,44.5,52.68,21.05,105-6.35,14.16-5,26.42,4.12,36.42,9.31,10.25,26.41,17.53,48.14,20.5A149.44,149.44,0,0,0,457.09,165c12.83,0,25-1.68,34.67-4.93,16.65-5.61,49.56-6,79-4.84v-.42Z"/><path class="cls-10" d="M492.24,157.13c-15.53,3.33-37.53,3.54-57.43.55-23.71-3.55-41.62-11.21-50.44-21.57-7.25-8.5-8.6-18.79-4-30.58C399.05,57.4,373.1,23,359.16,4.58c-1.24-1.65-2.4-3.18-3.41-4.58h-.49c1.05,1.45,2.26,3.06,3.59,4.82C372.74,23.22,398.6,57.47,380,105.38c-4.63,11.94-3.26,22.37,4.09,31C393,146.8,411,154.5,434.75,158.07c19.94,3,42,2.78,57.57-.56,16.19-3.47,48.93-2,78.48.5v-.4C541.22,155.12,508.45,153.65,492.24,157.13Z"/><path class="cls-10" d="M570.8,157.61v.4"/><path class="cls-10" d="M492.84,154.53c-22.86,1.82-92.74,1.15-113.36-24.94-5.65-7.16-6.93-15.71-3.79-25.42,14.23-44-8.12-76.66-21.48-96.2-2-3-3.84-5.63-5.29-8h-.48c1.47,2.41,3.34,5.15,5.43,8.2,13.31,19.48,35.59,52.08,21.43,95.85-3.18,9.84-1.89,18.52,3.86,25.79,10.68,13.52,34.88,19.78,53.3,22.64a278.31,278.31,0,0,0,60.41,2.46c13.28-1.06,39.4,1,77.93,6.05v-.42C532.27,155.5,506.14,153.47,492.84,154.53Z"/><path class="cls-10" d="M570.8,160.57V161"/><path class="cls-10" d="M493.45,151.93c-3.14-.21-6.72-.41-10.86-.64-31.92-1.78-91.34-5.08-108-27.72-4.35-5.92-5.55-12.91-3.57-20.76,10.1-39.95-9.15-70.74-21.89-91.11-2.79-4.46-5.23-8.36-6.94-11.7h-.48c1.73,3.41,4.21,7.38,7,11.93,12.7,20.31,31.9,51,21.85,90.78-2,8-.79,15.08,3.64,21.11,16.76,22.81,76.31,26.12,108.31,27.9,4.14.23,7.72.43,10.85.64C509,153.44,541.86,159,570.8,164.1v-.44C541.87,158.51,509.07,153,493.45,151.93Z"/><path class="cls-10" d="M570.8,163.66v.44"/><path class="cls-10" d="M494.06,149.34c-7.69-1.79-19.2-3-32.52-4.3-34.45-3.47-77.33-7.79-91.17-26.06a21.73,21.73,0,0,1-4-17.53c6.3-36-10.25-64.65-22.34-85.56A152.3,152.3,0,0,1,335.58,0h-.51c1.87,4.51,4.95,9.85,8.57,16.11C355.7,37,372.2,65.52,365.93,101.38A22.16,22.16,0,0,0,370,119.25C384,137.67,427,142,461.49,145.49c13.31,1.34,24.8,2.5,32.47,4.29,14.47,3.38,47.31,11,76.84,17.64V167C541.3,160.34,508.51,152.72,494.06,149.34Z"/><path class="cls-10" d="M570.8,167v.46"/><path class="cls-10" d="M494.68,146.76c-9.6-4-27.24-6-45.92-8.09-20.09-2.26-42.87-4.83-59.87-10.36-19.42-6.32-28.31-15.55-27.18-28.22C364.57,68,349.78,40.67,339,20.69,334.69,12.77,331,5.82,329,0h-.49c1.93,5.9,5.71,12.91,10,20.91,10.77,19.93,25.53,47.22,22.68,79.14-1.15,12.91,7.84,22.3,27.49,28.7,17.05,5.55,39.85,8.12,60,10.38,18.65,2.1,36.26,4.08,45.79,8.06,14.92,6.23,47.19,15.9,76.3,23.76v-.48C541.75,162.63,509.57,153,494.68,146.76Z"/><path class="cls-10" d="M570.8,170.47V171"/><path class="cls-10" d="M495.29,144.18c-10.47-6.53-32.54-9-55.9-11.53-38.53-4.24-82.19-9-82.34-33.93-.17-28-12.79-52.62-22.93-72.38-5.23-10.18-9.74-19-11.61-26.34H322c1.86,7.43,6.41,16.31,11.67,26.56,10.12,19.72,22.71,44.25,22.88,72.16.15,25.33,44,30.15,82.77,34.41,23.3,2.56,45.32,5,55.7,11.46,14.53,9.07,46.61,21,75.76,30.13v-.5C541.73,165.07,509.78,153.22,495.29,144.18Z"/><path class="cls-10" d="M570.8,174.22v.5"/><path class="cls-10" d="M495.9,141.61c-10.82-9.3-36.71-11.87-64.12-14.6-37.82-3.76-76.93-7.65-79.4-29.67-2.66-23.81-13.31-45.25-22.72-64.17C323.47,20.71,317.85,9.41,316.1,0h-.51c1.75,9.51,7.4,20.86,13.63,33.4,9.38,18.88,20,40.28,22.67,64,2.5,22.42,41.82,26.33,79.84,30.11,27.33,2.72,53.15,5.29,63.85,14.48,14.57,12.52,46.41,26.4,75.22,36.61v-.46C541.66,167.73,509.91,153.65,495.9,141.61Z"/><path class="cls-10" d="M570.8,178.14v.46"/><path class="cls-10" d="M570.8,182.22v.56"/><path class="cls-10" d="M557.38,176.64c-16.79-7.33-47-22-60.87-37.6-10.85-12.25-40.23-14.72-71.33-17.34-35.86-3-72.95-6.13-77.46-25.73-4.45-19.3-13.64-37.85-21.74-54.23C318.19,26,311.18,11.84,309.7,0h-.52c1.48,11.94,8.52,26.17,16.34,42,8.09,16.35,17.26,34.88,21.69,54.11,4.61,20,41.88,23.11,77.93,26.14,29.63,2.49,60.27,5.07,71,17.16,13.91,15.7,44.22,30.38,61,37.73,4.51,2,9.08,3.87,13.62,5.67v-.56C566.33,180.45,561.83,178.58,557.38,176.64Z"/><path class="cls-10" d="M555.68,179.51c-28.17-13.92-49-29.2-58.57-43-10.68-15.39-44.84-17.63-77.87-19.8-34.32-2.25-69.81-4.58-76.2-22.08C337.85,80.35,330.72,66.46,323.83,53,314,33.79,304.53,15.38,303.39,0h-.53c1.13,15.5,10.6,34,20.5,53.26,6.88,13.42,14,27.31,19.18,41.51,6.5,17.83,40.58,20.07,76.66,22.43,32.91,2.16,66.94,4.4,77.48,19.58,9.65,13.9,30.52,29.25,58.76,43.2,5,2.49,10.2,4.88,15.36,7.1v-.58C565.72,184.3,560.64,182,555.68,179.51Z"/><path class="cls-10" d="M570.8,186.5v.58"/><path class="cls-10" d="M553.94,182.36c-27.35-15.15-47.32-32.36-56.23-48.45-10.36-18.72-47.78-20.41-84-22-34.6-1.56-67.28-3-75.37-18.67-4.18-8.06-8.82-16.27-13.3-24.21C311,44,297.52,20.22,297,0h-.55c.48,20.36,14,44.25,28.1,69.26,4.48,7.94,9.12,16.14,13.29,24.2,8.23,15.92,41.07,17.4,75.84,19,36,1.63,73.3,3.31,83.51,21.75,9,16.19,29,33.47,56.45,48.67,5.6,3.1,11.36,6,17.12,8.72V191C565.13,188.3,559.46,185.41,553.94,182.36Z"/><path class="cls-10" d="M570.8,191v.61"/><path class="cls-10" d="M552.19,185.2c-26.55-16.36-45.69-35.49-53.88-53.86-9.91-22.21-50.49-23.15-89.74-24.06-33.54-.78-65.23-1.52-74.89-15.46C314.07,63.53,290.35,29.28,290.81,0h-.59c-.45,29.47,23.34,63.79,43,92.15,9.82,14.17,41.65,14.91,75.34,15.69,39.07.91,79.47,1.85,89.23,23.73,8.24,18.47,27.46,37.69,54.1,54.11,6.11,3.76,12.49,7.28,18.91,10.47v-.63C564.48,192.37,558.2,188.9,552.19,185.2Z"/><path class="cls-10" d="M570.8,195.52v.63"/><path class="cls-10" d="M498.9,128.77c-9.35-25.85-53-25.88-95.25-25.91-32.68,0-63.55,0-74.65-12.42C306.92,65.85,283,31.59,284.56,0H284c-1.56,31.78,22.45,66.16,44.59,90.83,11.28,12.57,42.27,12.59,75.09,12.61,42,0,85.49.06,94.7,25.52,10.74,29.7,41.81,55.81,72.45,71.95v-.64C540.37,184.18,509.56,158.25,498.9,128.77Z"/><path class="cls-10" d="M570.8,200.27v.64"/><path class="cls-10" d="M570.8,205v.81"/><path class="cls-10" d="M499.49,126.19c-3.89-13.27-16-21.54-37-25.29-18.5-3.29-41.4-2.79-63.54-2.3-32,.71-62.19,1.38-74.61-9.54-31.86-28-48.24-60.28-45.93-89.06h-.67c-1.08,12.66,1.43,25.91,7.55,39.57,7.73,17.25,21.1,34.52,38.66,49.95,12.59,11.06,42.91,10.39,75,9.68,44.94-1,91.42-2,100,27.16,6.77,23.08,24.3,46.14,49.37,64.94a190.5,190.5,0,0,0,22.52,14.52V205C540,187.94,509.28,159.58,499.49,126.19Z"/><path class="cls-10" d="M500.08,123.62c-3.55-15-16.1-24.15-38.37-27.94-19.55-3.33-43.86-2.24-67.38-1.18-31.42,1.41-61.1,2.75-74.72-6.81-34.17-24-51.14-55.88-47.5-87.69h-.63c-3.63,32,13.43,64.1,47.78,88.2,13.79,9.67,43.57,8.34,75.1,6.92,23.48-1.06,47.76-2.15,67.25,1.17C483.6,100,496,109,499.48,123.76c6,25.4,22.71,50.38,47,70.33A173.64,173.64,0,0,0,570.8,210.8v-.66C539.83,192.61,509.26,162.36,500.08,123.62Z"/><path class="cls-10" d="M570.8,210.14v.66"/><g class="cls-11"><path class="cls-10" d="M500.67,121.05c-3.18-16.79-16.13-26.79-39.59-30.59-20.58-3.33-46.31-1.59-71.19.09-31,2.09-60.26,4.06-75-4.23-36.76-20.72-54-51.6-49.05-86.32h-.59a76.65,76.65,0,0,0,5.34,41.4c7.87,18.15,22.67,33.46,44,45.47,14.88,8.39,44.24,6.41,75.32,4.31,24.85-1.68,50.54-3.41,71.05-.09,23.16,3.75,35.94,13.58,39.06,30.07,5.26,27.74,21.11,54.63,44.63,75.71a159.52,159.52,0,0,0,26.13,19v-.54C538.15,196.29,508.51,162.38,500.67,121.05Z"/><path class="cls-10" d="M570.8,215.33v.54"/></g><path class="cls-10" d="M501.26,118.47c-2.78-18.6-16.1-29.46-40.71-33.23-21.59-3.3-48.72-.86-75,1.49C354.92,89.48,326,92.08,310.22,85,271.05,67.2,253.53,37.39,259.7,0H259c-2.56,15.42-1.15,29.59,4.25,42.28C271,60.46,286.71,75,310,85.55c15.88,7.19,44.93,4.59,75.68,1.83,26.2-2.35,53.3-4.78,74.81-1.49,24.29,3.71,37.43,14.4,40.16,32.68,6.9,46.15,36.59,82.78,70.19,102.62v-.75C537.49,200.65,508.1,164.27,501.26,118.47Z"/><path class="cls-10" d="M570.8,220.44v.75"/><g class="cls-12"><path class="cls-13" d="M.56,182.68V182"/><path class="cls-13" d="M497.66,334.57c-31.07-16.58-62.09-20.64-92.19-12.08C323.29,345.85,276.54,350.05,244.11,337c-33.54-13.52-52.77-46.27-74.63-98.27-10.11-24-25.8-41.82-46.62-52.83-16.65-8.81-36.61-13.34-59.3-13.45-26.3-.14-50.26,5.76-63,9.58v.68c12.51-3.76,36.12-9.61,62.11-9.61h.9c35.48.18,82.55,11.77,105.31,65.89,21.93,52.15,41.23,85,75,98.62,32.59,13.13,79.46,8.94,161.79-14.46,50.41-14.33,92.84,8.8,123.46,33.07h1A215.78,215.78,0,0,0,497.66,334.57Z"/><path class="cls-13" d="M530.08,356.19h-1"/><path class="cls-13" d="M.56,189.67V189"/><path class="cls-13" d="M406.12,326.18C247,368.09,219.28,339.44,175,239.9c-16.36-36.76-45.93-57.39-87.88-61.31-34-3.18-68.06,5.64-84.41,9.87L.56,189v.66l2.28-.59c33-8.54,133.43-34.55,171.55,51.08,23.22,52.16,41.88,83.07,74,96.94s77.7,10.83,157.94-10.3c48.85-12.87,90,7.36,120,29.39h1.09C497.14,333.88,455.62,313.15,406.12,326.18Z"/><path class="cls-13" d="M527.35,356.19h-1.09"/><path class="cls-13" d="M.56,196.37v-.64"/><path class="cls-13" d="M497,340.39c-30-14.21-60.3-17.75-90.19-10.52-78,18.89-122.49,20.69-153.66,6.22-30.14-14-48.11-43-72.65-95C164.6,207.45,137,188.3,98.37,184.17c-32.09-3.43-64.21,4-85.47,8.86-4.79,1.1-9,2.06-12.34,2.7v.64c3.36-.64,7.53-1.6,12.48-2.73,42.26-9.73,130.22-30,166.86,47.72,24.59,52.16,42.63,81.22,72.95,95.3,31.31,14.53,76,12.74,154.07-6.18,47.12-11.41,86.74,5.95,116.13,25.71h1.19A204.84,204.84,0,0,0,497,340.39Z"/><path class="cls-13" d="M524.24,356.19h-1.19"/><path class="cls-13" d="M.56,202.76v-.63"/><path class="cls-13" d="M496.81,343.44c-29.47-13.14-59.54-16.46-89.39-9.87-75.8,16.74-119.2,17.35-149.78,2.12-30.95-15.42-48.48-47-71.69-93.4-8.38-16.77-19.91-29.77-34.25-38.63-12.28-7.59-27-12.37-43.73-14.19C77.38,186.14,45.78,193,22.7,198c-8.83,1.91-16.49,3.56-22.14,4.18v.63c5.58-.61,13.14-2.24,22.27-4.21,44.34-9.58,126.86-27.4,162.57,44,23.27,46.52,40.85,78.18,72,93.68,30.72,15.3,74.23,14.7,150.19-2.07,45.76-10.11,83.27,4.27,112,22h1.07A199.84,199.84,0,0,0,496.81,343.44Z"/><path class="cls-13" d="M520.67,356.19H519.6"/><path class="cls-13" d="M.56,208.86v-.6"/><path class="cls-13" d="M408.07,337.26c-150.89,30.06-170.13-6.2-216.63-93.77-15.54-29.28-40-45.29-74.65-48.93-29.29-3.07-59.87,3.33-84.44,8.47-13,2.73-24,5-31.79,5.23v.6c7.84-.21,18.87-2.51,31.91-5.24,49.15-10.29,123.42-25.83,158.44,40.15,24.89,46.86,41.63,76.39,71,92.08,30.15,16.11,72.53,16.69,146.28,2,43.52-8.67,79.27,3,107.13,18.34h1.24C488.49,340.55,452.28,328.46,408.07,337.26Z"/><path class="cls-13" d="M516.56,356.19h-1.24"/><path class="cls-13" d="M.56,214.75v-.58"/><path class="cls-13" d="M408.72,341c-70.61,12.51-111.41,11-140.83-5.34-28.61-15.86-45.57-45.93-69-87.56l-1.9-3.38c-15.36-27.21-38.84-42-71.78-45.19-28.14-2.74-58.68,3.59-83.23,8.68-16.49,3.42-31.16,6.45-41.37,6v.58c10.3.45,25-2.59,41.49-6C92.65,198.26,162,183.9,196.43,245l1.9,3.38c23.53,41.71,40.52,71.85,69.28,87.78,29.55,16.38,70.46,17.94,141.22,5.4,40.84-7.24,74.57,1.84,101.31,14.66h1.34C484.49,343.05,450.29,333.59,408.72,341Z"/><path class="cls-13" d="M511.48,356.19h-1.34"/><path class="cls-13" d="M.56,220.5v-.57"/><path class="cls-13" d="M497.3,353c-28.59-10.38-57.35-13.13-87.93-8.39-65.66,10.18-105.78,7.88-134.14-7.71-27.5-15.12-43.7-42.29-66.13-79.9-2.16-3.62-4.38-7.35-6.67-11.16-15.19-25.28-37.82-38.89-69.19-41.62-27.07-2.34-56.12,3.71-81.75,9.06-20.29,4.23-38.2,8-50.93,6.61v.57c12.82,1.33,30.75-2.39,51.05-6.62,25.59-5.34,54.59-11.39,81.58-9,31.17,2.71,53.66,16.23,68.75,41.34q3.44,5.73,6.67,11.16C231.08,295,247.32,322.25,275,337.44c28.47,15.65,68.7,18,134.5,7.78,38.16-5.92,69.28.6,94.64,11h1.28Q501.45,354.56,497.3,353Z"/><path class="cls-13" d="M505.38,356.19H504.1"/><path class="cls-13" d="M.56,226.15v-.56"/><path class="cls-13" d="M410,348.35c-61.74,8.18-99.88,5.19-127.52-10-26.39-14.49-41.81-39.12-63.17-73.2-3.63-5.81-7.39-11.81-11.41-18.09-15-23.46-36.88-35.94-66.82-38.17-26-1.93-54.73,4.16-80,9.54-23.94,5.08-45,9.53-60.5,7.15v.56c15.63,2.37,36.67-2.08,60.62-7.17,25.27-5.36,53.91-11.45,79.88-9.52,29.75,2.21,51.46,14.61,66.39,37.91,4,6.28,7.78,12.28,11.41,18.09,21.4,34.15,36.86,58.83,63.37,73.39,27.75,15.25,66,18.25,127.87,10,33.87-4.49,62-.29,85.41,7.29h1.84C473.54,348.25,444.81,343.73,410,348.35Z"/><path class="cls-13" d="M497.35,356.19h-1.84"/><path class="cls-13" d="M.56,231.73v-.55"/><path class="cls-13" d="M410.67,352c-57.16,6.27-94.48,2.53-121-12.15-25.27-14-40.67-37.55-60.17-67.4-5.05-7.73-10.27-15.72-16.08-24.22-33.3-48.67-91.45-36-142.77-24.77-26.3,5.75-51.26,11.19-70.08,7.68v.55c18.92,3.5,43.89-1.95,70.2-7.69C121.9,212.87,179.87,200.2,213,248.58c5.81,8.49,11,16.48,16.08,24.21,19.54,29.91,35,53.53,60.36,67.58,26.63,14.73,64.05,18.5,121.33,12.21,27.86-3.06,51.68-1,72.16,3.61h2.45C464.3,351.19,439.66,348.86,410.67,352Z"/><path class="cls-13" d="M485.34,356.19h-2.45"/><path class="cls-13" d="M.56,237.26v-.54"/><path class="cls-13" d="M239.52,279.11c-6.37-9.43-13-19.18-20.62-29.64-14.71-20.1-35.16-30.46-62.52-31.67-24.15-1.06-50.58,4.92-76.15,10.7-29.48,6.67-57.44,13-79.67,8.22v.54C22.89,242,50.85,235.69,80.35,229c25.53-5.78,51.93-11.75,76-10.69,27.19,1.21,47.51,11.49,62.12,31.45,7.65,10.46,14.24,20.2,20.61,29.62,18.49,27.37,33.1,49,57.36,62.61,12.7,7.13,27.74,11.81,46.12,14.18h5.21C287.38,349.92,267.8,321,239.52,279.11Z"/><path class="cls-13" d="M463,356.19h-5.35"/><path class="cls-13" d="M411.32,355.73q-2.86.25-5.64.46h6.64a264.15,264.15,0,0,1,45.31,0H463A261.39,261.39,0,0,0,411.32,355.73Z"/><path class="cls-13" d="M339.29,356.19h-3.07"/><path class="cls-13" d="M.56,242.75v-.53"/><path class="cls-13" d="M249.34,285.06c-7.57-10.93-15.4-22.23-25-34.4C191.94,209.34,140,221.58,89.83,233.42c-32.53,7.67-63.34,14.92-89.27,8.8v.53c26,6.1,56.85-1.16,89.39-8.83,50-11.8,101.79-24,134,17.06,9.54,12.16,17.37,23.45,24.94,34.38,17.46,25.2,31.26,45.11,54.41,58.41a116.88,116.88,0,0,0,32.89,12.42h3.07C291.87,346.42,273.54,320,249.34,285.06Z"/><path class="cls-13" d="M.56,248.22v-.51"/><path class="cls-13" d="M258.92,290.43c-8.64-12.29-17.59-25-29-38.57-14.38-17-33.56-25.42-58.64-25.64-22.39-.19-47.52,6-71.82,12-33.86,8.37-68.84,17-98.86,9.48v.51c30.11,7.5,65.1-1.13,99-9.5,50.47-12.46,98.14-24.22,130,13.46,11.45,13.56,20.38,26.26,29,38.54C274.33,313.19,288,332.6,310,345.65a111,111,0,0,0,24.3,10.54h1.09C297.24,344.88,280.52,321.12,258.92,290.43Z"/><path class="cls-13" d="M335.42,356.19h-1.09"/><path class="cls-13" d="M268.2,295.26c-9.57-13.53-19.47-27.52-32.83-42.2C203.78,218.36,157.74,230.31,109,243,72.51,252.41,34.81,262.18.56,253.18v.5c34.34,9,72.05-.79,108.56-10.26,48.6-12.6,94.5-24.51,125.88,10,13.35,14.66,23.24,28.64,32.8,42.15,14.9,21.06,27.76,39.24,48.72,52.11a107,107,0,0,0,17.29,8.54h1.06C302.61,343.89,287.05,321.9,268.2,295.26Z"/><path class="cls-13" d="M.56,253.68v-.5"/><path class="cls-13" d="M334.87,356.19h-1.06"/><path class="cls-13" d="M.56,259.12v-.49"/><path class="cls-13" d="M277.15,299.63c-10.34-14.69-21-29.89-36.3-45.38-14.21-14.43-31.71-20.81-55.06-20.07-20.74.66-43.33,6.84-67.25,13.37-39,10.65-79.24,21.64-118,11.08v.49c38.82,10.54,79.12-.45,118.11-11.11,46.75-12.77,90.9-24.84,121.85,6.58,15.22,15.46,25.91,30.64,36.24,45.31C293,323,307.3,343.28,334.26,356.19h1.14C307.92,343.33,293.56,322.94,277.15,299.63Z"/><path class="cls-13" d="M335.4,356.19h-1.14"/><path class="cls-13" d="M285.73,303.59c-11-15.8-22.28-32.15-39.39-48.14-14-13.11-31-18.66-53.38-17.46-20,1.07-41.8,7.38-64.92,14-39.39,11.36-84,24.21-127.48,12v.48c43.6,12.15,88.2-.71,127.61-12.08C175,239,215.53,227.28,246,255.79c17.07,16,28.38,32.28,39.32,48.07C298,322.05,309.88,339.24,328.72,352c2.2,1.49,4.47,2.89,6.81,4.22h1.11C313.1,343.07,300,324.12,285.73,303.59Z"/><path class="cls-13" d="M.56,264.56v-.48"/><path class="cls-13" d="M336.64,356.19h-1.11"/><path class="cls-13" d="M337.92,356.19h-.68"/><path class="cls-13" d="M.56,270v-.47"/><path class="cls-13" d="M293.94,307.2c-11.41-16.89-23.2-34.35-42.11-50.55-30.23-25.91-69.21-14-114.35-.25C96,269.06,49,283.38.56,269.53V270c48.54,13.82,95.54-.5,137.05-13.17,45-13.73,83.88-25.59,113.93.16,18.86,16.16,30.64,33.6,42,50.46,11.84,17.53,23,34.07,40.84,46.82.93.66,1.88,1.29,2.83,1.92h.68C318.32,343.28,306.58,325.92,293.94,307.2Z"/><path class="cls-13" d="M.12,274.86l-.12.42.56.16V275Z"/><path class="cls-13" d="M301.77,310.51c-11.7-18-23.81-36.53-44.45-52.66-29.77-23.27-67.17-11.19-110.48,2.8S54.18,290.56.56,275v.45c53.71,15.56,103-.34,146.41-14.38,43.19-13.95,80.5-26,110.08-2.87,20.58,16.09,32.67,34.63,44.36,52.56,11,16.82,21.33,32.71,37.84,45.44h.81C323.19,343.37,312.63,327.17,301.77,310.51Z"/><path class="cls-13" d="M340.06,356.19h-.81l.56.44"/><path class="cls-13" d="M309.23,313.56c-11.86-19-24.12-38.71-46.42-54.51-29.3-20.77-65.17-8.49-106.7,5.72-45.22,15.47-96.48,33-155.43,15.7l-.12.41c59.08,17.34,110.4-.22,155.69-15.71,41.42-14.18,77.2-26.41,106.32-5.78,22.23,15.75,34.46,35.4,46.3,54.39,9.49,15.24,18.74,30.08,32.64,42.41h.65C328.09,343.82,318.78,328.89,309.23,313.56Z"/><path class="cls-13" d="M342.16,356.19h-.65"/><path class="cls-13" d="M316.33,316.39c-11.87-20.11-24.15-40.91-48-56.14-28.82-18.39-63.21-5.92-103,8.52-46.77,17-99.78,36.18-164,17.31l-.11.39c28.69,8.42,57.84,9.95,89.13,4.65,27.29-4.61,52.72-13.84,75.15-22,39.72-14.4,74-26.84,102.67-8.56,23.8,15.19,36.05,35.94,47.89,56,8,13.6,16.3,27.61,28.12,39.59h.47C332.82,344.34,324.67,330.54,316.33,316.39Z"/><path class="cls-13" d="M344.56,356.19h-.47"/><path class="cls-13" d="M323.08,319c-11.75-21.2-23.9-43.12-49.29-57.58-13-7.4-27.57-9.33-45.85-6-16.47,3-34.51,9.89-53.62,17.23-45.8,17.61-102.8,39.52-172.52,19l-.11.38c31.1,9.14,62.2,10.74,95.06,4.91,28.61-5.09,54.7-15.11,77.72-24,38.07-14.63,70.94-27.27,99.12-11.22,25.3,14.4,37.42,36.28,49.15,57.43,7,12.58,14.13,25.5,24.06,37h.58C337.29,344.67,330.14,331.76,323.08,319Z"/><path class="cls-13" d="M347.38,356.19h-.58"/><path class="cls-13" d="M329.52,321.51c-12-23.33-23.42-45.37-50.24-58.86-12.78-6.43-26.93-7.72-44.52-4.07-15.86,3.3-33.18,10.35-51.51,17.82-47,19.16-105.57,43-180.89,20.89l-.11.37a214,214,0,0,0,60.65,8.9c47.33,0,86.85-16.1,120.49-29.81,36.49-14.86,68-27.7,95.71-13.76,26.72,13.44,38.07,35.42,50.08,58.7,6.05,11.73,12.19,23.62,20.49,34.5h.48C341.78,345.27,335.61,333.31,329.52,321.51Z"/><path class="cls-13" d="M350.15,356.19h-.48"/><path class="cls-13" d="M353.09,356.19h-.45"/><path class="cls-13" d="M335.65,323.85c-11.67-24.5-22.7-47.64-50.88-60-12.57-5.51-26.31-6.21-43.25-2.19-15.28,3.62-31.9,10.79-49.49,18.39C143.88,300.83,84,326.69,2.92,302.9l-.11.35C84,327.09,144,301.19,192.17,280.38c36.43-15.72,65.21-28.14,92.45-16.2,28.06,12.31,39.06,35.39,50.7,59.83,5.19,10.89,10.44,21.91,17.32,32.18h.45C346.16,345.87,340.87,334.8,335.65,323.85Z"/><path class="cls-13" d="M341.51,326.05c-11.2-25.67-21.78-49.92-51.26-61-12.35-4.64-25.7-4.77-42-.41-14.74,3.94-30.68,11.23-47.56,18.95C151.52,306.05,90.36,334,3.48,308.5l-.1.34c87,25.55,148.23-2.44,197.43-24.93,34.94-16,62.55-28.59,89.32-18.53,29.34,11,39.89,35.21,51.06,60.81,4.37,10,8.85,20.27,14.57,30h.39C350.43,346.48,345.94,336.21,341.51,326.05Z"/><path class="cls-13" d="M356.15,356.19h-.39"/><path class="cls-13" d="M359.3,356.19H359"/><path class="cls-13" d="M347.11,328.14c-10.63-26.85-20.67-52.21-51.37-61.89-12.13-3.82-25.13-3.41-40.89,1.29-14.21,4.24-29.51,11.65-45.71,19.48-50,24.21-112.28,54.35-205.1,27.09l-.1.33c41.31,12.13,80.21,14,118.92,5.69,33.51-7.19,61.62-20.8,86.43-32.8,33.54-16.23,60-29.05,86.35-20.75,30.54,9.62,40.56,34.91,51.15,61.69,3.69,9.3,7.45,18.79,12.16,27.92h.35C354.62,347.08,350.84,337.57,347.11,328.14Z"/><path class="cls-13" d="M352.48,330.12c-10-28-19.39-54.51-51.25-62.66-11.93-3.06-24.57-2.14-39.8,2.89-13.74,4.54-28.42,12.06-44,20-50.8,26-114,58.37-212.87,29.35L4.5,320c44,12.91,84.81,14.82,124.86,5.84,34.64-7.76,63.12-22.34,88.25-35.21,30.94-15.84,57.65-29.51,83.54-22.89,31.69,8.12,41.08,34.51,51,62.46,3.07,8.63,6.2,17.41,10.05,26h.38C358.67,347.52,355.52,338.66,352.48,330.12Z"/><path class="cls-13" d="M362.6,356.19h-.38"/></g><rect class="cls-14" x="445.96" y="243.06" width="22.77" height="0.26" transform="translate(-38.13 394.22) rotate(-44.95)"/><rect class="cls-14" x="432.75" y="239.61" width="42.3" height="0.26" transform="translate(-36.7 390.78) rotate(-44.95)"/><polygon class="cls-14" points="432.13 254.79 431.95 254.61 468.77 217.79 468.95 217.98 432.13 254.79"/><rect class="cls-14" x="417.71" y="232.71" width="58.59" height="0.26" transform="translate(-33.68 384.41) rotate(-45.02)"/><polygon class="cls-14" points="420.62 252.51 420.44 252.33 466.5 206.26 466.69 206.44 420.62 252.51"/><polygon class="cls-14" points="416 250.23 415.81 250.05 464.44 201.43 464.62 201.61 416 250.23"/><polygon class="cls-14" points="410.87 248.46 410.69 248.28 461.28 197.68 461.47 197.87 410.87 248.46"/><rect class="cls-14" x="396.85" y="219.49" width="71.55" height="0.26" transform="translate(-28.79 369.61) rotate(-44.92)"/><polygon class="cls-14" points="403.97 241.56 403.79 241.38 454.38 190.78 454.57 190.97 403.97 241.56"/><polygon class="cls-14" points="402.2 236.43 402.01 236.25 450.63 187.63 450.82 187.81 402.2 236.43"/><polygon class="cls-14" points="399.92 231.81 399.74 231.63 445.8 185.56 445.99 185.74 399.92 231.81"/><polygon class="cls-14" points="397.63 227.21 397.44 227.02 441.18 183.28 441.37 183.47 397.63 227.21"/><polygon class="cls-14" points="396.49 221.45 396.3 221.26 435.42 182.14 435.61 182.33 396.49 221.45"/><rect class="cls-14" x="391.35" y="198.22" width="42.3" height="0.26" transform="translate(-19.84 348.61) rotate(-44.85)"/><rect class="cls-14" x="396.04" y="194.77" width="26.03" height="0.26" transform="translate(-19.09 343.22) rotate(-44.58)"/><path class="cls-14" d="M529.4,72.07,538,82.53l8.69-10.38.75.63-9.07,10.83a.51.51,0,0,1-.38.18h0a.53.53,0,0,1-.38-.18l-9-10.92Z"/><path class="cls-14" d="M529.42,78.91,538,89.37,546.7,79l.75.63-9.07,10.84a.48.48,0,0,1-.37.17h0a.49.49,0,0,1-.38-.17l-9-10.92Z"/><path class="cls-14" d="M529.39,85,538,95.47l8.69-10.39.75.63-9.07,10.84a.48.48,0,0,1-.37.17h0a.46.46,0,0,1-.37-.18l-9-10.91Z"/><path class="cls-14" d="M529.41,91.84,538,102.3l8.7-10.38.75.63-9.07,10.83a.48.48,0,0,1-.38.18h0a.51.51,0,0,1-.38-.18l-9-10.92Z"/><path class="cls-15" d="M443.56,231a23.83,23.83,0,1,0,23.83,23.82A23.84,23.84,0,0,0,443.56,231Zm0,45.13a21.31,21.31,0,1,1,21.3-21.31A21.33,21.33,0,0,1,443.56,276.1Z"/><path class="cls-14" d="M547.58,345.11a1.67,1.67,0,0,1-1.18-.5,1.68,1.68,0,1,1,1.2.5Z"/><path class="cls-14" d="M547.76,328.44a1.68,1.68,0,0,1-1.18-.51,1.61,1.61,0,0,1-.48-1.19,1.68,1.68,0,1,1,1.68,1.7Z"/><path class="cls-14" d="M547.94,311.76a1.68,1.68,0,0,1-1.18-.51,1.61,1.61,0,0,1-.48-1.19,1.68,1.68,0,1,1,1.67,1.7Z"/><path class="cls-14" d="M548.11,295.08a1.69,1.69,0,1,1,1.71-1.67,1.7,1.7,0,0,1-1.71,1.67Z"/><path class="cls-14" d="M548.29,278.4a1.69,1.69,0,1,1,1.7-1.67,1.69,1.69,0,0,1-1.7,1.67Z"/><path class="cls-14" d="M548.47,261.72a1.68,1.68,0,0,1-1.18-.51,1.61,1.61,0,0,1-.48-1.19,1.69,1.69,0,0,1,1.68-1.67,1.71,1.71,0,0,1,1.68,1.7,1.69,1.69,0,0,1-1.68,1.67Z"/><path class="cls-14" d="M548.65,245a1.68,1.68,0,0,1,0-3.36,1.68,1.68,0,1,1,0,3.36Z"/><path class="cls-14" d="M562.26,345.27a1.67,1.67,0,0,1-1.66-1.7,1.68,1.68,0,1,1,1.68,1.7Z"/><path class="cls-14" d="M562.44,328.59a1.67,1.67,0,0,1-1.66-1.7,1.68,1.68,0,0,1,2.88-1.16,1.74,1.74,0,0,1,.48,1.2,1.69,1.69,0,0,1-1.68,1.66Z"/><path class="cls-14" d="M562.61,311.91a1.67,1.67,0,0,1-1.18-.5,1.72,1.72,0,0,1-.48-1.2,1.68,1.68,0,1,1,1.69,1.7Z"/><path class="cls-14" d="M562.79,295.23a1.67,1.67,0,0,1-1.18-.5,1.72,1.72,0,0,1-.48-1.2,1.69,1.69,0,0,1,1.68-1.66,1.67,1.67,0,0,1,1.2.51,1.61,1.61,0,0,1,.48,1.19,1.68,1.68,0,0,1-1.68,1.66Z"/><path class="cls-14" d="M563,278.55a1.67,1.67,0,0,1-1.66-1.7,1.68,1.68,0,1,1,1.68,1.7Z"/><path class="cls-14" d="M563.15,261.87a1.67,1.67,0,0,1-1.66-1.7,1.68,1.68,0,1,1,1.68,1.7Z"/><path class="cls-14" d="M563.33,245.19a1.67,1.67,0,0,1-1.19-.5,1.68,1.68,0,0,1,1.21-2.86,1.68,1.68,0,1,1,0,3.36Z"/><path class="cls-14" d="M554.86,352.55a1.68,1.68,0,0,1,0-3.36,1.67,1.67,0,0,1,1.68,1.69,1.69,1.69,0,0,1-1.68,1.67Z"/><path class="cls-14" d="M555,335.87a1.68,1.68,0,1,1,1.7-1.66,1.69,1.69,0,0,1-1.7,1.66Z"/><path class="cls-14" d="M555.21,319.19a1.68,1.68,0,1,1,1.71-1.66,1.68,1.68,0,0,1-1.71,1.66Z"/><path class="cls-14" d="M555.39,302.51a1.68,1.68,0,0,1,0-3.36,1.68,1.68,0,1,1,0,3.36Z"/><path class="cls-14" d="M555.57,285.83a1.68,1.68,0,1,1,1.7-1.66,1.68,1.68,0,0,1-1.7,1.66Z"/><path class="cls-14" d="M555.75,269.15a1.68,1.68,0,0,1,0-3.36,1.68,1.68,0,1,1,0,3.36Z"/><path class="cls-14" d="M555.92,252.47a1.68,1.68,0,1,1,1.71-1.66,1.69,1.69,0,0,1-1.71,1.66Z"/><path class="cls-13" d="M505.09,303.63h23.55L516.86,324ZM526.26,305H507.47l9.39,16.28Z"/><polygon class="cls-13" points="446.86 67.22 444.37 67.22 444.37 64.73 442.75 64.73 442.75 67.22 440.26 67.22 440.26 68.84 442.75 68.84 442.75 71.33 444.37 71.33 444.37 68.84 446.86 68.84 446.86 67.22"/><polygon class="cls-13" points="371.44 251.7 368.95 251.7 368.95 249.22 367.33 249.22 367.33 251.7 364.85 251.7 364.85 253.32 367.33 253.32 367.33 255.81 368.95 255.81 368.95 253.32 371.44 253.32 371.44 251.7"/><polygon class="cls-13" points="553.11 137.34 550.63 137.34 550.63 134.85 549.01 134.85 549.01 137.34 546.52 137.34 546.52 138.96 549.01 138.96 549.01 141.45 550.63 141.45 550.63 138.96 553.11 138.96 553.11 137.34"/><polygon class="cls-16" points="523.46 218.81 520.97 218.81 520.97 216.32 519.35 216.32 519.35 218.81 516.86 218.81 516.86 220.43 519.35 220.43 519.35 222.92 520.97 222.92 520.97 220.43 523.46 220.43 523.46 218.81"/><polygon class="cls-17" points="365.8 78.1 363.31 78.1 363.31 75.61 361.69 75.61 361.69 78.1 359.21 78.1 359.21 79.72 361.69 79.72 361.69 82.2 363.31 82.2 363.31 79.72 365.8 79.72 365.8 78.1"/><polygon class="cls-15" points="302.73 302.82 300.24 302.82 300.24 300.33 298.62 300.33 298.62 302.82 296.13 302.82 296.13 304.44 298.62 304.44 298.62 306.93 300.24 306.93 300.24 304.44 302.73 304.44 302.73 302.82"/><polygon class="cls-15" points="484.54 64.73 495.84 76.03 495.84 53.44 484.54 64.73"/><polygon class="cls-18" points="0.9 356.19 570.8 356.19 570.8 356.19 570.8 0 0.9 0 0.9 356.19"/></g></g></g></svg>