<svg xmlns="http://www.w3.org/2000/svg" viewBox="0 0 155.47 137.4"><defs><style>.cls-1{fill:#333;}.cls-2{fill:#fec928;}</style></defs><title>footbal deco</title><g id="Layer_2" data-name="Layer 2"><g id="Objects"><path class="cls-1" d="M114,12.31c8.9,7.22,7.61,32.62,12.51,33.26s21.92-6.06,29-12.76c-10.06,14.57-29.66,26-36.62,21.92S118.85,22.75,114,12.31Z"/><path class="cls-1" d="M111.63,31.13C103.9,18.37,92.81,8.7,89.2,7.54s-21.53,8.9-28.11,19C68.7,8.44,84-3,92.42.71s17,8.51,18.18,9.54C111,16.69,112.92,19.4,111.63,31.13Z"/><path class="cls-1" d="M68.86,39c2.24,9.58,31.37,22.41,44,33S98.6,105.45,66.41,125.21c23.63-22,48.9-38.1,18.74-50.12S43.8,52.28,68.86,39Z"/><path class="cls-1" d="M52,54.72c-2.24,9.17-11.61,25.47-23.43,33.21S10.59,108.1,0,133.15c20-30.76,38.71-31.37,46.24-41.35S66.6,68.25,66.6,68.25C60.48,65.86,54.82,61.61,52,54.72Z"/><circle class="cls-1" cx="131.77" cy="16.44" r="8.98" transform="translate(-1.02 17.68) rotate(-7.65)"/><path class="cls-2" d="M100.18,126.22A11.18,11.18,0,1,1,89,115,11.18,11.18,0,0,1,100.18,126.22Z"/></g></g></svg>