<svg xmlns="http://www.w3.org/2000/svg" data-name="Layer 1" viewBox="0 0 100 125" x="0px" y="0px"><title>21</title><path d="M94.00214,69.12976H79.96191V50a2.0001,2.0001,0,0,0-2-2H52V30.87024H66.04041a.99787.99787,0,0,0,.99786-.99793V5.99786A.99785.99785,0,0,0,66.04041,5H33.95959a.99785.99785,0,0,0-.99786.99786V29.87231a.99787.99787,0,0,0,.99786.99793H48V48H22.03809a2.0001,2.0001,0,0,0-2,2V69.12976H5.99786A.9979.9979,0,0,0,5,70.12769V94.00214A.99789.99789,0,0,0,5.99786,95H38.07874a.99789.99789,0,0,0,.99786-.99786V70.12769a.9979.9979,0,0,0-.99786-.99793H24.03809V52H75.96191V69.12976H61.92126a.9979.9979,0,0,0-.99786.99793V94.00214A.99789.99789,0,0,0,61.92126,95H94.00214A.99789.99789,0,0,0,95,94.00214V70.12769A.9979.9979,0,0,0,94.00214,69.12976Z"/></svg>