<svg xmlns="http://www.w3.org/2000/svg" xmlns:xlink="http://www.w3.org/1999/xlink" viewBox="0 0 87.84 138.03"><defs><style>.cls-1{fill:none;}.cls-2{clip-path:url(#clip-path);}.cls-3{fill:#f37a6f;}.cls-4{fill:#f7a095;}.cls-5{fill:#4e4185;}.cls-6{fill:#452b6a;}.cls-7{fill:#e52d66;}.cls-8{fill:#fff;}.cls-9{fill:#cc1d5e;}.cls-10{fill:#4c58a7;}.cls-11{fill:#46a8df;}.cls-12{fill:#2854a5;}.cls-13{fill:#3c92d0;}.cls-14{opacity:0.5;}.cls-15{fill:#4b8441;}.cls-16{fill:#70bf47;}.cls-17{fill:#67bd53;}</style><clipPath id="clip-path" transform="translate(-7.13 -2.06)"><rect class="cls-1" width="87.12" height="144"/></clipPath></defs><title>apporvedTournamentSVG</title><g id="Layer_2" data-name="Layer 2"><g id="Crop_Marks" data-name="Crop Marks"><g class="cls-2"><path class="cls-3" d="M41.6,81.29a21.1,21.1,0,0,1-2.7,7.2c-1.09,1.65-1.22,2.59-.41,3.11,1.71,1.07,2.7.57,2.81-.5,1.35-.31,0-2,.21-2.29l3.06-5.13Z" transform="translate(-7.13 -2.06)"/><path class="cls-4" d="M41.57,95.6a36.3,36.3,0,0,1-3.36,4.05c-.88.86-.9,2.36-1.15,3.42a3.14,3.14,0,0,0,.38,2.38c1,1.32,1.62,2,3.83,4.59s6.78,7.16,7.63,9.07,4,1.39,4,1.39-1.8-5-2.75-7c-1.15-2.38-3.53-8.19-5.88-9.2,2.38-1.63,6.29-4.95,6.29-4.95Z" transform="translate(-7.13 -2.06)"/><path class="cls-4" d="M79.33,114.87c-2.31-3.64-5.68-5.62-8-7S65.19,99,65.19,99l-5.56,5.71A77.46,77.46,0,0,0,64.32,111a12.64,12.64,0,0,0,4.53,2.93,37.28,37.28,0,0,1,3.58,2.46c3.58,2.44,11.64,9.3,11.64,9.3l3.05-1.79S81.31,118,79.33,114.87Z" transform="translate(-7.13 -2.06)"/><path class="cls-5" d="M45.89,90.18l-3.22,4-3.1,3.66s4,.06,6.12,2.2c2.48,2.48,2.74,3.64,2.74,3.64l3.91-3.84s1.45,1.17,3.52,3a46.77,46.77,0,0,1,3.77,3.89s3.77-.35,5.84-1.86a30.88,30.88,0,0,0,3.39-2.82S59.93,91.43,57.42,89.23,45.89,90.18,45.89,90.18Z" transform="translate(-7.13 -2.06)"/><path class="cls-6" d="M56.43,92.2s3.76,3.59,5.65,5.79,4.79,5.85,4.79,5.85l1.08-.92S64,98,61.64,95.6s-4-4-4-4Z" transform="translate(-7.13 -2.06)"/><path class="cls-7" d="M41.35,72.8c-.62.12-3.34.79-4.3,2.5s2.09,2.69,2.54,4.27,1.25,4.71,3.45,7c.92,1,2.08,2.13,1.75,3.31a3.7,3.7,0,0,0-.22,1.61c0,1.86,5.94,3.39,7.76,3.2S59.18,91,59.18,91a65.77,65.77,0,0,1-2.75-7.06c-.57-2.2-.07-9.23-4.09-11.18S43.16,72.46,41.35,72.8Z" transform="translate(-7.13 -2.06)"/><path class="cls-8" d="M40.14,80l.82,1.6a26.9,26.9,0,0,0,5.67-.16,11.74,11.74,0,0,0,2.9-.63l-.4-1.58A31.38,31.38,0,0,1,40.14,80Z" transform="translate(-7.13 -2.06)"/><path class="cls-9" d="M41.35,72.8a3.94,3.94,0,0,1,.71,1.91c.1,1.13-.46,2.5,1.56,2.45a3.73,3.73,0,0,0,3.49-2.87,5.07,5.07,0,0,0,.37-2.52A10.61,10.61,0,0,0,41.35,72.8Z" transform="translate(-7.13 -2.06)"/><path class="cls-4" d="M36.92,69.87c.09-.69,1.11-2.13.9-2.55A3.59,3.59,0,0,1,37.41,65a2.85,2.85,0,0,1,1.16-2.1c.86-.75,4.4-1.82,6.33-.53s1.56,4.11,1.38,5.09a11.43,11.43,0,0,0-.23,2.64,3,3,0,0,0,.58,1.67C46,74.91,45.29,75.8,43,75.8a4.17,4.17,0,0,0-1-3c-.53-.47-1.42-.22-2.09,0-.89.29-.82-.91-1.42-1-.38-.09-.16-.31-.09-.51s-.37-.16-.45-.26c-.17-.26.14-.4.07-.54C37.9,70.16,36.88,70.27,36.92,69.87Z" transform="translate(-7.13 -2.06)"/><path class="cls-6" d="M37.45,64.68s.41-.62,3-.4a11.23,11.23,0,0,0,3.87,3.78,4.51,4.51,0,0,0,1.92,2.72c-.32-1.9.66-4,.16-5.91-.84-3.23-1.92-4.07-5.09-3.66-1.26.17-3.62,1.49-5.22,1C35.91,63.07,36.29,63.88,37.45,64.68Z" transform="translate(-7.13 -2.06)"/><path class="cls-4" d="M42.07,67.13A1,1,0,0,1,43,66c1-.07,1.44,1.36.49,2.43S42.07,67.13,42.07,67.13Z" transform="translate(-7.13 -2.06)"/><path class="cls-9" d="M50.5,73.11c-1,.88-1.42,2.17-.83,5.13a15.08,15.08,0,0,0,2.38,5.51c2.26.85,5.61-.28,5.61-.28a50,50,0,0,0-2.22-7.67C54.1,72.55,51.63,72.08,50.5,73.11Z" transform="translate(-7.13 -2.06)"/><path class="cls-4" d="M53.27,83.92c-3.2-.73-9.22-1.45-10.53-2.7A4.37,4.37,0,0,0,40,79.82c-.9-.26-1.33.27-1.62,1.37s-.18,1.68.32,2,.68-1.3,1.3-1c.84.45.49,2.31,3.24,2.31a6.38,6.38,0,0,1,3.31.88,19.72,19.72,0,0,0,5.35,2.29,8,8,0,0,0,3.12,0,1.59,1.59,0,0,0,1.22-1.16,8.84,8.84,0,0,0,.51-2.75S54.45,83.89,53.27,83.92Z" transform="translate(-7.13 -2.06)"/><path class="cls-5" d="M81.73,123.82a15,15,0,0,1-.69,3.83A11.91,11.91,0,0,1,79.41,131a1.2,1.2,0,0,0,0,1.55c.24.36.64.08,1.49-.47,1.37-.88,2.56-1.09,3.49-2.62.65-1.07,1.14-2.48,2.09-3.19a3.44,3.44,0,0,0,1.35-1.79,7.15,7.15,0,0,0-2.23-2.85c-1-.58-.62.32-.67.93s-.57,1.37-1.16,1.24A4.31,4.31,0,0,0,81.73,123.82Z" transform="translate(-7.13 -2.06)"/><path class="cls-6" d="M79.42,132.54l.5.81a6.45,6.45,0,0,0,3.75-2.19c1.55-1.89,2-2.88,2.87-3.47a7.41,7.41,0,0,0,2.11-2.28l-.81-.94A15.42,15.42,0,0,0,84.59,128a9.37,9.37,0,0,1-2.52,3.1A9.2,9.2,0,0,1,79.42,132.54Z" transform="translate(-7.13 -2.06)"/><path class="cls-6" d="M83.15,129.34c1-1.16,1.37-2.39,2-3.25a6.92,6.92,0,0,1,1.75-1.48,3.42,3.42,0,0,0-2.11,1C83.88,126.65,83.6,128.36,83.15,129.34Z" transform="translate(-7.13 -2.06)"/><polygon class="cls-8" points="73.91 125.59 75.18 125.59 75.45 124.73 74.19 124.67 73.91 125.59"/><polygon class="cls-8" points="74.3 124.16 75.57 124.16 75.7 123.29 74.46 123.23 74.3 124.16"/><path class="cls-5" d="M48.67,118.63a15.44,15.44,0,0,1-2.94,2.54,12.2,12.2,0,0,1-3.37,1.57,1.2,1.2,0,0,0-1,1.22c0,.43.44.46,1.45.57,1.62.17,2.69.75,4.37.15,1.18-.42,2.44-1.22,3.63-1.17A3.45,3.45,0,0,0,53,123a7.19,7.19,0,0,0,0-3.62c-.43-1.09-.68-.14-1.1.3s-1.31.71-1.69.24A4.27,4.27,0,0,0,48.67,118.63Z" transform="translate(-7.13 -2.06)"/><path class="cls-6" d="M41.39,124l-.12.94a6.43,6.43,0,0,0,4.29.65c2.4-.49,3.36-1,4.42-.9a7.5,7.5,0,0,0,3.07-.44L53,123a15.19,15.19,0,0,0-4.78.73,9.5,9.5,0,0,1-3.9.83A9.22,9.22,0,0,1,41.39,124Z" transform="translate(-7.13 -2.06)"/><path class="cls-6" d="M46.31,123.81c1.48-.29,2.56-1,3.62-1.25a6.68,6.68,0,0,1,2.29-.06,3.53,3.53,0,0,0-2.31-.51C48.56,122.17,47.27,123.33,46.31,123.81Z" transform="translate(-7.13 -2.06)"/><polygon class="cls-8" points="38.6 119.11 39.59 119.91 40.34 119.41 39.39 118.57 38.6 119.11"/><polygon class="cls-8" points="39.8 118.24 40.79 119.04 41.44 118.44 40.51 117.62 39.8 118.24"/><path class="cls-3" d="M52,119.79a4.93,4.93,0,1,1-7.67,4.66c0,.21,0,.42,0,.64a5.68,5.68,0,1,0,7.71-5.3Z" transform="translate(-7.13 -2.06)"/><path class="cls-4" d="M49.17,128.78a4.92,4.92,0,0,0,2.78-9,5.66,5.66,0,0,0-7.67,4.66A4.92,4.92,0,0,0,49.17,128.78Z" transform="translate(-7.13 -2.06)"/><path class="cls-8" d="M44.71,122.85a4.48,4.48,0,0,0-.33,1l1.21-.59,2.31,3.32L47.06,130l.84.37.93-3.39,3.76-.81,1.72,2.5a3,3,0,0,0,.39-.54c.22-.37-1.43-2.85-1.43-2.85V122l1.45,0-.62-.81H52.68l-4-1.69-2.87,2.71A10,10,0,0,0,44.71,122.85Z" transform="translate(-7.13 -2.06)"/><polygon class="cls-4" points="41.68 118.45 39.49 120.85 41.66 123.94 45.22 123.21 45.22 120.15 41.68 118.45"/><path class="cls-9" d="M39.42,79.19A17,17,0,0,0,39.15,76c-.38-.85-1.55,1.27-1.55,1.27S38.85,78.56,39.42,79.19Z" transform="translate(-7.13 -2.06)"/><path class="cls-8" d="M50.87,78.34l1.35,3.48a9.33,9.33,0,0,0,2.63-.42l1.58-.52L55.27,77.2A16.11,16.11,0,0,0,50.87,78.34Z" transform="translate(-7.13 -2.06)"/><path class="cls-8" d="M44.51,91.21a18.09,18.09,0,0,0,5.67,2.16c2.92.47,3.74-.34,5.31-1.22A32.89,32.89,0,0,0,58.74,90l-.39-.91s-2.38,1.81-3.5,2.44A7.36,7.36,0,0,1,50,92.4a32.76,32.76,0,0,1-5.37-2Z" transform="translate(-7.13 -2.06)"/><path class="cls-3" d="M38.47,103.57a1.48,1.48,0,0,0,0,1.33,10.34,10.34,0,0,0,.75,1s.26-1.29,0-1.65A3.19,3.19,0,0,0,38.47,103.57Z" transform="translate(-7.13 -2.06)"/><path class="cls-3" d="M67.66,112.43l2,.81S69.61,112.11,67.66,112.43Z" transform="translate(-7.13 -2.06)"/><path class="cls-4" d="M53.14,66.12S50.43,67,49,67.55s-1.62,2.9-1.44,4.34.78,1.78-.06,3.87a8,8,0,0,0,0,6.44c1,2.51,4,.34,4-3.09V74.32l.72-3.22h.9Z" transform="translate(-7.13 -2.06)"/><path class="cls-3" d="M78.73,111.65c-1.93-2.55-4.54-5.83-4.54-5.83l-4.45-.63-.61.62a.37.37,0,0,1-.46,0l0,0a11,11,0,0,0,2.2,6,40.42,40.42,0,0,0,3,3.23A14.07,14.07,0,0,0,78.73,111.65Z" transform="translate(-7.13 -2.06)"/><path class="cls-8" d="M81,122.43c1.67,1.89,2.81,3.76,3,3.67a18.8,18.8,0,0,0,2.81-2.55s-5-7.68-6.67-10c-.36-.51-.87-1.19-1.43-1.92a14.07,14.07,0,0,1-4.87,3.47C76.12,117.38,79,120.16,81,122.43Z" transform="translate(-7.13 -2.06)"/><path class="cls-4" d="M77,74.06c.44,1.68,2.92,2.24,4,3.33A30,30,0,0,1,84.47,83c1.34,2.51,3.94,4.29,4.72,6.62s-.19,3.1,1.36,5.18,3.49,0,4.1-1.5c1.44-3.54-2.44-5.9-2.44-5.9A55.64,55.64,0,0,0,81.75,72C78.52,68.84,77,74.06,77,74.06Z" transform="translate(-7.13 -2.06)"/><path class="cls-6" d="M62.66,87.68a59.85,59.85,0,0,0,6.57,18.92l6.14-4.45L71.63,89.47Z" transform="translate(-7.13 -2.06)"/><path class="cls-4" d="M67.72,93.73s-1.13,5.45-1.69,8.92-.54,5.12,1.49,6.11c2.25,1.09,3.55.28,4.76-1.05,3.09-3.43,4.75-9.62,4.75-9.62Z" transform="translate(-7.13 -2.06)"/><path class="cls-6" d="M70.28,88.56c-2.76,3.17-3.74,8.58-3.74,8.58s2.87-1.26,5.93,1.46a24.56,24.56,0,0,0,4.47,3.26c1.83-7.29,3.53-8.15,2.31-12.42-1.46-5.09-3.17-3.65-3.17-3.65Z" transform="translate(-7.13 -2.06)"/><path class="cls-10" d="M74.57,66.12c-3.8-2-6.08-2.36-9.82-1.46-.37.09-3.09-.5-4.37-.51a15.19,15.19,0,0,0-4.47,1.06,33.91,33.91,0,0,1-3.87.91l.83,5.63s4.59,0,5.7.87c1.68,1.38,1.51,5.48,2.32,8.66.94,3.69.51,5.7.86,6.72,1.4,4,5.15,2.32,9.88,1.47,3.06-.55,6.34.81,8.3,0-.05-1.07-2.13-3.38-4.07-9.81-.6-2-1.18-5.23-1.18-5.23a21.43,21.43,0,0,0,4,2.72c3.67-.48,4.33-4.57,4.33-4.57S77.09,67.43,74.57,66.12Z" transform="translate(-7.13 -2.06)"/><path class="cls-8" d="M52.25,67.58c.14,0,2.61-.52,5.15-1S62,65.79,62,65.79l-.15-1a10.32,10.32,0,0,0-3.58.43,47.54,47.54,0,0,1-6.14,1.41Z" transform="translate(-7.13 -2.06)"/><path class="cls-8" d="M61.75,65.79a16.43,16.43,0,0,0,.91,3.36c.68,1.68,1.24,3.66,1.24,3.66s4-1.93,5.11-4.57,0-4,0-4l-5-.56Z" transform="translate(-7.13 -2.06)"/><path class="cls-3" d="M62.25,63a3.61,3.61,0,0,0,.35,4.17A10.72,10.72,0,0,1,64.49,71s4.77-2.12,3.71-5.9C66.33,63.67,66,60.58,66,60.58Z" transform="translate(-7.13 -2.06)"/><path class="cls-4" d="M60.3,56.17c-1.18.57-2.25,2.26-1.46,5.06s2,5.45,3.76,5.89,4.4-1.83,4.57-4.9S65.24,53.78,60.3,56.17Z" transform="translate(-7.13 -2.06)"/><path class="cls-4" d="M75.37,107.7a4.64,4.64,0,0,0-.35-3.2,8,8,0,0,0-2.78-.17l-4.72,4.43s.53.1,6.06,1.6A5.84,5.84,0,0,0,75.37,107.7Z" transform="translate(-7.13 -2.06)"/><path class="cls-8" d="M81,111.89s3,1.56,4.43.74-1.08-3.92-1.08-3.92-1.61-.31-5.37-2.61a12.28,12.28,0,0,0-4-1.6,4.64,4.64,0,0,1,.35,3.2,5.84,5.84,0,0,1-1.79,2.66l1.79.48A47.64,47.64,0,0,0,81,111.89Z" transform="translate(-7.13 -2.06)"/><path class="cls-7" d="M79.39,131c1.18.19,2.07,1,3.11,1s2-1.6,3-2.82,2.07-2.31,2.26-3a5.15,5.15,0,0,1,.64-1.35,3.55,3.55,0,0,0-1.91-1.71,4.63,4.63,0,0,1-2.16,2.13,2.43,2.43,0,0,0-1.74,1.67c-.65,1.39-2.09,2.14-2.88,3.06a4.2,4.2,0,0,0-.88,1.07A2.54,2.54,0,0,1,79.39,131Z" transform="translate(-7.13 -2.06)"/><path class="cls-6" d="M82.22,132.86c1.54-.06,2.07-1.28,4-3.36,1.48-1.58,3.24-3.21,2.32-4.53a1.91,1.91,0,0,1-.15-.21,5.15,5.15,0,0,0-.64,1.35c-.19.74-1.27,1.82-2.26,3s-2,2.77-3,2.82-1.93-.8-3.11-1a2.54,2.54,0,0,0-.55,0,1.47,1.47,0,0,0-.11.53C78.73,132.9,81.27,132.89,82.22,132.86Z" transform="translate(-7.13 -2.06)"/><path class="cls-7" d="M84.61,119.85c.82.19,1.51-1.57,1.59-2.89s.36-3.32.3-4.09a5.36,5.36,0,0,0-.64-2.75,6.64,6.64,0,0,1-.93-1.55,7,7,0,0,0-2-.37,3.32,3.32,0,0,1,.51,1.92c-.11,1.27-1,2.66-2.43,1.77a23.68,23.68,0,0,1,1.27,4.26,19.11,19.11,0,0,0,1,3.71A2.71,2.71,0,0,1,84.61,119.85Z" transform="translate(-7.13 -2.06)"/><path class="cls-6" d="M83.94,120.59c.72,0,3.25-.33,3.27-5s-.4-6.43-2.28-7.07a6.64,6.64,0,0,0,.93,1.55,5.36,5.36,0,0,1,.64,2.75c.06.77-.21,2.78-.3,4.09s-.77,3.08-1.59,2.89a2.71,2.71,0,0,0-1.35,0C83.47,120.3,83.7,120.58,83.94,120.59Z" transform="translate(-7.13 -2.06)"/><path class="cls-6" d="M83.68,112.9,83,111.8c-.86-1.4-2-1-2.7,0s1,1.34,1.46,1.44A4.55,4.55,0,0,1,83.68,112.9Z" transform="translate(-7.13 -2.06)"/><path class="cls-6" d="M81.78,114.18a4.62,4.62,0,0,1,2.43-.21,2.8,2.8,0,0,1,0,.88l-2.2.28Z" transform="translate(-7.13 -2.06)"/><path class="cls-6" d="M82.22,115.94a3.32,3.32,0,0,1,2-.08,2.75,2.75,0,0,1,0,.87l-1.81.23Z" transform="translate(-7.13 -2.06)"/><path class="cls-3" d="M68.61,108.14s1-.22,1.39,0a1.27,1.27,0,0,0,.55.24,2.08,2.08,0,0,1-1,.38C69.18,108.75,68.61,108.14,68.61,108.14Z" transform="translate(-7.13 -2.06)"/><path class="cls-8" d="M71,75c-1.11,0-3.83.18-5,.2-1.47,0-3.93-.14-4.85-.19.09.44.17.89.22,1.34,1,.07,3,.2,5.45.25,1.73,0,3.69-.12,4.52-.15A7.93,7.93,0,0,1,71,75Z" transform="translate(-7.13 -2.06)"/><path class="cls-8" d="M69,65.32v.86a7.43,7.43,0,0,1,3.46,1c2,1.06,9.72,7.52,9.72,7.52l.4-.79a80.68,80.68,0,0,0-8.43-6.73C70.73,65,69,65.32,69,65.32Z" transform="translate(-7.13 -2.06)"/><path class="cls-8" d="M76.12,98.54,73.48,96.8c-.13.31-.23.63-.34,1l2.57,1.9A8.68,8.68,0,0,1,76.12,98.54Z" transform="translate(-7.13 -2.06)"/><path class="cls-6" d="M82.6,126.85H84a3.69,3.69,0,0,0,0-3.11c-.81-1.46-2.15-.32-1.79.71A9.67,9.67,0,0,1,82.6,126.85Z" transform="translate(-7.13 -2.06)"/><polygon class="cls-6" points="75.09 125.44 74.44 126.17 76.14 127.1 76.86 126.27 75.09 125.44"/><polygon class="cls-6" points="73.88 126.75 73.05 127.39 74.93 128.42 75.65 127.59 73.88 126.75"/><path class="cls-4" d="M62.82,45.73c.07-.73.16-1.58.16-1.58L62.11,44a7.79,7.79,0,0,0-.29,1.16c0,.11,0,.3,0,.52A2.63,2.63,0,0,0,62.82,45.73Z" transform="translate(-7.13 -2.06)"/><path class="cls-6" d="M61.57,48.33l.52.28a12.16,12.16,0,0,0,.65-2.11l.08-.77a2.63,2.63,0,0,1-1,0C61.75,46.36,61.57,48.33,61.57,48.33Z" transform="translate(-7.13 -2.06)"/><path class="cls-4" d="M64,45.73l-.15-1.58.87-.15A7.79,7.79,0,0,1,65,45.16c0,.11,0,.3,0,.52A2.68,2.68,0,0,1,64,45.73Z" transform="translate(-7.13 -2.06)"/><path class="cls-6" d="M65.28,48.33a.66.66,0,0,1-.48.18l-.23,0a14.39,14.39,0,0,1-.46-2c0-.2-.06-.48-.09-.77a2.68,2.68,0,0,0,1,0c0,.51,0,1.23.07,1.63A10.12,10.12,0,0,0,65.28,48.33Z" transform="translate(-7.13 -2.06)"/><path class="cls-3" d="M63,36.76s0,.3,0,.51a3.66,3.66,0,0,0,0,.37s.81.11.87-.18a2,2,0,0,0,0-.7Z" transform="translate(-7.13 -2.06)"/><path class="cls-4" d="M64.25,36.18a.1.1,0,0,0-.13-.08.71.71,0,0,0-.68-.74c-.33,0-.6.32-.65.73a.12.12,0,0,0-.12.08.23.23,0,0,0,.13.29.64.64,0,0,0,1.28,0A.23.23,0,0,0,64.25,36.18Z" transform="translate(-7.13 -2.06)"/><path class="cls-4" d="M61.65,38.45a2.91,2.91,0,0,0-.24.56c-.16.61-.66,1.18-.81,1.77a2.38,2.38,0,0,0-.07,1,1.29,1.29,0,0,0,.5.65.62.62,0,0,0,.69,0c.1-.06.2-.17-.32-.33a1.09,1.09,0,0,1-.52-.64,3.19,3.19,0,0,1,.41-1c.09-.13.18-.37.3-.58a7,7,0,0,0,.51-1.06Z" transform="translate(-7.13 -2.06)"/><path class="cls-6" d="M63.42,37.66a1.37,1.37,0,0,0,.77-.31l-.32-.08c-.11.23-.78.23-.89,0l-.26.09A.86.86,0,0,0,63.42,37.66Z" transform="translate(-7.13 -2.06)"/><path class="cls-6" d="M64.3,41.61H62.63a4.17,4.17,0,0,0-.36,1,14.25,14.25,0,0,0-.16,2.2.88.88,0,0,0,.32.07,2.62,2.62,0,0,0,.69-.07l.32-1.52.33,1.52a1.47,1.47,0,0,0,.72.07,1.8,1.8,0,0,0,.33-.1,13.75,13.75,0,0,0-.16-2.17A4.79,4.79,0,0,0,64.3,41.61Z" transform="translate(-7.13 -2.06)"/><path class="cls-8" d="M62.63,41.61h-.46a10.55,10.55,0,0,0-.27,1.66c0,.69-.1,1.38-.1,1.38a1.36,1.36,0,0,0,.31.15,14.25,14.25,0,0,1,.16-2.2A4.17,4.17,0,0,1,62.63,41.61Z" transform="translate(-7.13 -2.06)"/><path class="cls-8" d="M65.09,43.63a15.45,15.45,0,0,0-.34-2H64.3a4.79,4.79,0,0,1,.36,1,13.75,13.75,0,0,1,.16,2.17l.27-.12A8.59,8.59,0,0,0,65.09,43.63Z" transform="translate(-7.13 -2.06)"/><path class="cls-6" d="M61.34,38.85c-.05.11-.13.25-.13.25a1.38,1.38,0,0,0,.44.29.68.68,0,0,0,.35,0l.11-.18a3.89,3.89,0,0,1-.43-.11A.8.8,0,0,1,61.34,38.85Z" transform="translate(-7.13 -2.06)"/><path class="cls-11" d="M65.77,38.74a7.17,7.17,0,0,0-.36-.64,1.3,1.3,0,0,0-.65-.62l-.57-.13a1.37,1.37,0,0,1-.77.31.86.86,0,0,1-.7-.3l-.41.12c-.19.06-.32.11-.57.5a5.35,5.35,0,0,0-.4.87.8.8,0,0,0,.34.27,3.89,3.89,0,0,0,.43.11l.25-.51s0,.87,0,1.26.08,1.11-.05,1.22-.12.21,0,.27-.13.12-.08.25.42.17.6.18h1.45c.18,0,.54,0,.59-.18s-.14-.18-.07-.25.07-.15,0-.27-.07-.84,0-1.22,0-1.26,0-1.26l.18.46a.83.83,0,0,0,.48-.14A3.18,3.18,0,0,0,65.77,38.74Z" transform="translate(-7.13 -2.06)"/><path class="cls-6" d="M65.35,39.33a2.08,2.08,0,0,0,.54-.37l-.12-.22a3.18,3.18,0,0,1-.4.3.83.83,0,0,1-.48.14l.07.17A.86.86,0,0,0,65.35,39.33Z" transform="translate(-7.13 -2.06)"/><path class="cls-3" d="M61.83,40.52a.79.79,0,0,1,.35.66.8.8,0,0,1-1.6.09v.11a.93.93,0,1,0,1.25-.86Z" transform="translate(-7.13 -2.06)"/><path class="cls-4" d="M61.38,42a.8.8,0,0,0,.8-.8.79.79,0,0,0-.35-.66.88.88,0,0,0-.33-.06.93.93,0,0,0-.92.81A.81.81,0,0,0,61.38,42Z" transform="translate(-7.13 -2.06)"/><path class="cls-8" d="M60.65,41a.67.67,0,0,0,0,.17l.2-.1.37.54-.13.56.13.06.15-.55.62-.13.28.41.06-.09c0-.06-.23-.47-.23-.47v-.53h.23l-.1-.14H62l-.66-.27-.47.44Z" transform="translate(-7.13 -2.06)"/><polygon class="cls-4" points="54.19 38.58 53.84 38.97 54.19 39.47 54.77 39.35 54.77 38.85 54.19 38.58"/><path class="cls-4" d="M66.18,39.7c0-.06-.24-.34-.4-.66a1.12,1.12,0,0,1-.65.32l.35.42-.54.94c-.11.16-.22.48-.47.59a.64.64,0,0,0-.43.45c-.06.19,0,.38.22.32s.22-.17.44-.28.21-.21.3-.35.58-.65.8-.94a2.5,2.5,0,0,0,.33-.58A.33.33,0,0,0,66.18,39.7Z" transform="translate(-7.13 -2.06)"/><path class="cls-6" d="M62.74,36.09a1.16,1.16,0,0,1-.09-.31.57.57,0,0,1,0-.25.21.21,0,0,1,0-.21.12.12,0,0,1,.17,0s0-.18.16-.23a.14.14,0,0,1,.18.05s.07-.13.18-.13a.19.19,0,0,0,.31,0,.21.21,0,0,1,.18.15s.05-.09.18,0a.15.15,0,0,1,.07.19s.11-.11.2,0,0,.26,0,.26v.29a.91.91,0,0,1-.07.31l-.1,0a.75.75,0,0,0-.16-.5.89.89,0,0,0-1,0,.82.82,0,0,0-.12.49Z" transform="translate(-7.13 -2.06)"/><polygon class="cls-6" points="55.6 36.67 57.21 36.66 57.21 36.94 55.6 36.94 55.6 36.67"/><rect class="cls-6" x="56.8" y="36.45" width="0.41" height="0.1"/><path class="cls-11" d="M61.57,47.88s.35-.23.42.27c0,.07.22.15.22.15s.15.36,0,.47a4.56,4.56,0,0,1-.56.41c-.21.13-.23.5-.74.3-.24-.1-.24-.37,0-.56A3.86,3.86,0,0,0,61.57,47.88Z" transform="translate(-7.13 -2.06)"/><path class="cls-6" d="M60.76,49.25s.06-.06.18,0,.05.23.31.17.26-.16.43-.31a3.86,3.86,0,0,1,.59-.42l-.05.15-.47.38c-.16.14-.23.29-.48.3a.47.47,0,0,1-.46-.15A.17.17,0,0,1,60.76,49.25Z" transform="translate(-7.13 -2.06)"/><path class="cls-8" d="M61.37,48.28l-.06.1a1.67,1.67,0,0,1,.28.08c.16.06.26.15.28.07s-.1-.14-.19-.18A1.86,1.86,0,0,0,61.37,48.28Z" transform="translate(-7.13 -2.06)"/><path class="cls-8" d="M61.2,48.56a2.49,2.49,0,0,1,.29.07c.12,0,.19.12.16.17s-.12,0-.22-.08a1.37,1.37,0,0,0-.3-.06Z" transform="translate(-7.13 -2.06)"/><path class="cls-6" d="M61.38,49.26a3.9,3.9,0,0,1,.43-.5.92.92,0,0,1,.37-.15s-.24.17-.36.28A2.61,2.61,0,0,1,61.38,49.26Z" transform="translate(-7.13 -2.06)"/><path class="cls-11" d="M65.17,47.88s-.35-.23-.42.27c0,.07-.22.15-.22.15s-.14.36,0,.47a5.5,5.5,0,0,0,.56.41c.21.13.23.5.74.3.24-.1.24-.37,0-.56A4.15,4.15,0,0,1,65.17,47.88Z" transform="translate(-7.13 -2.06)"/><path class="cls-6" d="M66,49.25s0-.06-.18,0,0,.23-.31.17-.26-.16-.43-.31a4.1,4.1,0,0,0-.58-.42l0,.15.48.38c.15.14.23.29.47.3a.46.46,0,0,0,.46-.15A.17.17,0,0,0,66,49.25Z" transform="translate(-7.13 -2.06)"/><path class="cls-8" d="M65.37,48.28l.06.1a1.74,1.74,0,0,0-.27.08c-.16.06-.27.15-.28.07s.09-.14.19-.18A1.62,1.62,0,0,1,65.37,48.28Z" transform="translate(-7.13 -2.06)"/><path class="cls-8" d="M65.54,48.56a2.49,2.49,0,0,0-.29.07c-.12,0-.19.12-.16.17s.12,0,.22-.08a1.49,1.49,0,0,1,.3-.06Z" transform="translate(-7.13 -2.06)"/><path class="cls-6" d="M65.36,49.26a3.9,3.9,0,0,0-.43-.5.85.85,0,0,0-.36-.15s.23.17.35.28A2.61,2.61,0,0,0,65.36,49.26Z" transform="translate(-7.13 -2.06)"/><path class="cls-4" d="M69.37,45.16s-.06.27-.17.67a18.28,18.28,0,0,0,.07,1.87c0,.83,0,1.68,0,1.68l.52.31s0-.45.14-.94a12.3,12.3,0,0,0,.26-1.51,7.12,7.12,0,0,1,0-1.07,4.42,4.42,0,0,0,.17-1Z" transform="translate(-7.13 -2.06)"/><path class="cls-4" d="M71.82,45.16l.18.67c0,.21,0,.72-.08,1.87,0,.83,0,1.68,0,1.68l-.38.31a7.06,7.06,0,0,1-.31-1.06c-.09-.52-.23-1.08-.24-1.39a7.12,7.12,0,0,0,0-1.07,4.42,4.42,0,0,1-.17-1Z" transform="translate(-7.13 -2.06)"/><path class="cls-11" d="M65.9,34.5l-.22,1.81a18.8,18.8,0,0,0,4.88.78,17.1,17.1,0,0,0,4.87-.74l-.21-1.81a17.54,17.54,0,0,1-4.66.67A19,19,0,0,1,65.9,34.5Z" transform="translate(-7.13 -2.06)"/><path class="cls-7" d="M70.56,33a18,18,0,0,1-4.39-.64L65.9,34.5a19,19,0,0,0,4.66.71,17.54,17.54,0,0,0,4.66-.67L75,32.36A17.71,17.71,0,0,1,70.56,33Z" transform="translate(-7.13 -2.06)"/><path class="cls-11" d="M73.52,30.71a7.34,7.34,0,0,1-3,.61c-.73,0-2.36-.68-3.17-.78s-1,.33-1,.33l-.17,1.44a18,18,0,0,0,4.39.64,17.71,17.71,0,0,0,4.4-.59l-.18-1.49S74.52,30.09,73.52,30.71Z" transform="translate(-7.13 -2.06)"/><path class="cls-3" d="M71.2,34.12s-.31-.11-.3-.29V33.3h-.66s0,.35,0,.53-.3.29-.3.29a.78.78,0,0,0,.47.31.15.15,0,0,0,.1,0h.11a.18.18,0,0,0,.11,0A.83.83,0,0,0,71.2,34.12Z" transform="translate(-7.13 -2.06)"/><path class="cls-4" d="M70,32.79s-.08,0-.14.06.05.28.14.28S70,32.79,70,32.79Z" transform="translate(-7.13 -2.06)"/><path class="cls-4" d="M71.14,32.79s.08,0,.12.08a.21.21,0,0,1-.18.26C71,33.12,71.14,32.79,71.14,32.79Z" transform="translate(-7.13 -2.06)"/><path class="cls-4" d="M71.16,32.91a.86.86,0,0,1-.6.83.87.87,0,0,1-.6-.83c0-.46.27-.83.6-.83S71.16,32.45,71.16,32.91Z" transform="translate(-7.13 -2.06)"/><path class="cls-8" d="M71.68,37a4.18,4.18,0,0,1-.13-1c0-.25.06-.48.09-.64a2,2,0,0,1,0-.26h0a9.07,9.07,0,0,0,.11-1.16,5.12,5.12,0,0,0-.72.12.65.65,0,0,1-1,0s-.26,0-.4-.08a.56.56,0,0,0-.35,0s0,.14.06.42.09.48.14.73.13.64.19,1a1.82,1.82,0,0,1,0,.33h0s0,.09,0,.12,0,.15-.06.25h0a6.53,6.53,0,0,0-.15,1h2.32a3.5,3.5,0,0,0-.11-.89Z" transform="translate(-7.13 -2.06)"/><path class="cls-6" d="M71.15,32.71a.6.6,0,0,0-.41-.71c-.61-.18-.8.43-.77.71Z" transform="translate(-7.13 -2.06)"/><path class="cls-12" d="M71.79,37.86s.21,1.24-.35,1.63a1.24,1.24,0,0,1-2-.33,7.25,7.25,0,0,1,0-1.3Z" transform="translate(-7.13 -2.06)"/><path class="cls-6" d="M72.11,45.9c-.08-.62-.19-1.44-.33-2.09a1.38,1.38,0,0,1-.36-.12H69.64a1.58,1.58,0,0,1-.37.12c-.09.61-.17,1.37-.23,2.14a1.45,1.45,0,0,0,1.34.1c.09-.68.18-1.64.18-1.64A14.82,14.82,0,0,0,70.79,46,1.33,1.33,0,0,0,72.11,45.9Z" transform="translate(-7.13 -2.06)"/><path class="cls-11" d="M70.67,42.38a11.26,11.26,0,0,1-1.6-.12l-.14,1.47a4.44,4.44,0,0,0,1.62.25,8.1,8.1,0,0,0,1.63-.16l-.25-1.54A9.2,9.2,0,0,1,70.67,42.38Z" transform="translate(-7.13 -2.06)"/><path class="cls-11" d="M71.69,40.81v-.08l0,.07a11.18,11.18,0,0,1,.3-1.53,3.52,3.52,0,0,0-.78-.24L70.87,39a.35.35,0,0,1-.35.19.4.4,0,0,1-.35-.19l-.28.06L69,39.2c0,.09-.11.51-.1.58,0,.37.29.62.31,1a7.37,7.37,0,0,0,1.39.14C70.8,40.88,71.32,40.84,71.69,40.81Z" transform="translate(-7.13 -2.06)"/><path class="cls-13" d="M71.93,42.28l-.24-1.47c-.37,0-.89.07-1.09.07a7.37,7.37,0,0,1-1.39-.14v.11l-.14,1.41a11.26,11.26,0,0,0,1.6.12A9.2,9.2,0,0,0,71.93,42.28Z" transform="translate(-7.13 -2.06)"/><path class="cls-13" d="M69.45,39s0,.56,0,.78a3.79,3.79,0,0,0,.32,1A8.66,8.66,0,0,1,70,39l.17,0a2.13,2.13,0,0,0,0-.22,1,1,0,0,0-.3,0A.84.84,0,0,0,69.45,39Z" transform="translate(-7.13 -2.06)"/><path class="cls-13" d="M71.63,39s0,.6-.09.82a2.78,2.78,0,0,1-.33.91A9.12,9.12,0,0,0,71,39l-.17,0a1.08,1.08,0,0,1,0-.22,1.1,1.1,0,0,1,.31,0A1,1,0,0,1,71.63,39Z" transform="translate(-7.13 -2.06)"/><path class="cls-8" d="M69,41.38c.12-.11.25-.15.37,0s.15.14.29,0a.75.75,0,0,1,.14-.12c0-.11,0-.29,0-.29h-.75a1.63,1.63,0,0,0-.22.41v0A.2.2,0,0,0,69,41.38Z" transform="translate(-7.13 -2.06)"/><path class="cls-6" d="M69.13,41.63c.18,0,.3,0,.46,0s.2-.16.21-.33v0a.75.75,0,0,0-.14.12c-.14.14-.17.15-.29,0s-.25-.11-.37,0a.2.2,0,0,1-.18,0C68.84,41.59,69,41.62,69.13,41.63Z" transform="translate(-7.13 -2.06)"/><path class="cls-8" d="M72,41.38c-.12-.11-.25-.15-.37,0s-.15.14-.29,0a.75.75,0,0,0-.14-.12c0-.11,0-.29,0-.29H72a1.63,1.63,0,0,1,.22.41v0A.2.2,0,0,1,72,41.38Z" transform="translate(-7.13 -2.06)"/><path class="cls-6" d="M71.89,41.63c-.18,0-.3,0-.46,0s-.21-.16-.21-.33v0a.75.75,0,0,1,.14.12c.14.14.17.15.29,0s.25-.11.37,0a.2.2,0,0,0,.18,0C72.18,41.59,72.06,41.62,71.89,41.63Z" transform="translate(-7.13 -2.06)"/><path class="cls-5" d="M69.55,37.37c-.53,0-.6,1-.63,1.46,0,.3,0,2.28,0,2.28l1,0s.09-1.9.18-2.6C70.09,38.24,70.07,37.37,69.55,37.37Z" transform="translate(-7.13 -2.06)"/><path class="cls-5" d="M71.48,37.37c.53,0,.6,1,.63,1.46,0,.3,0,2.28,0,2.28l-1,0s-.09-1.9-.18-2.6C70.94,38.24,71,37.37,71.48,37.37Z" transform="translate(-7.13 -2.06)"/><path class="cls-3" d="M70.18,38.64s0,.22,0,.33a.36.36,0,0,0,.32.19c.1,0,.36,0,.38-.19l0-.36Z" transform="translate(-7.13 -2.06)"/><path class="cls-4" d="M71.36,37.91a.1.1,0,0,0-.13-.09v0a.76.76,0,0,0-.66-.78.74.74,0,0,0-.65.73s-.08,0-.12.07a.23.23,0,0,0,.14.29.71.71,0,0,0,.63.63.72.72,0,0,0,.64-.63A.23.23,0,0,0,71.36,37.91Z" transform="translate(-7.13 -2.06)"/><path class="cls-6" d="M71.19,37.11a.81.81,0,0,0-1.21,0,1.86,1.86,0,0,0-.1.73L70,38a2.35,2.35,0,0,1,.12-.45c.05-.09.25,0,.47,0s.42,0,.47,0a1.63,1.63,0,0,1,.12.44l.1-.13A2.5,2.5,0,0,0,71.19,37.11Z" transform="translate(-7.13 -2.06)"/><path class="cls-4" d="M71.27,34s.6-.54.82-.72.78-1,.93-1.13a7.65,7.65,0,0,0,.69-.84c.07-.12.06-.56.13-.61s.1.35.1.35.37-.4.58-.36.42.14,0,.53a3.33,3.33,0,0,0-.75.81,3.71,3.71,0,0,1-1,1.35c-.24.24-.58,1-1,1.41A1.7,1.7,0,0,0,71.27,34Z" transform="translate(-7.13 -2.06)"/><path class="cls-4" d="M69.75,34a3.12,3.12,0,0,0-.67-.69,11.74,11.74,0,0,1-.85-1,7.14,7.14,0,0,1-.7-.88c-.07-.13-.13-.69-.2-.74s-.1.35-.1.35-.37-.4-.58-.36-.47.29,0,.61.5.32.66.65a10.09,10.09,0,0,0,1,1.33c.44.64,1.21,1.51,1.21,1.51A3.19,3.19,0,0,1,69.75,34Z" transform="translate(-7.13 -2.06)"/><path class="cls-11" d="M73.42,31.09a.91.91,0,0,1,1-.5.51.51,0,0,1,.35.28A4.2,4.2,0,0,1,73.42,31.09Z" transform="translate(-7.13 -2.06)"/><path class="cls-11" d="M67.71,31.09a.92.92,0,0,0-1-.5.54.54,0,0,0-.35.28A4.22,4.22,0,0,0,67.71,31.09Z" transform="translate(-7.13 -2.06)"/><path class="cls-6" d="M69.65,32.63s0,0,0,.06-.18.07-.17.17a.11.11,0,0,0,.1.11c0,.1,0,.18,0,.24s.18.06.22,0a.16.16,0,0,0,.15.06.37.37,0,0,0,.26-.28C70.31,32.66,69.87,32.63,69.65,32.63Z" transform="translate(-7.13 -2.06)"/><path class="cls-6" d="M71.42,32.63a0,0,0,0,1,0,.06c.08,0,.17.07.17.17s0,.11-.11.11,0,.18,0,.24-.18.06-.22,0a.14.14,0,0,1-.15.06.36.36,0,0,1-.25-.28C70.76,32.67,71.2,32.64,71.42,32.63Z" transform="translate(-7.13 -2.06)"/><path class="cls-7" d="M69.85,31.74a3.55,3.55,0,0,1,0,.93,3.1,3.1,0,0,0,.7.13v-.92A1.59,1.59,0,0,1,69.85,31.74Z" transform="translate(-7.13 -2.06)"/><path class="cls-8" d="M70.51,30.87a1.47,1.47,0,0,1-.44-.08c-.27-.06-.36.26-.26.7a2.17,2.17,0,0,1,0,.25,1.59,1.59,0,0,0,.66.14Z" transform="translate(-7.13 -2.06)"/><path class="cls-8" d="M71.27,32.67a8.73,8.73,0,0,1-.1-.9,2.33,2.33,0,0,1-.65.11h0v.92A1.38,1.38,0,0,0,71.27,32.67Z" transform="translate(-7.13 -2.06)"/><path class="cls-7" d="M70.52,31.88a2.33,2.33,0,0,0,.65-.11v-.06c0-.35.13-.83,0-.92s-.33,0-.52.06l-.1,0v1Z" transform="translate(-7.13 -2.06)"/><path class="cls-7" d="M69.59,32.47l-.08.2a3.27,3.27,0,0,0,1.06.24,2.3,2.3,0,0,0,1-.28l-.1-.16a2.33,2.33,0,0,1-.89.2A3,3,0,0,1,69.59,32.47Z" transform="translate(-7.13 -2.06)"/><path class="cls-11" d="M72,49.08s-.31-.2-.37.24c0,.06-.19.14-.19.14s-.13.31,0,.41a4.19,4.19,0,0,0,.49.36c.19.12.21.44.66.26.21-.08.21-.32,0-.49A3.59,3.59,0,0,1,72,49.08Z" transform="translate(-7.13 -2.06)"/><path class="cls-6" d="M72.67,50.29s0,0-.17,0,0,.2-.27.15-.22-.15-.37-.27a3.65,3.65,0,0,0-.52-.37l0,.13.42.33c.13.12.2.25.41.27a.4.4,0,0,0,.41-.14A.17.17,0,0,0,72.67,50.29Z" transform="translate(-7.13 -2.06)"/><path class="cls-8" d="M72.13,49.44l.05.09a.9.9,0,0,0-.24.07c-.14,0-.23.13-.25.06s.09-.13.17-.16A1.11,1.11,0,0,1,72.13,49.44Z" transform="translate(-7.13 -2.06)"/><path class="cls-8" d="M72.28,49.68l-.26.06c-.11,0-.16.11-.14.16s.11,0,.19-.07a1.22,1.22,0,0,1,.27-.06Z" transform="translate(-7.13 -2.06)"/><path class="cls-6" d="M72.12,50.3a4.06,4.06,0,0,0-.38-.44.71.71,0,0,0-.32-.13s.21.15.31.24S72.06,50.3,72.12,50.3Z" transform="translate(-7.13 -2.06)"/><path class="cls-11" d="M69.3,49.08s.31-.2.37.24c0,.06.2.14.2.14s.12.31,0,.41a5.6,5.6,0,0,1-.5.36c-.19.12-.2.44-.65.26-.21-.08-.21-.32,0-.49A3.32,3.32,0,0,0,69.3,49.08Z" transform="translate(-7.13 -2.06)"/><path class="cls-6" d="M68.59,50.29s0,0,.16,0,0,.2.27.15.23-.15.38-.27a3.65,3.65,0,0,1,.52-.37l0,.13s-.29.21-.42.33-.21.25-.42.27a.4.4,0,0,1-.41-.14A.14.14,0,0,1,68.59,50.29Z" transform="translate(-7.13 -2.06)"/><path class="cls-8" d="M69.13,49.44l-.06.09a.91.91,0,0,1,.25.07c.14,0,.23.13.24.06s-.08-.13-.16-.16A1.22,1.22,0,0,0,69.13,49.44Z" transform="translate(-7.13 -2.06)"/><path class="cls-8" d="M69,49.68l.25.06c.11,0,.17.11.14.16s-.1,0-.19-.07a1.07,1.07,0,0,0-.26-.06Z" transform="translate(-7.13 -2.06)"/><path class="cls-6" d="M69.14,50.3a3.15,3.15,0,0,1,.38-.44.67.67,0,0,1,.32-.13l-.32.24A2.52,2.52,0,0,1,69.14,50.3Z" transform="translate(-7.13 -2.06)"/><path class="cls-4" d="M71.65,38.61c.27.07.36.21.63.65a5.16,5.16,0,0,1,.55,1c.14.4.06.69-.13.8s-.4-.09-.56-.24-.15-1.28-.36-1.41-.33-.28-.47-.31-.4.15-.34-.12C71,38.89,71,38.45,71.65,38.61Z" transform="translate(-7.13 -2.06)"/><path class="cls-4" d="M69.38,38.61c-.27.07-.36.21-.63.65a5.16,5.16,0,0,0-.55,1c-.14.4-.06.69.13.8s.4-.09.56-.24.15-1.28.36-1.41.33-.28.47-.31.4.15.34-.12C70,38.89,70.07,38.45,69.38,38.61Z" transform="translate(-7.13 -2.06)"/><path class="cls-5" d="M48.4,47.11s-.51,1.42-.89,2.31a6.23,6.23,0,0,0-.57,2.21c-.09.9-.09,1.82-.09,1.82a4,4,0,0,0,.81.17c.15-.16.44-.09.47-.75,0-.85.27-.62.26-1.27,0-.24.23-.47.26-.78s.14-.47.51-1,.76-1,.84-1.05.23-1.18.07-1.18S48.4,47.11,48.4,47.11Z" transform="translate(-7.13 -2.06)"/><polygon class="cls-4" points="40.47 51.57 40.2 52.18 39.8 51.91 39.91 51.4 40.47 51.57"/><path class="cls-6" d="M46.85,53.27v.3s.48.18.57.19l.09,0,.25-.24a1.58,1.58,0,0,1-.45-.09Z" transform="translate(-7.13 -2.06)"/><polygon class="cls-6" points="40.88 46.11 41.26 45.94 41.19 46.14 40.79 46.34 40.88 46.11"/><path class="cls-5" d="M46.83,53.5s.34-.22.41.27c0,.06.21.15.21.15s.14.34,0,.45a4.27,4.27,0,0,1-.54.39c-.21.13-.23.49-.72.29-.23-.09-.23-.35,0-.54A3.72,3.72,0,0,0,46.83,53.5Z" transform="translate(-7.13 -2.06)"/><path class="cls-6" d="M46,54.84s.06-.07.18,0,.05.23.3.17.25-.16.42-.3a4.09,4.09,0,0,1,.57-.41l0,.14-.46.38c-.15.13-.22.27-.46.29a.45.45,0,0,1-.45-.15A.15.15,0,0,1,46,54.84Z" transform="translate(-7.13 -2.06)"/><path class="cls-8" d="M46.64,53.89l-.06.1a1.5,1.5,0,0,1,.26.08c.16,0,.26.15.28.07S47,54,46.93,54A1.57,1.57,0,0,0,46.64,53.89Z" transform="translate(-7.13 -2.06)"/><path class="cls-8" d="M46.47,54.16l.28.07c.12,0,.18.12.16.17s-.12,0-.21-.08a1.44,1.44,0,0,0-.29-.06Z" transform="translate(-7.13 -2.06)"/><path class="cls-6" d="M46.65,54.85a4.28,4.28,0,0,1,.41-.49.85.85,0,0,1,.36-.15l-.35.27A2.65,2.65,0,0,1,46.65,54.85Z" transform="translate(-7.13 -2.06)"/><path class="cls-5" d="M51.6,47.11s.51,1.42.89,2.31a6.21,6.21,0,0,1,.56,2.21c.1.9.1,1.82.1,1.82a4,4,0,0,1-.81.17c-.15-.16-.44-.09-.48-.75,0-.85-.26-.62-.25-1.27,0-.24-.23-.47-.26-.78s-.15-.47-.52-1-.75-1-.84-1.05-.22-1.18-.07-1.18S51.6,47.11,51.6,47.11Z" transform="translate(-7.13 -2.06)"/><polygon class="cls-4" points="45.27 51.57 45.54 52.18 45.93 51.91 45.83 51.4 45.27 51.57"/><path class="cls-6" d="M53.14,53.27v.3s-.48.18-.57.19l-.09,0-.26-.24a1.69,1.69,0,0,0,.46-.09Z" transform="translate(-7.13 -2.06)"/><polygon class="cls-6" points="44.86 46.11 44.48 45.94 44.55 46.14 44.95 46.34 44.86 46.11"/><path class="cls-5" d="M53.16,53.5s-.34-.22-.41.27c0,.06-.21.15-.21.15s-.14.34,0,.45a5.44,5.44,0,0,0,.55.39c.2.13.22.49.72.29.23-.09.23-.35,0-.54A4,4,0,0,1,53.16,53.5Z" transform="translate(-7.13 -2.06)"/><path class="cls-6" d="M54,54.84s-.05-.07-.18,0,0,.23-.3.17-.24-.16-.41-.3a4.09,4.09,0,0,0-.57-.41l0,.14.47.38c.14.13.22.27.45.29A.45.45,0,0,0,53.9,55,.15.15,0,0,0,54,54.84Z" transform="translate(-7.13 -2.06)"/><path class="cls-8" d="M53.36,53.89l.06.1a1.74,1.74,0,0,0-.27.08c-.15,0-.26.15-.27.07S53,54,53.06,54A1.62,1.62,0,0,1,53.36,53.89Z" transform="translate(-7.13 -2.06)"/><path class="cls-8" d="M53.52,54.16l-.28.07c-.12,0-.18.12-.15.17s.11,0,.21-.08a1.32,1.32,0,0,1,.29-.06Z" transform="translate(-7.13 -2.06)"/><path class="cls-6" d="M53.35,54.85a3.7,3.7,0,0,0-.42-.49.83.83,0,0,0-.35-.15s.23.17.34.27A3.18,3.18,0,0,0,53.35,54.85Z" transform="translate(-7.13 -2.06)"/><path class="cls-4" d="M48.41,42.45a3.3,3.3,0,0,0-.75-.75A3.92,3.92,0,0,0,47,40.23c-.33-.37-.35-.5-.34-.59s.07-.15.13-.37a.51.51,0,0,0,0-.4c-.19-.39-.42-.45-.73-.16a1,1,0,0,0-.06.82c.09.22.54,1.41.66,1.72s1,1.93,1.17,2.2,1-.26,1-.26A3.66,3.66,0,0,0,48.41,42.45Z" transform="translate(-7.13 -2.06)"/><path class="cls-5" d="M51.91,45.11a3.55,3.55,0,0,1,.32-1.48,6,6,0,0,1-.94-1.1,6.23,6.23,0,0,1-.49.44,1.06,1.06,0,0,0-.42.14s-.06.2-.36.2a.4.4,0,0,1-.36-.2A4.17,4.17,0,0,0,49,43c-.26-.19-.27-.37-.38-.54a4.87,4.87,0,0,1-1,1.05,3.54,3.54,0,0,1,.52,1.8c0,.59-.13,2.1-.13,2.1a3.82,3.82,0,0,0,2,.66,4,4,0,0,0,1.86-.55S51.88,45.7,51.91,45.11Z" transform="translate(-7.13 -2.06)"/><path class="cls-3" d="M49.66,42.76s0,.38,0,.5A1.69,1.69,0,0,0,50,44c.2-.25.46-.44.48-.61a5.53,5.53,0,0,0-.11-.61Z" transform="translate(-7.13 -2.06)"/><path class="cls-4" d="M50.91,42c0-.12-.14-.09-.14-.09l0,.05c0-.46-.06-1-.67-1s-.65.48-.7.91a.12.12,0,0,0-.12.08.24.24,0,0,0,.14.31.75.75,0,0,0,.66.66.76.76,0,0,0,.67-.67A.25.25,0,0,0,50.91,42Z" transform="translate(-7.13 -2.06)"/><path class="cls-6" d="M50.72,41.16a.84.84,0,0,0-1.27,0,2,2,0,0,0-.1.76l.1.14a2.65,2.65,0,0,1,.09-.58c.11-.21.33-.14.54-.15s.45-.06.54.19a3.78,3.78,0,0,1,.07.54l.11-.14A2.67,2.67,0,0,0,50.72,41.16Z" transform="translate(-7.13 -2.06)"/><path class="cls-5" d="M46.71,39.83l-.47.18a1.43,1.43,0,0,0,.06.67,6.49,6.49,0,0,0,.42,1.21,7,7,0,0,0,.42.92c.21.31.88,1.14.88,1.14l.74-1.22a4.88,4.88,0,0,0-.5-.88c-.26-.32-.26-.57-.45-.8-.36-.41-.29-.51-.52-.81A1.07,1.07,0,0,0,46.71,39.83Z" transform="translate(-7.13 -2.06)"/><path class="cls-8" d="M46.72,39.94a1.55,1.55,0,0,1,.55.67c.17.43.29.42.49.91s.54.67.65.93a1.92,1.92,0,0,0,.58.79c.25.17.33.21,0-.08s-.4-.64-.75-1a2.46,2.46,0,0,1-.46-.74c-.2-.39-.31-.4-.37-.6a1.58,1.58,0,0,0-.48-.74l-.23-.2Z" transform="translate(-7.13 -2.06)"/><path class="cls-6" d="M46.17,39.83l.06.41a1.08,1.08,0,0,0,.35-.07.83.83,0,0,0,.36-.26l-.27-.27Z" transform="translate(-7.13 -2.06)"/><path class="cls-4" d="M53.79,38.71c-.31-.29-.54-.23-.73.16a.51.51,0,0,0,0,.4c.06.22.12.28.13.37s0,.22-.34.59a3.92,3.92,0,0,0-.65,1.47,3.3,3.3,0,0,0-.75.75l-.12.16a.08.08,0,0,1,0,0,5.6,5.6,0,0,1,.27.55,2.79,2.79,0,0,0,.28.32s0,0,.06-.07c.19-.27,1-1.86,1.17-2.2s.57-1.5.66-1.72A1,1,0,0,0,53.79,38.71Z" transform="translate(-7.13 -2.06)"/><path class="cls-5" d="M53.19,39.83l.47.18a1.43,1.43,0,0,1-.06.67,6.49,6.49,0,0,1-.42,1.21,7,7,0,0,1-.42.92c-.21.31-.63,1-.63,1l-1-1.09a4.88,4.88,0,0,1,.5-.88c.26-.32.26-.57.45-.8.36-.41.29-.51.52-.81A1.07,1.07,0,0,1,53.19,39.83Z" transform="translate(-7.13 -2.06)"/><path class="cls-8" d="M53.24,39.94a1.55,1.55,0,0,0-.55.67c-.17.43-.29.42-.48.91s-.55.67-.66.93a1.92,1.92,0,0,1-.58.79c-.25.17-.32.21,0-.08s.4-.64.75-1a2.46,2.46,0,0,0,.46-.74c.21-.39.31-.4.37-.6A1.58,1.58,0,0,1,53,40l.23-.2Z" transform="translate(-7.13 -2.06)"/><path class="cls-6" d="M53.73,39.83l-.06.41a1.08,1.08,0,0,1-.35-.07.83.83,0,0,1-.36-.26l.27-.27Z" transform="translate(-7.13 -2.06)"/><polygon class="cls-8" points="42.95 46 42.79 46 42.79 41.86 42.95 41.89 42.95 46"/><path class="cls-6" d="M49.66,42.76a.67.67,0,0,0-.42.18,1.53,1.53,0,0,1-.39.25,2.92,2.92,0,0,0,.58.53A5.83,5.83,0,0,0,50,44a1.39,1.39,0,0,1-.34-.84Z" transform="translate(-7.13 -2.06)"/><path class="cls-6" d="M50.39,42.83a.44.44,0,0,1,.41.11c.15.13.34.26.34.26a2.61,2.61,0,0,1-.57.62A1.78,1.78,0,0,1,50,44a1.67,1.67,0,0,0,.38-.84C50.39,42.94,50.39,42.83,50.39,42.83Z" transform="translate(-7.13 -2.06)"/><polygon class="cls-6" points="41.65 44.07 41.27 44.9 41.46 45.06 41.86 44.18 41.65 44.07"/><polygon class="cls-6" points="44.05 44.07 44.44 44.9 44.24 45.06 43.84 44.18 44.05 44.07"/><rect class="cls-8" x="43.35" y="42.13" width="0.98" height="0.19"/><path class="cls-6" d="M49.24,43.34A3.79,3.79,0,0,0,49.48,45a4.45,4.45,0,0,0,.5.81,3.69,3.69,0,0,0,.66-.83,6.32,6.32,0,0,0,.27-1.64H50.8a6.94,6.94,0,0,1-.28,1.59,2.71,2.71,0,0,1-.48.69,2.17,2.17,0,0,1-.5-.89,6.74,6.74,0,0,1-.19-1.35Z" transform="translate(-7.13 -2.06)"/><rect class="cls-8" x="42.49" y="43.44" width="0.76" height="1.22"/><rect class="cls-7" x="42.57" y="43.52" width="0.62" height="0.09"/><rect class="cls-7" x="42.55" y="44.48" width="0.62" height="0.09"/><rect class="cls-7" x="42.55" y="43.77" width="0.62" height="0.56"/><path class="cls-6" d="M48.05,47.39v.18a3.84,3.84,0,0,0,2,.62,5.61,5.61,0,0,0,1.91-.54V47.5A7.46,7.46,0,0,1,50,48,4.28,4.28,0,0,1,48.05,47.39Z" transform="translate(-7.13 -2.06)"/><path class="cls-8" d="M32.61,111.51a4.19,4.19,0,1,1-4.19-4.19A4.2,4.2,0,0,1,32.61,111.51Z" transform="translate(-7.13 -2.06)"/><circle class="cls-11" cx="43.95" cy="19.42" r="7.44" transform="translate(-7.99 34.71) rotate(-45)"/><path class="cls-11" d="M82.34,4.21a2.16,2.16,0,1,1-2.16-2.15A2.16,2.16,0,0,1,82.34,4.21Z" transform="translate(-7.13 -2.06)"/><path class="cls-11" d="M30.58,28.27a2.16,2.16,0,1,1-2.16-2.16A2.16,2.16,0,0,1,30.58,28.27Z" transform="translate(-7.13 -2.06)"/><circle class="cls-7" cx="75.09" cy="55.87" r="4.32"/><path class="cls-7" d="M28.94,130.39a4.19,4.19,0,1,1-4.19-4.18A4.19,4.19,0,0,1,28.94,130.39Z" transform="translate(-7.13 -2.06)"/><g class="cls-14"><path class="cls-15" d="M68.79,123.81a4,4,0,1,1-4-4A4,4,0,0,1,68.79,123.81Z" transform="translate(-7.13 -2.06)"/></g><path class="cls-16" d="M34.77,48.56a2.16,2.16,0,1,1-2.16-2.16A2.16,2.16,0,0,1,34.77,48.56Z" transform="translate(-7.13 -2.06)"/><path class="cls-11" d="M78.28,137.93a2.16,2.16,0,1,1-2.16-2.16A2.16,2.16,0,0,1,78.28,137.93Z" transform="translate(-7.13 -2.06)"/><path class="cls-11" d="M24.88,111.51a2.16,2.16,0,1,1-2.16-2.16A2.16,2.16,0,0,1,24.88,111.51Z" transform="translate(-7.13 -2.06)"/><g class="cls-14"><path class="cls-5" d="M87.2,94A2.16,2.16,0,1,1,85,91.79,2.16,2.16,0,0,1,87.2,94Z" transform="translate(-7.13 -2.06)"/></g><path class="cls-17" d="M11.45,71.67a2.16,2.16,0,1,1-2.16-2.16A2.16,2.16,0,0,1,11.45,71.67Z" transform="translate(-7.13 -2.06)"/></g></g></g></svg>