<svg xmlns="http://www.w3.org/2000/svg" viewBox="0 0 136.8 136.8"><defs><style>.cls-1{fill:#52cc40;}.cls-2{fill:#b4fcb4;}.cls-3{fill:#041606;}</style></defs><title>ball</title><g id="Layer_2" data-name="Layer 2"><g id="Layer_1-2" data-name="Layer 1"><path class="cls-1" d="M92.83,4.57A59.32,59.32,0,1,1,.47,60.66,68.39,68.39,0,1,0,92.83,4.57Z"/><path class="cls-2" d="M59.34,112.88A59.33,59.33,0,0,0,92.83,4.57,68.23,68.23,0,0,0,.47,60.66,59.31,59.31,0,0,0,59.34,112.88Z"/><path class="cls-3" d="M5.57,41.41a51,51,0,0,0-3.88,12.1l14.57-7.13L44.1,86.32,34,127.78l10.12,4.53L55.19,91.38l45.37-9.76,20.68,30.21a36.15,36.15,0,0,0,4.74-6.55C128.6,100.86,108.71,71,108.71,71V31.44l17.51.54-7.54-9.85H101.62L52.82,1.86,18.28,34.48A135.14,135.14,0,0,0,5.57,41.41Z"/><polygon class="cls-2" points="55.01 13.2 28.67 42.08 54.76 79.31 97.57 70.53 97.57 33.72 55.01 13.2"/></g></g></svg>