<svg xmlns="http://www.w3.org/2000/svg" xmlns:xlink="http://www.w3.org/1999/xlink" viewBox="0 0 130.12 140.91"><defs><style>.cls-1{fill:none;}.cls-2{clip-path:url(#clip-path);}.cls-3{fill:#f7a095;}.cls-4{fill:#e52d66;}.cls-5{fill:#fff;}.cls-6{fill:#452b6a;}.cls-7{fill:#f37a6f;}.cls-8{fill:#4e4185;}.cls-9{fill:#46a8df;}.cls-10{fill:#99ca4a;}.cls-11{opacity:0.5;}.cls-12{fill:#538441;}.cls-13{fill:#d6d6d6;}.cls-14{fill:#435385;}.cls-15{fill:#78c147;}</style><clipPath id="clip-path" transform="translate(-11.59 -5.99)"><rect class="cls-1" width="122.4" height="144.33"/></clipPath></defs><title>createdSVG</title><g id="Layer_2" data-name="Layer 2"><g id="Crop_Marks" data-name="Crop Marks"><g class="cls-2"><path class="cls-3" d="M50,103s3.49,6.42,4.18,7.35.39,2.22.68,7.28c3,3.81,6-.36,6-.36s.55-5.5.55-6.63-2-6.31-3.06-8.88S50,103,50,103Z" transform="translate(-11.59 -5.99)"/><path class="cls-4" d="M59.88,127.38c-.11,2.53.18,4.7-.05,4.77a18.93,18.93,0,0,1-3.79-.23S55.13,122.79,55,120c0-.63-.07-1.47-.1-2.39a14.29,14.29,0,0,0,6-.36C60.51,120.4,60,124.36,59.88,127.38Z" transform="translate(-11.59 -5.99)"/><path class="cls-3" d="M43.35,107.49s-3.62,4.22-6,6.79-3.73,3.56-5.75,2.56c-2.24-1.11-1.83-2.13-1.21-3.82a50,50,0,0,1,6.24-11.31Z" transform="translate(-11.59 -5.99)"/><path class="cls-3" d="M27.62,110a4.73,4.73,0,0,1,2.75-1.69,8.18,8.18,0,0,1,1.83,2.1l-.62,6.45s-.4-.36-5-3.82A5.77,5.77,0,0,1,27.62,110Z" transform="translate(-11.59 -5.99)"/><path class="cls-4" d="M20.87,108.09s-3.07-1.42-3.3-3,3.76-1.54,3.76-1.54,1.24,1.08,5.35,2.65a12.54,12.54,0,0,1,3.69,2.14A4.73,4.73,0,0,0,27.62,110a5.77,5.77,0,0,0-1,3l-1.48-1.12A46.83,46.83,0,0,1,20.87,108.09Z" transform="translate(-11.59 -5.99)"/><path class="cls-5" d="M12.35,110.09c-.65-.53.32-2.15,1.31-3s2.42-2.32,3.07-2.74a5.24,5.24,0,0,1,2.56-1.17,6.61,6.61,0,0,0,1.8-.21,6.93,6.93,0,0,1,1.52,1.37,3.24,3.24,0,0,0-1.83.77c-.93.86-1.47,2.44.09,3a23.62,23.62,0,0,0-4.15,1.6,18.28,18.28,0,0,1-3.55,1.47A2.64,2.64,0,0,0,12.35,110.09Z" transform="translate(-11.59 -5.99)"/><path class="cls-6" d="M12.18,111.08c-.47-.55-1.73-2.77,1.92-5.61s5.33-3.62,7-2.52a6.61,6.61,0,0,1-1.8.21,5.24,5.24,0,0,0-2.56,1.17c-.65.42-2.07,1.87-3.07,2.74s-2,2.49-1.31,3a2.64,2.64,0,0,1,.82,1.07C12.7,111.27,12.34,111.27,12.18,111.08Z" transform="translate(-11.59 -5.99)"/><path class="cls-6" d="M18.42,106.58l1.29-.14c1.63-.18,2,.92,1.65,2.14-.33,1-1.68,0-2-.28A4.67,4.67,0,0,0,18.42,106.58Z" transform="translate(-11.59 -5.99)"/><path class="cls-6" d="M18.57,108.87a4.6,4.6,0,0,0-1.32-2.05,2.76,2.76,0,0,0-.7.52l1.12,1.91Z" transform="translate(-11.59 -5.99)"/><path class="cls-6" d="M16.92,109.6A3.29,3.29,0,0,0,15.76,108a2.74,2.74,0,0,0-.71.51l.93,1.57Z" transform="translate(-11.59 -5.99)"/><path class="cls-7" d="M31.4,115.6s-.45-.95-.85-1.1a1.38,1.38,0,0,1-.52-.3,2.25,2.25,0,0,0,.29,1C30.57,115.52,31.4,115.6,31.4,115.6Z" transform="translate(-11.59 -5.99)"/><path class="cls-4" d="M38.69,94.46a54.52,54.52,0,0,1-3.1,5.84c-1.23,1.8-3.53,6.12-3.53,6.12s.48,1.29,3,2.83a14.42,14.42,0,0,0,5,1.91s4.43-4.34,7.59-8.21a27.51,27.51,0,0,1,4.12,9,19.91,19.91,0,0,1,4.34-2.72,22.49,22.49,0,0,1,5.19-.79S58.63,99.12,57,96.35c-1.26-2.09-3.36-4.19-8.47-4.83S38.69,94.46,38.69,94.46Z" transform="translate(-11.59 -5.99)"/><path class="cls-3" d="M43.24,72.8a43.57,43.57,0,0,0-4.62,3.08c-2.36,1.88-5.8,3.74-8.55,7.13-2.25,2.78-2.31,3.89-4.36,3.72s-3.64-.41-4.61,1.21-2.71,3.22-1.25,3.22c.9,0,1.74-1.93,2.71-1.93s3.77,1,4.92,0,2.29-1.86,4-3.23c2-1.59,7-4.61,10.24-7.48,1.18-1,3.39-3.08,3.39-3.08Z" transform="translate(-11.59 -5.99)"/><path class="cls-3" d="M81.5,67c-1.2.38-1.68,1.65-3.78,2.49-2.93,1.17-6.82,1.72-8.41,2.13-1,.26-5.92-1.12-5.92-1.12L62.09,74a19.08,19.08,0,0,0,5.53,1.43c3,.27,3.95-.44,7.15-1.79.94-.39,6.16-3.07,6.57-3.23a6.65,6.65,0,0,1,3-.44s.29-.81-2.09-1.06c.92-.91,2.27,0,3-.43C87.16,67.29,82.78,66.55,81.5,67Z" transform="translate(-11.59 -5.99)"/><path class="cls-5" d="M62.28,69.22a15.64,15.64,0,0,0-4.48-1.06c-1.28,0-4,.61-4.37.52-3.74-.91-6-.52-9.81,1.45-2.53,1.32-8.45,6.43-8.45,6.43s.66,4.09,4.33,4.58a21.32,21.32,0,0,0,4-2.73s-.57,3.24-1.18,5.23c-1.8,6-3.59,4.24-3.65,9.5a31,31,0,0,1,6,2.08,11.83,11.83,0,0,0,7.57.94c1.84-.47,4.54-1.38,4.54-1.38h0a35.61,35.61,0,0,1,.47-9.49c.81-3.18.64-7.28,2.32-8.66,1.12-.91,5.7-.87,5.7-.87l.84-5.63A33.41,33.41,0,0,1,62.28,69.22Z" transform="translate(-11.59 -5.99)"/><path class="cls-6" d="M52.28,96.16a11.83,11.83,0,0,1-7.57-.94,31,31,0,0,0-6-2.08c0,.4,0,.84,0,1.32,2.28.13,2.94,1,5.89,2,6.08,2,8.55,1.38,12.38-.06,0-.26-.09-.82-.14-1.57h0S54.12,95.69,52.28,96.16Z" transform="translate(-11.59 -5.99)"/><path class="cls-4" d="M65.93,71.59c-.14,0-2.61-.52-5.15-1s-4.58-.76-4.58-.76l.15-1a10.17,10.17,0,0,1,3.58.42,47.54,47.54,0,0,0,6.14,1.41Z" transform="translate(-11.59 -5.99)"/><path class="cls-4" d="M56.43,69.8a16.43,16.43,0,0,1-.91,3.36c-.67,1.68-1.24,3.66-1.24,3.66s-4-1.93-5.11-4.56,0-4,0-4l5-.56Z" transform="translate(-11.59 -5.99)"/><path class="cls-7" d="M55.93,67a3.62,3.62,0,0,1-.35,4.18A10.64,10.64,0,0,0,53.69,75S48.92,72.88,50,69.1c1.87-1.41,2.16-4.51,2.16-4.51Z" transform="translate(-11.59 -5.99)"/><path class="cls-3" d="M57.88,60.18c1.19.57,2.25,2.27,1.46,5.06s-2,5.45-3.76,5.9S51.18,69.3,51,66.23,52.94,57.79,57.88,60.18Z" transform="translate(-11.59 -5.99)"/><path class="cls-5" d="M66.5,133.05c-.8.88-1,2.1-1.8,2.72s-2.58,0-4.12-.31-3.06-.5-3.67-1a5.08,5.08,0,0,0-1.35-.64,3.62,3.62,0,0,1,.42-2.54,4.52,4.52,0,0,0,3,.31,2.39,2.39,0,0,1,2.4.21c1.38.67,3,.35,4.17.57a4,4,0,0,1,1.35.29A2.3,2.3,0,0,0,66.5,133.05Z" transform="translate(-11.59 -5.99)"/><path class="cls-6" d="M65.47,136.27c-1.24.93-2.42.31-5.24-.09-2.14-.29-4.54-.46-4.64-2.07l0-.25a5.08,5.08,0,0,1,1.35.64c.61.46,2.14.63,3.67,1s3.29.92,4.12.31,1-1.84,1.8-2.72a2.3,2.3,0,0,1,.42-.35,1.31,1.31,0,0,1,.41.34C68.21,134.13,66.23,135.7,65.47,136.27Z" transform="translate(-11.59 -5.99)"/><path class="cls-6" d="M61.4,131.84l-1.07.86a3.71,3.71,0,0,1-2-2.42c-.28-1.64,1.48-1.6,1.84-.57A9.44,9.44,0,0,0,61.4,131.84Z" transform="translate(-11.59 -5.99)"/><polygon class="cls-6" points="50.52 126.11 51.48 126.27 50.74 128.06 49.66 127.86 50.52 126.11"/><polygon class="cls-6" points="52.28 126.38 53.33 126.35 52.51 128.33 51.43 128.13 52.28 126.38"/><path class="cls-4" d="M49.17,69.33v.86a7.43,7.43,0,0,0-3.46,1c-2,1.06-9.72,7.53-9.72,7.53l-.4-.8A80.68,80.68,0,0,1,44,71.19C47.46,69.05,49.17,69.33,49.17,69.33Z" transform="translate(-11.59 -5.99)"/><path class="cls-7" d="M52.16,129.6a4.92,4.92,0,1,0,7.67,4.65c0,.22,0,.43,0,.65a5.68,5.68,0,1,1-7.71-5.3Z" transform="translate(-11.59 -5.99)"/><path class="cls-3" d="M54.94,138.59a4.92,4.92,0,0,1-2.78-9,5.67,5.67,0,0,1,7.67,4.65A4.92,4.92,0,0,1,54.94,138.59Z" transform="translate(-11.59 -5.99)"/><path class="cls-8" d="M59.4,132.66a4.48,4.48,0,0,1,.33,1l-1.21-.59-2.31,3.31.84,3.45-.84.37-.93-3.4L51.52,136,49.8,138.5a2.86,2.86,0,0,1-.39-.54c-.22-.37,1.43-2.85,1.43-2.85v-3.28l-1.45,0,.62-.81h1.42l4-1.69,2.87,2.71A10,10,0,0,1,59.4,132.66Z" transform="translate(-11.59 -5.99)"/><polygon class="cls-3" points="43.71 124.33 45.9 126.72 43.73 129.81 40.18 129.09 40.18 126.03 43.71 124.33"/><path class="cls-4" d="M46.72,79.47l-.27,3.45a53.37,53.37,0,0,0,6.1,1,36.64,36.64,0,0,0,4.94,0l.62-3.52S51,80.17,46.72,79.47Z" transform="translate(-11.59 -5.99)"/><path class="cls-6" d="M38.79,91.16s3.5,1.2,7.05,2.71,10.92-.36,10.92-.36V92.3s-6.87,1.4-10.31.19-7.23-2.78-7.23-2.78Z" transform="translate(-11.59 -5.99)"/><path class="cls-6" d="M54.59,62.36a11.18,11.18,0,0,0,2.9,2.14c2.7.89,4.07,0,4.07,0a5.73,5.73,0,0,1-1.69-.8,4.58,4.58,0,0,0,2.22-.5,3.51,3.51,0,0,1-2.48-1.93c-.52-1.22-3.18-3.29-5.63-2.4-2.19.8-2.21,3.57-2.21,3.57S53.63,61.2,54.59,62.36Z" transform="translate(-11.59 -5.99)"/><path class="cls-6" d="M34,108.48s3.25-4.7,4.83-7.66,2.67-5.67,2.67-5.67L40,94.45s-1.55,3.12-2.47,5.38a69.15,69.15,0,0,1-4.64,7.72Z" transform="translate(-11.59 -5.99)"/><path class="cls-3" d="M52.28,63s-1.21-1.44-1.62,0,1.11,2.64,1.11,2.64Z" transform="translate(-11.59 -5.99)"/><path class="cls-7" d="M124.71,113.84c-1.92-1.37-2.79-1.57-3.26-2.24-.69-1-3.52-5.59-3.52-5.59l-7,3.8a100.39,100.39,0,0,0,8.4,7.72c.64.46,1.23.87,1.82,1.25.41-.42.91-1,1.5-1.63A13.27,13.27,0,0,0,124.71,113.84Z" transform="translate(-11.59 -5.99)"/><path class="cls-5" d="M136.77,129.05l1.83-3.66s-6.15-4.75-10.54-8.79a35,35,0,0,0-3.35-2.76,13.27,13.27,0,0,1-2,3.31c-.59.66-1.09,1.21-1.5,1.63,2.06,1.34,4,2.36,7.63,4.45A46.25,46.25,0,0,1,136.77,129.05Z" transform="translate(-11.59 -5.99)"/><path class="cls-6" d="M103.64,101.74s5,5.58,7.32,8.07l2.32,2.49a13,13,0,0,0,4.82-2.6,6.84,6.84,0,0,0,2-2.56L115.89,99Z" transform="translate(-11.59 -5.99)"/><path class="cls-3" d="M92.74,81a24.24,24.24,0,0,1-5,0,38.57,38.57,0,0,0-8,0,22.91,22.91,0,0,1-7.78-.88c-1.27-.34-3.07,0-3,1.23s.67,1.12,2.84,1.81a7.49,7.49,0,0,0,3.63.31c3-.31,8.15,1.69,11.54,1.45a14.7,14.7,0,0,1,5.79.68Z" transform="translate(-11.59 -5.99)"/><path class="cls-3" d="M111.88,80.28s4.92-.47,7.75.64.48,3.62-1.17,4.35c-1.41.62-6.16-.73-6.16-.73Z" transform="translate(-11.59 -5.99)"/><path class="cls-9" d="M110,86.39a15.39,15.39,0,0,1,5.1-.15c-1.09-2.16-1.82-4.08-1.33-6.47-1.48-.34-3-.43-4.75-.78a8.63,8.63,0,0,0-6,.44c-.47.18-7.19,0-8.62.25-1.1.19-3.43,0-4.68.09A7.26,7.26,0,0,0,89,83.14a11.67,11.67,0,0,0,1,3.62,27.07,27.07,0,0,1,5.37.11c.44,2.21,1.76,6.83,3.09,8.82,1.92,2.89,5.86,7.46,5.86,7.46s7.33-2.23,8.91-3.18A24.83,24.83,0,0,0,116.05,98s-4.15-6.37-5.09-8.45A17.81,17.81,0,0,1,110,86.39Z" transform="translate(-11.59 -5.99)"/><path class="cls-6" d="M98.64,80.18s-1.49,2.61-.78,3.62a3.29,3.29,0,0,0,5.43,0c2.18-2.68,1.44-4.81,1.44-4.81S99.13,79.16,98.64,80.18Z" transform="translate(-11.59 -5.99)"/><path class="cls-7" d="M98.64,75.45s-1.41,1.06-.43,3.61.94,2.43.54,3.45c-.3.76,1.3,2,2.91.79a5.89,5.89,0,0,0,2-4.09c-1.39-1.77-.88-5-.88-5Z" transform="translate(-11.59 -5.99)"/><path class="cls-3" d="M100.15,69.09a4.11,4.11,0,0,0-4.45,3c-.9,2.64-.84,5.69.27,7s4.5,1,6.31-1.38S105.37,69.9,100.15,69.09Z" transform="translate(-11.59 -5.99)"/><path class="cls-3" d="M105.33,99.25s-9.37.18-12,.82-.32,6,.12,6.72c.26.41,7.88.77,12.64.37,3.21-.27,5.32-1,6.77-2.75C115.91,100.85,105.33,99.25,105.33,99.25Z" transform="translate(-11.59 -5.99)"/><path class="cls-3" d="M92.27,101.16l-3.53,9.32,6.64,1.12a21.62,21.62,0,0,0,3.74-6.78C98.57,103,92.27,101.16,92.27,101.16Z" transform="translate(-11.59 -5.99)"/><path class="cls-8" d="M102.38,99.25a19.82,19.82,0,0,0,5.08,5.62,15.63,15.63,0,0,0,5.81,2.29s5.5-6.66,3.71-8.61-3-3.63-3-3.63S107.48,99.05,102.38,99.25Z" transform="translate(-11.59 -5.99)"/><path class="cls-5" d="M90,107.16s2.84.88,3.67,1.23a7.52,7.52,0,0,1,2.73,1.91A51,51,0,0,1,91.52,118c-2.68,3.5-5.88,7-5.88,7l-3.2-1.82Z" transform="translate(-11.59 -5.99)"/><path class="cls-8" d="M83.49,120.8a15.55,15.55,0,0,1-3.95.78,12.23,12.23,0,0,1-3.84-.31,1.24,1.24,0,0,0-1.49.6c-.26.37.16.65,1,1.26,1.37,1,2,2.05,3.86,2.37,1.27.22,2.82.16,3.86.8a3.58,3.58,0,0,0,2.24.63,7.33,7.33,0,0,0,1.9-3.23c.17-1.2-.54-.47-1.15-.29s-1.53,0-1.64-.65A4.42,4.42,0,0,0,83.49,120.8Z" transform="translate(-11.59 -5.99)"/><path class="cls-6" d="M74.21,121.87l-.6.79a6.73,6.73,0,0,0,3.54,2.78c2.4.78,3.53.82,4.43,1.45a7.73,7.73,0,0,0,3,1.18l.61-1.14a15.91,15.91,0,0,0-4.67-1.79,9.62,9.62,0,0,1-3.94-1.25A9.34,9.34,0,0,1,74.21,121.87Z" transform="translate(-11.59 -5.99)"/><path class="cls-6" d="M78.71,124.26c1.48.49,2.82.4,3.9.72a7,7,0,0,1,2.09,1.12,3.59,3.59,0,0,0-1.82-1.63C81.58,123.93,79.82,124.31,78.71,124.26Z" transform="translate(-11.59 -5.99)"/><polygon class="cls-5" points="67.95 115.59 68.44 116.81 69.37 116.75 68.94 115.51 67.95 115.59"/><polygon class="cls-5" points="69.48 115.42 69.96 116.64 70.85 116.44 70.43 115.23 69.48 115.42"/><path class="cls-8" d="M134.36,127.5a15.43,15.43,0,0,1,.4,4,12.42,12.42,0,0,1-.67,3.79,1.25,1.25,0,0,0,.45,1.55c.34.29.66-.1,1.35-.9,1.11-1.26,2.24-1.82,2.73-3.6.34-1.25.42-2.79,1.17-3.77a3.55,3.55,0,0,0,.84-2.17,7.47,7.47,0,0,0-3-2.21c-1.18-.27-.53.5-.4,1.12s-.18,1.53-.81,1.57A4.55,4.55,0,0,0,134.36,127.5Z" transform="translate(-11.59 -5.99)"/><path class="cls-6" d="M134.54,136.85l.73.66a6.67,6.67,0,0,0,3.11-3.25c1-2.32,1.15-3.43,1.87-4.27a7.75,7.75,0,0,0,1.45-2.87l-1.07-.71a16.09,16.09,0,0,0-2.23,4.48,9.1,9.1,0,0,1-3.86,6Z" transform="translate(-11.59 -5.99)"/><path class="cls-6" d="M137.35,132.59c.63-1.43.67-2.76,1.09-3.81a7,7,0,0,1,1.32-2,3.57,3.57,0,0,0-1.8,1.65C137.3,129.71,137.51,131.49,137.35,132.59Z" transform="translate(-11.59 -5.99)"/><polygon class="cls-5" points="123.17 125.52 124.44 125.16 124.46 124.22 123.19 124.53 123.17 125.52"/><polygon class="cls-5" points="123.16 123.98 124.42 123.62 124.3 122.72 123.05 123.02 123.16 123.98"/><path class="cls-6" d="M96.1,71.15s4.32.57,5,1.93.77,3.57,1,4.06a3,3,0,0,0,1.13,1s.5-1.55,1.14-3.69.52-2.91-.18-3.59c-.14-2.13-2.9-2.68-4.32-3.23A6.66,6.66,0,0,1,98,66.37a2,2,0,0,0,.46,2c-.61.19-2.23-1.2-2.23-1.2A3.24,3.24,0,0,0,97,69.32c-.72.36-2.44-.27-2.44-.27A6.57,6.57,0,0,0,96.1,71.15Z" transform="translate(-11.59 -5.99)"/><path class="cls-3" d="M101.15,74.85s1.25-1.13,1.53.23-1.22,1.9-1.22,1.9Z" transform="translate(-11.59 -5.99)"/><path class="cls-6" d="M97.65,87.56,97.87,89a44.61,44.61,0,0,0,4.82.17,22.4,22.4,0,0,0,4.43-.53l-.36-1.4s-4.47.34-6.22.34Z" transform="translate(-11.59 -5.99)"/><path class="cls-3" d="M115.38,82.49s-2.9,2.34-5.08,4.5-2.23,3.27-1.49,5.36c.5,1.41,2,1.33,2.67,1.32s1.27-.53.82-.89a2.42,2.42,0,0,0-1.34-.32,6.41,6.41,0,0,0,1.2-1.83c.32-.85.12-1.74.64-2.18.29-.24,5.66-1.1,7.72-4.88C121.55,81.69,115.38,82.49,115.38,82.49Z" transform="translate(-11.59 -5.99)"/><path class="cls-6" d="M103.86,80.58a31.86,31.86,0,0,1,4.27.2,43,43,0,0,1,5.5.76v-.9a55.31,55.31,0,0,0-6-1.15,27,27,0,0,0-3.38,0Z" transform="translate(-11.59 -5.99)"/><path class="cls-6" d="M89.25,81.12s2.4.18,4.69.25a44.82,44.82,0,0,0,4.65-.16l0-1s-2.55.19-3.93.13c-1.15,0-5.15-.13-5.15-.13Z" transform="translate(-11.59 -5.99)"/><path class="cls-5" d="M106.23,85.46l-2.37.15v.89l2.55-.19A4.94,4.94,0,0,1,106.23,85.46Z" transform="translate(-11.59 -5.99)"/><path class="cls-9" d="M127.61,141a5.86,5.86,0,1,1-5.86-5.85A5.87,5.87,0,0,1,127.61,141Z" transform="translate(-11.59 -5.99)"/><path class="cls-10" d="M105.89,46.83A5.86,5.86,0,1,1,100,41,5.85,5.85,0,0,1,105.89,46.83Z" transform="translate(-11.59 -5.99)"/><g class="cls-11"><path class="cls-12" d="M78.84,44.72a4.95,4.95,0,1,1-4.94-4.94A4.94,4.94,0,0,1,78.84,44.72Z" transform="translate(-11.59 -5.99)"/></g><g class="cls-11"><circle class="cls-8" cx="106.32" cy="11.77" r="7.44"/></g><path class="cls-13" d="M57.45,8.15A2.16,2.16,0,1,1,55.29,6,2.16,2.16,0,0,1,57.45,8.15Z" transform="translate(-11.59 -5.99)"/><circle class="cls-4" cx="68.13" cy="96.16" r="4.32"/><g class="cls-11"><circle class="cls-14" cx="82.6" cy="22.28" r="3.97"/></g><path class="cls-4" d="M76.05,133.9a2.16,2.16,0,1,1-2.15-2.16A2.15,2.15,0,0,1,76.05,133.9Z" transform="translate(-11.59 -5.99)"/><path class="cls-15" d="M71.11,86.86A2.16,2.16,0,1,1,69,84.7,2.16,2.16,0,0,1,71.11,86.86Z" transform="translate(-11.59 -5.99)"/></g></g></g></svg>