<svg xmlns="http://www.w3.org/2000/svg" viewBox="0 0 173.51 103.84"><defs><style>.cls-1{fill:#94c628;}.cls-2{fill:#65871b;}.cls-3{fill:#77a01f;}.cls-4{fill:#fff;}.cls-5{fill:#e2e2e2;}</style></defs><title>footallField</title><g id="Layer_2" data-name="Layer 2"><g id="Layer_1-2" data-name="Layer 1"><polygon class="cls-1" points="0 66.46 58.6 100.33 173.5 34.04 114.67 0 0 66.46"/><polygon class="cls-2" points="58.6 100.33 58.6 103.83 173.5 37.54 173.5 34.04 58.6 100.33"/><polygon class="cls-3" points="0 66.46 0 69.97 58.6 103.83 58.6 100.33 0 66.46"/><path class="cls-4" d="M65,94.46l-.16-.09L10,62.66l98.14-57,.16.09,55.14,31.87ZM11.23,62.66,65,93.73l97.1-56.07-54-31.23Z"/><path class="cls-4" d="M84.31,56.9c-6.83,0-12.39-3.39-12.39-7.56s5.56-7.56,12.39-7.56,12.4,3.39,12.4,7.56S91.15,56.9,84.31,56.9Zm0-14.49c-6.48,0-11.76,3.11-11.76,6.93s5.28,6.93,11.76,6.93,11.77-3.11,11.77-6.93S90.8,42.41,84.31,42.41Z"/><path class="cls-4" d="M47.07,61.54A19,19,0,0,1,51.84,61c6.48,0,11.75,3.1,11.75,6.91a4.6,4.6,0,0,1-1,2.76l.49.4a5.19,5.19,0,0,0,1.14-3.16c0-4.17-5.56-7.57-12.4-7.57a18.9,18.9,0,0,0-5.46.79h0A3,3,0,0,1,47.07,61.54Z"/><path class="cls-4" d="M123.62,36.36l-.51-.32a18.69,18.69,0,0,1-5.15.71c-6.49,0-11.76-3.11-11.76-6.92a4.64,4.64,0,0,1,1-2.85,3.17,3.17,0,0,0-.51-.37,5.21,5.21,0,0,0-1.19,3.22c0,4.17,5.56,7.57,12.41,7.57a18.67,18.67,0,0,0,5.8-.89Z"/><rect class="cls-4" x="85.84" y="18.94" width="0.63" height="63" transform="translate(-0.63 99.79) rotate(-59.97)"/><polygon class="cls-4" points="53.72 87.51 53.4 86.96 72.05 76.18 38.84 56.95 19.82 67.94 19.51 67.39 38.84 56.22 73.31 76.19 53.72 87.51"/><polygon class="cls-4" points="132.61 42.13 97.86 22 117 10.95 117.31 11.5 99.12 22 132.61 41.4 150.87 30.6 151.19 31.14 132.61 42.13"/><polygon class="cls-4" points="44.56 82.45 44.24 81.9 53.93 76.07 37.74 66.71 27.5 72.6 27.18 72.05 37.74 65.98 55.18 76.06 44.56 82.45"/><polygon class="cls-4" points="133.57 30.99 115.86 20.81 124.9 15.58 125.21 16.13 117.13 20.81 133.57 30.26 141.95 25.44 142.26 25.99 133.57 30.99"/><path class="cls-4" d="M63.15,92.94A4.22,4.22,0,0,1,65,92.52a4.26,4.26,0,0,1,1.9.43l.63-.36a5,5,0,0,0-5,0A6.25,6.25,0,0,1,63.15,92.94Z"/><path class="cls-4" d="M13.08,61.12a3.55,3.55,0,0,1-.62.38c.59.29,1,.7,1,1.16a1.36,1.36,0,0,1-.82,1.09l.44.35.08.07a1.86,1.86,0,0,0,.93-1.51A1.89,1.89,0,0,0,13.08,61.12Z"/><path class="cls-4" d="M160,39.18c.23-.13.47-.25.71-.36-.67-.29-1.12-.73-1.12-1.23a1.37,1.37,0,0,1,.8-1.08l-.46-.46a1.88,1.88,0,0,0-1,1.54A1.94,1.94,0,0,0,160,39.18Z"/><path class="cls-4" d="M110.28,7.08a3.89,3.89,0,0,1-2.27.65,4.22,4.22,0,0,1-1.86-.41l-.63.38a4.6,4.6,0,0,0,2.49.66,4.26,4.26,0,0,0,2.83-.92Z"/><polygon class="cls-5" points="41.94 82.13 41.94 71.44 27.77 63.26 27.77 73.95 27.37 73.72 27.37 62.48 42.35 71.13 42.35 82.31 41.94 82.13"/><polygon class="cls-5" points="41.94 82.03 36.32 85.26 22.25 77.14 27.77 73.95 27.37 73.72 21.31 77.18 36.25 85.81 42.35 82.31 41.94 82.03"/><path class="cls-5" d="M36.54,85.53,36,85.46c0-.07.9-6.33,1.16-8.55s.69-3.27,1.45-3.74c.31-.18,3.15-2,3.21-2l.4.31-3.34,2.18c-.4.24-.9.84-1.2,3.34C37.43,79.19,36.54,85.46,36.54,85.53Z"/><path class="cls-5" d="M21.83,77.28l-.52-.07c0-.07.89-6.33,1.16-8.55s.61-3.36,1.37-3.82c.31-.19,3.46-2.32,3.53-2.36l.48.32c-.07,0-3.42,2.3-3.74,2.49s-.82.93-1.12,3.43C22.73,70.94,21.84,77.21,21.83,77.28Z"/><polygon class="cls-5" points="36.43 84.35 21.61 75.79 21.69 75.65 36.51 84.22 36.43 84.35"/><polygon class="cls-5" points="36.72 83.21 21.91 74.64 21.98 74.51 36.8 83.07 36.72 83.21"/><rect class="cls-5" x="29.47" y="69.1" width="0.16" height="17.12" transform="translate(-52.47 64.37) rotate(-59.97)"/><rect class="cls-5" x="29.61" y="68.04" width="0.16" height="16.78" transform="translate(-51.33 63.88) rotate(-59.97)"/><rect class="cls-5" x="29.61" y="66.81" width="0.16" height="16.78" transform="translate(-50.27 63.27) rotate(-59.97)"/><polygon class="cls-5" points="37.21 78.33 22.58 69.87 22.66 69.73 37.29 78.19 37.21 78.33"/><rect class="cls-5" x="29.95" y="64.21" width="0.16" height="17.12" transform="translate(-48 62.35) rotate(-59.97)"/><rect class="cls-5" x="30.24" y="63.07" width="0.16" height="17.12" transform="translate(-46.86 62.03) rotate(-59.97)"/><polygon class="cls-5" points="38.06 74.81 23.24 66.25 23.32 66.11 38.14 74.68 38.06 74.81"/><polygon class="cls-5" points="38.62 73.79 23.8 65.22 23.88 65.09 38.7 73.65 38.62 73.79"/><rect class="cls-5" x="32.13" y="60.2" width="0.16" height="17.12" transform="translate(-43.44 62.24) rotate(-59.97)"/><polygon class="cls-5" points="40.49 72.46 25.68 63.9 25.75 63.76 40.57 72.33 40.49 72.46"/><polygon class="cls-5" points="41.42 71.85 26.6 63.28 26.68 63.15 41.5 71.71 41.42 71.85"/><path class="cls-5" d="M22.76,77.84l-.15,0c0-.07,1-7.15,1.25-9.27s.76-2.45,1.16-2.8l.09-.09c.41-.38,3.34-2.23,3.47-2.31l.08.13s-3,1.93-3.44,2.3l-.1.08c-.39.36-.84.75-1.1,2.71C23.75,70.68,22.77,77.76,22.76,77.84Z"/><path class="cls-5" d="M23.75,78.36l-.15,0c0-.08,1-7.16,1.25-9.28s.76-2.45,1.16-2.8l.09-.09c.41-.37,3.34-2.23,3.47-2.31l.08.13s-3,1.93-3.44,2.3l-.1.09c-.39.35-.84.75-1.1,2.7C24.74,71.2,23.76,78.29,23.75,78.36Z"/><path class="cls-5" d="M24.76,78.91l-.16,0c0-.08,1-7.16,1.26-9.28s.76-2.45,1.15-2.8l.09-.08c.42-.38,3.35-2.24,3.47-2.32l.09.13s-3,1.93-3.45,2.3l-.09.09c-.4.35-.85.75-1.1,2.7C25.74,71.75,24.77,78.84,24.76,78.91Z"/><path class="cls-5" d="M25.75,79.43l-.16,0c0-.07,1-7.16,1.26-9.28s.76-2.45,1.15-2.8l.09-.08c.42-.38,3.35-2.24,3.47-2.32l.09.14s-3,1.92-3.45,2.29l-.09.09c-.4.35-.85.75-1.1,2.7C26.73,72.27,25.76,79.36,25.75,79.43Z"/><path class="cls-5" d="M26.72,80.14l-.16,0c0-.07,1-7.15,1.26-9.27S28.58,68.4,29,68a.39.39,0,0,0,.1-.08c.41-.38,3.34-2.23,3.46-2.31l.09.13s-3,1.93-3.45,2.3l-.09.08c-.4.35-.85.75-1.1,2.71C27.7,73,26.73,80.07,26.72,80.14Z"/><path class="cls-5" d="M27.71,80.67l-.16,0c0-.07,1-7.15,1.26-9.27s.76-2.45,1.15-2.8l.1-.09c.41-.38,3.34-2.23,3.46-2.31l.09.13s-3,1.93-3.45,2.3l-.09.08c-.4.36-.85.75-1.1,2.71C28.69,73.51,27.72,80.59,27.71,80.67Z"/><path class="cls-5" d="M28.72,81.22l-.16,0c0-.07,1-7.15,1.26-9.27s.75-2.45,1.15-2.8l.09-.09c.42-.38,3.34-2.23,3.47-2.31l.08.13s-3,1.93-3.44,2.3a.39.39,0,0,1-.1.08c-.39.36-.84.75-1.1,2.71C29.7,74.06,28.72,81.14,28.72,81.22Z"/><path class="cls-5" d="M29.7,81.74l-.15,0c0-.08,1-7.16,1.26-9.28S31.56,70,32,69.64l.09-.08c.42-.38,3.34-2.24,3.47-2.32l.08.13s-3,1.93-3.44,2.3l-.1.09c-.39.35-.84.75-1.1,2.7C30.69,74.58,29.71,81.67,29.7,81.74Z"/><path class="cls-5" d="M30.68,82.33l-.16,0c0-.07,1-7.16,1.26-9.28s.75-2.45,1.15-2.8l.09-.08c.42-.38,3.34-2.24,3.47-2.32l.08.14s-3,1.93-3.44,2.29l-.1.09c-.39.35-.84.75-1.1,2.7C31.66,75.18,30.69,82.26,30.68,82.33Z"/><path class="cls-5" d="M31.67,82.85l-.16,0c0-.07,1-7.15,1.26-9.27s.75-2.46,1.15-2.81l.09-.08c.42-.38,3.34-2.24,3.47-2.31l.08.13s-3,1.93-3.44,2.3l-.09.08c-.4.35-.85.75-1.11,2.71C32.65,75.7,31.68,82.78,31.67,82.85Z"/><path class="cls-5" d="M32.67,83.4l-.16,0c0-.07,1-7.15,1.26-9.27s.76-2.46,1.15-2.81l.1-.08c.41-.38,3.13-2.1,3.25-2.18l.08.14S35.53,71,35.12,71.34l-.09.08c-.4.35-.85.75-1.1,2.71C33.65,76.25,32.68,83.33,32.67,83.4Z"/><path class="cls-5" d="M33.66,83.92l-.16,0c0-.07,1-7.15,1.26-9.27s.76-2.45,1.15-2.81a.39.39,0,0,0,.1-.08c.41-.38,3.12-2.1,3.24-2.17l.08.13s-2.81,1.79-3.22,2.16l-.09.08c-.4.35-.85.75-1.1,2.71C34.64,76.77,33.67,83.85,33.66,83.92Z"/><path class="cls-5" d="M34.63,84.5l-.15,0c0-.07,1-7.15,1.25-9.27s.76-2.45,1.16-2.8l.09-.09c.41-.38,3.09-2.07,3.21-2.15l.08.14s-2.78,1.76-3.18,2.13l-.1.08c-.4.36-.84.75-1.1,2.71C35.61,77.34,34.64,84.42,34.63,84.5Z"/><path class="cls-5" d="M35.64,85l-.16,0c0-.07,1-7.15,1.26-9.27s.75-2.45,1.15-2.8l.09-.09c.42-.38,3.15-2.11,3.26-2.18l.09.13s-2.84,1.8-3.24,2.17l-.09.08c-.4.35-.85.75-1.11,2.71C36.62,77.89,35.65,85,35.64,85Z"/><rect class="cls-5" x="41.38" y="71.69" width="0.16" height="10.9"/><rect class="cls-5" x="40.46" y="72.29" width="0.16" height="10.9"/><rect class="cls-5" x="39.54" y="72.8" width="0.16" height="10.9"/><rect class="cls-5" x="38.58" y="73.61" width="0.16" height="10.57"/><rect class="cls-5" x="37.65" y="75.2" width="0.16" height="9.59"/><polygon class="cls-5" points="36.61 84.29 36.53 84.15 42.1 80.95 42.18 81.09 36.61 84.29"/><rect class="cls-5" x="36.14" y="81.51" width="6.42" height="0.16" transform="translate(-35.32 30.32) rotate(-29.78)"/><rect class="cls-5" x="36.14" y="80.57" width="6.42" height="0.16" transform="translate(-34.85 30.19) rotate(-29.78)"/><polygon class="cls-5" points="36.99 81.07 36.91 80.93 42.1 77.95 42.18 78.09 36.99 81.07"/><polygon class="cls-5" points="37.12 80.06 37.04 79.93 42.1 77.02 42.18 77.16 37.12 80.06"/><polygon class="cls-5" points="37.31 78.93 37.23 78.79 42.1 75.99 42.18 76.13 37.31 78.93"/><rect class="cls-5" x="37.08" y="76.44" width="5.42" height="0.16" transform="translate(-32.73 29.84) rotate(-29.76)"/><rect class="cls-5" x="37.19" y="75.38" width="5.31" height="0.16" transform="translate(-32.21 29.75) rotate(-29.78)"/><rect class="cls-5" x="37.19" y="74.4" width="5.31" height="0.16" transform="translate(-31.71 29.6) rotate(-29.76)"/><polygon class="cls-5" points="38.14 74.52 38.06 74.38 42.1 72.06 42.18 72.2 38.14 74.52"/><polygon class="cls-5" points="140.98 24.1 140.98 13.4 126.81 5.22 126.81 15.84 126.41 15.68 126.41 4.45 141.38 13.09 141.38 24.27 140.98 24.1"/><path class="cls-5" d="M132.32,12.72l-.4-.23-5.52,3.18.44.26C127,15.85,132.32,12.72,132.32,12.72Z"/><path class="cls-5" d="M146.69,20.77S141.16,24,141,24.1l.36.2L147,21.13Z"/><path class="cls-5" d="M146.5,21.29c0-.08-1.31-7.35-1.45-8.33s-.42-1-.69-.85l-3.27,1.66v-.53l3.29-1.67c.74-.38,1,.43,1.05,1.07.15,1,1.49,8.19,1.52,8.49Z"/><path class="cls-5" d="M131.88,12.88c0-.07-1.55-7.59-1.7-8.57s-.41-1-.68-.85L126.4,5V4.49c.07,0,2.5-1.26,3.11-1.57s1,.43,1,1.07c.15,1,1.72,8.43,1.75,8.73Z"/><rect class="cls-5" x="139.05" y="8.19" width="0.47" height="16.86" transform="translate(55.47 129.1) rotate(-60.11)"/><rect class="cls-5" x="136.38" y="8.36" width="0.16" height="10.7" transform="translate(56.3 125) rotate(-59.97)"/><polygon class="cls-5" points="141.24 15.46 131.61 9.99 131.69 9.86 141.32 15.33 141.24 15.46"/><rect class="cls-5" x="136.13" y="5.94" width="0.16" height="11.27" transform="translate(58.02 123.71) rotate(-59.97)"/><polygon class="cls-5" points="142.22 12.95 127.4 4.38 127.47 4.24 142.29 12.81 142.22 12.95"/><rect class="cls-5" x="135.74" y="-0.42" width="0.16" height="17.12" transform="translate(60.8 121.65) rotate(-59.97)"/><rect class="cls-5" x="136.6" y="-0.87" width="0.16" height="17.12" transform="translate(61.62 122.17) rotate(-59.97)"/><polygon class="cls-5" points="144.92 11.68 129.9 2.99 129.98 2.86 145 11.54 144.92 11.68"/><rect class="cls-5" x="142.18" y="13.06" width="0.16" height="10.5"/><rect class="cls-5" x="143.02" y="12.64" width="0.16" height="10.5"/><rect class="cls-5" x="143.89" y="12.03" width="0.16" height="10.5"/><rect class="cls-5" x="144.73" y="11.81" width="0.16" height="10.29"/><rect class="cls-5" x="127.35" y="5.28" width="0.16" height="9.87"/><rect class="cls-5" x="128.19" y="5.84" width="0.16" height="8.89"/><rect class="cls-5" x="129.06" y="6.37" width="0.16" height="7.75"/><rect class="cls-5" x="129.9" y="6.79" width="0.16" height="6.91"/><rect class="cls-5" x="130.78" y="6.85" width="0.16" height="6.43"/><rect class="cls-5" x="145.58" y="15.48" width="0.16" height="6.05"/><path class="cls-5" d="M127.62,5.35l-.07-.14c.11-.06,2.83-1.5,3.18-1.64a1,1,0,0,1,.79.16l-.1.13a.79.79,0,0,0-.64-.14C130.45,3.85,127.65,5.33,127.62,5.35Z"/><path class="cls-5" d="M128.52,5.91l-.07-.14c.11-.06,2.83-1.5,3.18-1.63a.89.89,0,0,1,.79.16l-.1.12a.79.79,0,0,0-.64-.14C131.35,4.41,128.55,5.89,128.52,5.91Z"/><path class="cls-5" d="M129.46,6.41l-.08-.14c.12-.07,2.84-1.5,3.18-1.64a1,1,0,0,1,.8.16l-.1.13a.79.79,0,0,0-.64-.14C132.29,4.91,129.49,6.39,129.46,6.41Z"/><path class="cls-5" d="M130.38,6.94l-.08-.14c.12-.06,2.84-1.5,3.18-1.63a.9.9,0,0,1,.79.16l-.09.12a.78.78,0,0,0-.64-.13C133.2,5.45,130.4,6.93,130.38,6.94Z"/><path class="cls-5" d="M131.15,7.41l-.07-.14c.11-.07,2.83-1.5,3.18-1.64a1,1,0,0,1,.79.16l-.1.13a.79.79,0,0,0-.64-.14C134,5.91,131.18,7.39,131.15,7.41Z"/><path class="cls-5" d="M132,7.88l-.08-.14c.12-.06,2.84-1.5,3.18-1.63a.9.9,0,0,1,.79.16l-.09.12a.79.79,0,0,0-.64-.13C134.8,6.39,132,7.87,132,7.88Z"/><path class="cls-5" d="M132.81,8.36l-.07-.14c.11-.07,2.83-1.5,3.18-1.64a.91.91,0,0,1,.79.16l-.1.13a.76.76,0,0,0-.64-.14C135.64,6.86,132.84,8.34,132.81,8.36Z"/><path class="cls-5" d="M133.73,8.89l-.07-.14c.11-.06,2.83-1.5,3.18-1.63a.91.91,0,0,1,.79.16l-.1.12a.76.76,0,0,0-.64-.13C136.56,7.4,133.76,8.88,133.73,8.89Z"/><path class="cls-5" d="M134.57,9.37l-.07-.13c.11-.07,2.83-1.51,3.18-1.64a1,1,0,0,1,.79.16l-.1.13a.79.79,0,0,0-.64-.14C137.4,7.88,134.6,9.36,134.57,9.37Z"/><path class="cls-5" d="M135.39,9.85l-.07-.14c.11-.06,2.83-1.5,3.18-1.63a.91.91,0,0,1,.79.16l-.1.12a.76.76,0,0,0-.64-.13C138.22,8.36,135.42,9.84,135.39,9.85Z"/><path class="cls-5" d="M136.23,10.33l-.07-.14c.11-.07,2.83-1.51,3.18-1.64a.93.93,0,0,1,.79.16l-.1.13a.79.79,0,0,0-.64-.14C139.06,8.83,136.26,10.31,136.23,10.33Z"/><path class="cls-5" d="M137.15,10.86l-.07-.14c.11-.06,2.83-1.5,3.18-1.63a.89.89,0,0,1,.79.16l-.1.12a.76.76,0,0,0-.64-.13C140,9.36,137.18,10.85,137.15,10.86Z"/><path class="cls-5" d="M137.89,11.28l-.08-.14c.12-.06,2.84-1.5,3.18-1.63a.9.9,0,0,1,.79.16l-.09.13a.72.72,0,0,0-.64-.14C140.71,9.79,137.92,11.27,137.89,11.28Z"/><path class="cls-5" d="M138.71,11.76l-.07-.14c.11-.06,2.83-1.5,3.17-1.63a.91.91,0,0,1,.8.16l-.1.12a.76.76,0,0,0-.64-.13C141.54,10.26,138.74,11.75,138.71,11.76Z"/><path class="cls-5" d="M139.55,12.23l-.08-.14c.12-.06,2.84-1.5,3.18-1.63a.9.9,0,0,1,.79.16l-.09.13a.76.76,0,0,0-.64-.14C142.37,10.74,139.58,12.22,139.55,12.23Z"/><path class="cls-5" d="M140.47,12.77l-.08-.14c.12-.06,2.84-1.5,3.18-1.63a.87.87,0,0,1,.79.16l-.09.12a.79.79,0,0,0-.64-.14C143.29,11.27,140.5,12.76,140.47,12.77Z"/><polygon class="cls-5" points="141.32 22.94 141.24 22.8 146.56 19.79 146.64 19.93 141.32 22.94"/><rect class="cls-5" x="140.92" y="20.12" width="5.78" height="0.16" transform="translate(8.68 73.39) rotate(-29.48)"/><rect class="cls-5" x="140.92" y="19" width="5.54" height="0.16" transform="translate(9.21 73.18) rotate(-29.48)"/><polygon class="cls-5" points="141.26 19.44 141.18 19.3 145.88 16.64 145.96 16.78 141.26 19.44"/><polygon class="cls-5" points="141.32 18.28 141.24 18.14 145.78 15.57 145.86 15.71 141.32 18.28"/><rect class="cls-5" x="140.95" y="15.75" width="5.03" height="0.16" transform="translate(10.79 72.65) rotate(-29.48)"/><polygon class="cls-5" points="141.17 16.07 141.09 15.93 145.29 13.55 145.36 13.69 141.17 16.07"/><polygon class="cls-5" points="141.26 14.88 141.18 14.74 145.11 12.52 145.18 12.65 141.26 14.88"/><rect class="cls-5" x="126.29" y="12.85" width="6.11" height="0.16" transform="translate(10.38 65.33) rotate(-29.48)"/><polygon class="cls-5" points="126.74 13.25 126.66 13.11 131.69 10.27 131.77 10.4 126.74 13.25"/><rect class="cls-5" x="126.33" y="10.57" width="5.54" height="0.16" transform="translate(11.48 64.91) rotate(-29.48)"/><rect class="cls-5" x="126.27" y="9.52" width="5.4" height="0.16" transform="translate(11.97 64.71) rotate(-29.48)"/><rect class="cls-5" x="126.36" y="8.48" width="4.95" height="0.16" transform="translate(12.45 64.48) rotate(-29.46)"/><polygon class="cls-5" points="126.72 8.7 126.65 8.56 129.9 6.72 129.98 6.86 126.72 8.7"/><rect class="cls-5" x="126.36" y="6.82" width="2.69" height="0.16" transform="translate(13.14 63.74) rotate(-29.48)"/><polygon class="cls-5" points="126.66 6.44 126.58 6.3 127.82 5.6 127.9 5.74 126.66 6.44"/><polygon class="cls-5" points="140.84 17.52 139.94 12.6 140.09 12.57 141 17.5 140.84 17.52"/><polygon class="cls-5" points="139.62 16.83 138.71 11.91 138.87 11.88 139.77 16.81 139.62 16.83"/><polygon class="cls-5" points="138.41 16.19 137.5 11.26 137.66 11.23 138.56 16.16 138.41 16.19"/><rect class="cls-5" x="136.85" y="10.56" width="0.16" height="5.01" transform="translate(-0.11 24.93) rotate(-10.4)"/><polygon class="cls-5" points="136.18 14.84 135.28 9.91 135.44 9.88 136.34 14.81 136.18 14.84"/><rect class="cls-5" x="134.67" y="9.2" width="0.16" height="5.01" transform="translate(0.1 24.52) rotate(-10.4)"/><rect class="cls-5" x="133.61" y="8.73" width="0.16" height="5.01" transform="translate(0.17 24.31) rotate(-10.4)"/><rect class="cls-5" x="132.56" y="7.99" width="0.16" height="5.01" transform="translate(0.28 24.11) rotate(-10.4)"/></g></g></svg>