<svg xmlns="http://www.w3.org/2000/svg" xmlns:xlink="http://www.w3.org/1999/xlink" viewBox="0 0 772.26 493.69"><defs><style>.cls-1,.cls-9{fill:none;}.cls-2{isolation:isolate;}.cls-3{clip-path:url(#clip-path);}.cls-4{fill:url(#linear-gradient);}.cls-5{fill:url(#linear-gradient-2);}.cls-6{fill:url(#linear-gradient-3);}.cls-22,.cls-24,.cls-27,.cls-29,.cls-30,.cls-34,.cls-35,.cls-36,.cls-43,.cls-45,.cls-50,.cls-51,.cls-52,.cls-56,.cls-57,.cls-58,.cls-59,.cls-64,.cls-7{mix-blend-mode:overlay;}.cls-7{fill:url(#linear-gradient-4);}.cls-8{fill:#fff;}.cls-9{stroke:#fff;stroke-linecap:round;stroke-linejoin:round;stroke-width:1.01px;}.cls-10{clip-path:url(#clip-path-2);}.cls-11{fill:#55baff;}.cls-12{fill:url(#linear-gradient-5);}.cls-13{fill:url(#linear-gradient-6);}.cls-14{fill:url(#linear-gradient-7);}.cls-15{fill:url(#linear-gradient-8);}.cls-16{fill:url(#linear-gradient-9);}.cls-17{fill:url(#linear-gradient-10);}.cls-18{fill:url(#linear-gradient-11);}.cls-19{fill:url(#linear-gradient-12);}.cls-20{fill:url(#linear-gradient-13);}.cls-21{fill:url(#linear-gradient-14);}.cls-22{fill:url(#linear-gradient-15);}.cls-23{fill:url(#linear-gradient-16);}.cls-24{fill:url(#linear-gradient-17);}.cls-25{fill:url(#linear-gradient-18);}.cls-26{fill:url(#linear-gradient-19);}.cls-27{fill:url(#linear-gradient-20);}.cls-28{fill:url(#linear-gradient-21);}.cls-29{fill:url(#linear-gradient-22);}.cls-30{fill:url(#linear-gradient-23);}.cls-31{fill:url(#linear-gradient-24);}.cls-32{fill:url(#linear-gradient-25);}.cls-33{fill:#0e1b3a;}.cls-34{fill:url(#linear-gradient-26);}.cls-35{fill:url(#linear-gradient-27);}.cls-36{fill:url(#linear-gradient-28);}.cls-37{fill:url(#linear-gradient-29);}.cls-38{fill:url(#linear-gradient-30);}.cls-39{fill:url(#linear-gradient-31);}.cls-40{fill:url(#linear-gradient-32);}.cls-41{fill:url(#linear-gradient-33);}.cls-42{fill:url(#linear-gradient-34);}.cls-43,.cls-64{opacity:0.25;}.cls-44{fill:url(#linear-gradient-35);}.cls-45{fill:url(#linear-gradient-36);}.cls-46{fill:url(#linear-gradient-37);}.cls-47{fill:url(#linear-gradient-38);}.cls-48{fill:url(#linear-gradient-39);}.cls-49{fill:url(#linear-gradient-40);}.cls-50{fill:url(#linear-gradient-41);}.cls-51{fill:url(#linear-gradient-42);}.cls-52{fill:url(#linear-gradient-43);}.cls-53{fill:url(#linear-gradient-44);}.cls-54{fill:url(#linear-gradient-45);}.cls-55{fill:url(#linear-gradient-46);}.cls-56{fill:url(#linear-gradient-47);}.cls-57{fill:url(#linear-gradient-48);}.cls-58{fill:url(#linear-gradient-49);}.cls-59{fill:url(#linear-gradient-50);}.cls-60{fill:url(#linear-gradient-51);}.cls-61{fill:url(#linear-gradient-52);}.cls-62{fill:url(#linear-gradient-53);}.cls-63{fill:url(#linear-gradient-54);}.cls-64{fill:url(#linear-gradient-55);}</style><clipPath id="clip-path" transform="translate(44.82 16.4)"><rect class="cls-1" x="19.42" width="645.16" height="362.9"/></clipPath><linearGradient id="linear-gradient" x1="695.87" y1="368.22" x2="575.36" y2="171.69" gradientUnits="userSpaceOnUse"><stop offset="0" stop-color="#54d1fc"/><stop offset="1" stop-color="#fff"/></linearGradient><linearGradient id="linear-gradient-2" x1="-99.51" y1="1127.06" x2="457.75" y2="14.45" xlink:href="#linear-gradient"/><linearGradient id="linear-gradient-3" x1="315.9" y1="478.94" x2="355.33" y2="149.81" xlink:href="#linear-gradient"/><linearGradient id="linear-gradient-4" x1="318.71" y1="586.22" x2="376.07" y2="78.54" gradientUnits="userSpaceOnUse"><stop offset="0"/><stop offset="1" stop-opacity="0"/></linearGradient><clipPath id="clip-path-2" transform="translate(44.82 16.4)"><polygon class="cls-1" points="0 220.1 83.21 146.56 90.93 146.56 336.63 242.91 336.26 246.71 223.79 331.86 218.62 328.13 0 220.1"/></clipPath><linearGradient id="linear-gradient-5" x1="234.09" y1="127.1" x2="154.32" y2="466.29" gradientUnits="userSpaceOnUse"><stop offset="0.01" stop-color="#55baff"/><stop offset="1" stop-color="#1e63d3"/></linearGradient><linearGradient id="linear-gradient-6" x1="272.02" y1="249.31" x2="301.28" y2="263.5" gradientUnits="userSpaceOnUse"><stop offset="0.01" stop-color="#00228e"/><stop offset="1" stop-color="#1e63d3"/></linearGradient><linearGradient id="linear-gradient-7" x1="230.41" y1="364.59" x2="213.88" y2="233.44" xlink:href="#linear-gradient-6"/><linearGradient id="linear-gradient-8" x1="186.87" y1="401.89" x2="185.44" y2="302.72" gradientUnits="userSpaceOnUse"><stop offset="0" stop-color="#ffc5bd"/><stop offset="1" stop-color="#f99187"/></linearGradient><linearGradient id="linear-gradient-9" x1="259.48" y1="400.83" x2="258.05" y2="301.66" xlink:href="#linear-gradient-8"/><linearGradient id="linear-gradient-10" x1="169.67" y1="259.57" x2="196.02" y2="247.91" xlink:href="#linear-gradient-8"/><linearGradient id="linear-gradient-11" x1="220.47" y1="228.38" x2="225.86" y2="284.07" xlink:href="#linear-gradient-5"/><linearGradient id="linear-gradient-12" x1="295.76" y1="265.19" x2="252.01" y2="251.14" xlink:href="#linear-gradient-8"/><linearGradient id="linear-gradient-13" x1="131.49" y1="235.45" x2="178.92" y2="258.45" xlink:href="#linear-gradient-6"/><linearGradient id="linear-gradient-14" x1="163.39" y1="349.31" x2="198.9" y2="349.31" xlink:href="#linear-gradient-5"/><linearGradient id="linear-gradient-15" x1="98.13" y1="323.73" x2="259.34" y2="311.04" xlink:href="#linear-gradient-4"/><linearGradient id="linear-gradient-16" x1="250.6" y1="349.79" x2="274.65" y2="349.79" xlink:href="#linear-gradient-5"/><linearGradient id="linear-gradient-17" x1="205.23" y1="361.29" x2="268.63" y2="307" xlink:href="#linear-gradient-4"/><linearGradient id="linear-gradient-18" x1="214.16" y1="206.65" x2="226.36" y2="235.26" xlink:href="#linear-gradient-6"/><linearGradient id="linear-gradient-19" x1="176.16" y1="207.99" x2="200.15" y2="264.23" xlink:href="#linear-gradient-6"/><linearGradient id="linear-gradient-20" x1="187.51" y1="199.87" x2="187.51" y2="267.18" xlink:href="#linear-gradient-4"/><linearGradient id="linear-gradient-21" x1="250.76" y1="223.02" x2="250.76" y2="258.35" xlink:href="#linear-gradient-6"/><linearGradient id="linear-gradient-22" x1="254.42" y1="293.62" x2="258.73" y2="236.93" xlink:href="#linear-gradient-4"/><linearGradient id="linear-gradient-23" x1="218.18" y1="246.98" x2="219.98" y2="223.34" xlink:href="#linear-gradient-4"/><linearGradient id="linear-gradient-24" x1="225.85" y1="227.43" x2="221.23" y2="205.39" xlink:href="#linear-gradient-8"/><linearGradient id="linear-gradient-25" x1="223.39" y1="229.28" x2="222.38" y2="220.84" xlink:href="#linear-gradient-8"/><linearGradient id="linear-gradient-26" x1="220.53" y1="197.56" x2="225.02" y2="222.71" xlink:href="#linear-gradient-4"/><linearGradient id="linear-gradient-27" x1="214.47" y1="206.34" x2="225.07" y2="231.19" xlink:href="#linear-gradient-4"/><linearGradient id="linear-gradient-28" x1="122.19" y1="275.31" x2="243.55" y2="257.26" xlink:href="#linear-gradient-4"/><linearGradient id="linear-gradient-29" x1="220.67" y1="244.95" x2="237.03" y2="242.52" xlink:href="#linear-gradient-6"/><linearGradient id="linear-gradient-30" x1="639.67" y1="260.64" x2="597.18" y2="212.05" xlink:href="#linear-gradient-8"/><linearGradient id="linear-gradient-31" x1="622.87" y1="333.22" x2="613.05" y2="307.83" gradientUnits="userSpaceOnUse"><stop offset="0" stop-color="#5b31dd"/><stop offset="1" stop-color="#4717bc"/></linearGradient><linearGradient id="linear-gradient-32" x1="534" y1="340.96" x2="539.27" y2="315.72" xlink:href="#linear-gradient-31"/><linearGradient id="linear-gradient-33" x1="542.26" y1="183.55" x2="576.75" y2="181.63" xlink:href="#linear-gradient-8"/><linearGradient id="linear-gradient-34" x1="559.82" y1="179.78" x2="566.53" y2="229.61" xlink:href="#linear-gradient-6"/><linearGradient id="linear-gradient-35" x1="576.1" y1="315" x2="559.22" y2="232.71" xlink:href="#linear-gradient-5"/><linearGradient id="linear-gradient-36" x1="472.83" y1="374.11" x2="581.34" y2="277.82" xlink:href="#linear-gradient-4"/><linearGradient id="linear-gradient-37" x1="528.32" y1="363.99" x2="543.81" y2="301.39" xlink:href="#linear-gradient-8"/><linearGradient id="linear-gradient-38" x1="615.63" y1="361.4" x2="617.07" y2="301.95" xlink:href="#linear-gradient-8"/><linearGradient id="linear-gradient-39" x1="518.75" y1="347.54" x2="550.39" y2="347.54" xlink:href="#linear-gradient-5"/><linearGradient id="linear-gradient-40" x1="607.18" y1="344.68" x2="627.75" y2="344.68" xlink:href="#linear-gradient-5"/><linearGradient id="linear-gradient-41" x1="548.53" y1="358.75" x2="637.64" y2="285.93" xlink:href="#linear-gradient-4"/><linearGradient id="linear-gradient-42" x1="592.19" y1="347.06" x2="519.85" y2="336.52" xlink:href="#linear-gradient-4"/><linearGradient id="linear-gradient-43" x1="573.77" y1="183.2" x2="571.61" y2="256.97" xlink:href="#linear-gradient-4"/><linearGradient id="linear-gradient-44" x1="535.4" y1="186.75" x2="538.32" y2="208.51" xlink:href="#linear-gradient-5"/><linearGradient id="linear-gradient-45" x1="587.66" y1="179.47" x2="591.48" y2="207.86" xlink:href="#linear-gradient-5"/><linearGradient id="linear-gradient-46" x1="463.64" y1="207.91" x2="539.1" y2="211.26" xlink:href="#linear-gradient-8"/><linearGradient id="linear-gradient-47" x1="566.46" y1="238.35" x2="619.4" y2="216.31" xlink:href="#linear-gradient-4"/><linearGradient id="linear-gradient-48" x1="625.89" y1="217.89" x2="624.1" y2="266.76" xlink:href="#linear-gradient-4"/><linearGradient id="linear-gradient-49" x1="520.79" y1="246.69" x2="510.01" y2="203.33" xlink:href="#linear-gradient-4"/><linearGradient id="linear-gradient-50" x1="569.33" y1="217.95" x2="563.42" y2="153.27" xlink:href="#linear-gradient-4"/><linearGradient id="linear-gradient-51" x1="555.56" y1="200.62" x2="560.95" y2="227.69" xlink:href="#linear-gradient-5"/><linearGradient id="linear-gradient-52" x1="575.22" y1="196.71" x2="580.61" y2="223.77" xlink:href="#linear-gradient-5"/><linearGradient id="linear-gradient-53" x1="565.77" y1="194.28" x2="570.92" y2="236.8" xlink:href="#linear-gradient-5"/><linearGradient id="linear-gradient-54" x1="566.32" y1="194.21" x2="571.47" y2="236.73" xlink:href="#linear-gradient-5"/><linearGradient id="linear-gradient-55" x1="575.64" y1="260.26" x2="537.31" y2="168.76" xlink:href="#linear-gradient-4"/></defs><title>goalie_and_player</title><g class="cls-2"><g id="Layer_2" data-name="Layer 2"><g id="OBJECTS"><g class="cls-3"><path class="cls-4" d="M682.59,178.94s-11.5,46.28-40.24,63.65-66.25,31.56-88,42.87-29-4.46,2.69-17.85,54.62-27.5,61.81-56.54.48-42.55,24.92-51.34S685.47,156.26,682.59,178.94Z" transform="translate(44.82 16.4)"/><path class="cls-5" d="M651.64,456.72c-17.06,1.58-38.61,1.49-65.7-.73-187-15.3-344.82-2.87-422.55-23.9S3.64,377.75-10.92,356.15-50.4,282.08-43.69,252.37c5.41-24,26.44-78.46,37.37-109.13,2.6-7.32,4.64-13.29,5.75-17.16C5.17,106,13.8-16.4,13.8-16.4s-1,22,47,67.89,119,51.88,117.47,68.86-65.14-22-82.2-11.48,4.12,58.25,109.69,105.28,98,27.81,87.65-1.44,29,19.38,89.33,58.18,123.81-8.89,136.06,0S498.63,292,503.42,306.12s168.63-46,184.92-93.41c10.88-31.66,14.92,23.65,15,74.67,0,25.38-.92,49.7-2.51,61.71-1.84,13.84,8.31,35,11,55C715.18,428.72,707.24,451.57,651.64,456.72Z" transform="translate(44.82 16.4)"/><path class="cls-6" d="M711.83,404.08c-21.39,20.42-40.27,38.11-60.19,52.64-17.06,1.58-38.61,1.49-65.7-.73-187-15.3-344.82-2.87-422.55-23.9S3.64,377.75-10.92,356.15-50.4,282.08-43.69,252.37c5.41-24,26.44-78.46,37.37-109.13,0,0,96.53,121.26,202.53,159.15s204.68,15.74,244,31.12c37.44,14.66,196.23-5.83,263.13-46.13,0,25.38-.92,49.7-2.51,61.71C699,362.93,709.11,384.09,711.83,404.08Z" transform="translate(44.82 16.4)"/><path class="cls-7" d="M727.44,400.73C707.77,422.8,690.38,442,671.69,458c-16.88,2.94-38.37,4.58-65.54,4.54-187.6-.25-343.94,24.81-423.11,10.08S19.42,431.31,3.17,410.94s-45.31-70.66-41-100.81c3.46-24.34,20-80.33,28.46-111.78,0,0,106,113.13,214.69,142.39S410.59,340,451,352.19c38.51,11.6,195.13-21.56,258.57-67.1,2.08,25.3,3.08,49.62,2.46,61.71C711.31,360.74,723.13,381,727.44,400.73Z" transform="translate(44.82 16.4)"/><path class="cls-8" d="M6.13,20.9c1,1.43,22,12.91,25.87,34.9s-7.18,27.25,4.79,41.6,15.81,10.51,14.37,26.29-4.46,20.51,5.27,31.08S74.88,171,77.64,178.42s10.41,23,19.52,29.06-3.84,10-25.87-16.56S35.35,142.82,9,122.26s-36.89-54-36.89-55.46" transform="translate(44.82 16.4)"/><line class="cls-9" x1="257.18" y1="341.54" x2="229.46" y2="397.24"/><line class="cls-9" x1="247.32" y1="336.81" x2="217.29" y2="397.16"/><line class="cls-9" x1="237.47" y1="332.08" x2="205.13" y2="397.07"/><line class="cls-9" x1="227.62" y1="327.34" x2="192.97" y2="396.98"/><line class="cls-9" x1="217.77" y1="322.61" x2="180.81" y2="396.89"/><line class="cls-9" x1="207.92" y1="317.88" x2="168.65" y2="396.81"/><line class="cls-9" x1="198.06" y1="313.15" x2="156.48" y2="396.72"/><line class="cls-9" x1="188.21" y1="308.42" x2="144.32" y2="396.63"/><line class="cls-9" x1="178.36" y1="303.69" x2="132.16" y2="396.54"/><line class="cls-9" x1="168.51" y1="298.96" x2="120" y2="396.46"/><line class="cls-9" x1="158.66" y1="294.23" x2="107.83" y2="396.37"/><line class="cls-9" x1="148.8" y1="289.5" x2="95.67" y2="396.28"/><line class="cls-9" x1="138.95" y1="284.76" x2="83.51" y2="396.19"/><line class="cls-9" x1="129.1" y1="280.03" x2="71.35" y2="396.1"/><line class="cls-9" x1="119.25" y1="275.3" x2="59.18" y2="396.02"/><line class="cls-9" x1="109.4" y1="270.57" x2="47.02" y2="395.93"/><line class="cls-9" x1="99.55" y1="265.84" x2="34.86" y2="395.84"/><line class="cls-9" x1="89.69" y1="261.11" x2="22.7" y2="395.75"/><line class="cls-9" x1="56.89" y1="257.49" x2="263.42" y2="358.8"/><line class="cls-9" x1="52.01" y1="268.91" x2="256.93" y2="369.43"/><line class="cls-9" x1="47.12" y1="280.32" x2="250.45" y2="380.05"/><line class="cls-9" x1="42.24" y1="291.73" x2="243.97" y2="390.68"/><line class="cls-9" x1="37.35" y1="303.14" x2="237.49" y2="401.31"/><line class="cls-9" x1="32.47" y1="314.56" x2="231" y2="411.94"/><line class="cls-9" x1="27.58" y1="325.97" x2="224.52" y2="422.57"/><line class="cls-9" x1="22.7" y1="337.38" x2="218.04" y2="433.2"/><g class="cls-10"><line class="cls-9" x1="176.22" y1="145.76" x2="41.83" y2="269.26"/><line class="cls-9" x1="186.91" y1="151.06" x2="51.93" y2="273.84"/><line class="cls-9" x1="197.6" y1="156.35" x2="62.02" y2="278.43"/><line class="cls-9" x1="208.29" y1="161.65" x2="72.12" y2="283.02"/><line class="cls-9" x1="218.98" y1="166.95" x2="82.21" y2="287.6"/><line class="cls-9" x1="229.67" y1="172.25" x2="92.31" y2="292.19"/><line class="cls-9" x1="240.36" y1="177.55" x2="102.41" y2="296.78"/><line class="cls-9" x1="251.05" y1="182.84" x2="112.5" y2="301.36"/><line class="cls-9" x1="261.74" y1="188.14" x2="122.6" y2="305.95"/><line class="cls-9" x1="272.43" y1="193.44" x2="132.7" y2="310.54"/><line class="cls-9" x1="283.12" y1="198.74" x2="142.79" y2="315.12"/><line class="cls-9" x1="293.81" y1="204.03" x2="152.89" y2="319.71"/><line class="cls-9" x1="304.49" y1="209.33" x2="162.99" y2="324.3"/><line class="cls-9" x1="315.18" y1="214.63" x2="173.08" y2="328.88"/><line class="cls-9" x1="325.87" y1="219.93" x2="183.18" y2="333.47"/><line class="cls-9" x1="336.56" y1="225.23" x2="193.28" y2="338.05"/><line class="cls-9" x1="347.25" y1="230.52" x2="203.37" y2="342.64"/><line class="cls-9" x1="357.94" y1="235.82" x2="213.47" y2="347.23"/><line class="cls-9" x1="368.63" y1="241.12" x2="223.56" y2="351.81"/><line class="cls-9" x1="379.32" y1="246.42" x2="233.66" y2="356.4"/><line class="cls-9" x1="105.08" y1="155.43" x2="394.33" y2="278.6"/><line class="cls-9" x1="95.85" y1="163.37" x2="384.26" y2="288.36"/><line class="cls-9" x1="86.61" y1="171.31" x2="374.2" y2="298.12"/><line class="cls-9" x1="77.38" y1="179.25" x2="364.13" y2="307.88"/><line class="cls-9" x1="68.14" y1="187.2" x2="354.07" y2="317.64"/><line class="cls-9" x1="58.9" y1="195.14" x2="344" y2="327.4"/><line class="cls-9" x1="49.67" y1="203.08" x2="333.94" y2="337.16"/><line class="cls-9" x1="40.43" y1="211.02" x2="323.87" y2="346.92"/><line class="cls-9" x1="31.2" y1="218.96" x2="313.81" y2="356.68"/></g><line class="cls-9" x1="278.11" y1="339.29" x2="271.35" y2="388.02"/><line class="cls-9" x1="287.58" y1="332.18" x2="282.89" y2="388.35"/><line class="cls-9" x1="297.04" y1="325.08" x2="294.44" y2="388.67"/><line class="cls-9" x1="306.51" y1="317.98" x2="305.99" y2="388.99"/><line class="cls-9" x1="315.97" y1="310.87" x2="317.53" y2="389.32"/><line class="cls-9" x1="325.44" y1="303.77" x2="329.08" y2="389.64"/><line class="cls-9" x1="334.9" y1="296.67" x2="340.63" y2="389.97"/><line class="cls-9" x1="344.37" y1="289.56" x2="352.18" y2="390.29"/><line class="cls-9" x1="353.83" y1="282.46" x2="363.72" y2="390.62"/><line class="cls-9" x1="363.3" y1="275.36" x2="375.27" y2="390.94"/><line class="cls-9" x1="372.76" y1="268.25" x2="386.82" y2="391.27"/><line class="cls-9" x1="267.84" y1="353.42" x2="386.82" y2="279.91"/><line class="cls-9" x1="264.37" y1="360.94" x2="388.9" y2="300.99"/><line class="cls-9" x1="260.91" y1="368.46" x2="390.97" y2="322.06"/><line class="cls-9" x1="257.45" y1="375.98" x2="393.05" y2="343.14"/><line class="cls-9" x1="253.99" y1="383.5" x2="395.13" y2="364.21"/><line class="cls-9" x1="250.53" y1="391.02" x2="397.21" y2="385.29"/><rect class="cls-11" x="117.12" y="162.48" width="2.02" height="235.25" transform="translate(-140.72 282.3) rotate(-64.46)"/><rect class="cls-11" x="-20.2" y="182.98" width="119.26" height="5.04" transform="translate(-73.02 95.91) rotate(-44.02)"/><path class="cls-11" d="M201.1,388.8,196.38,387c.06-.14,5.36-14.23,11.41-28.69,12.5-29.85,16-32.22,17.33-33.11,6.6-4.46,110.46-81.55,111.51-82.32l3,4c-4.29,3.18-105,77.93-111.7,82.46-.84.56-4.44,4.46-15.5,30.87C206.42,374.65,201.16,388.66,201.1,388.8Z" transform="translate(44.82 16.4)"/><path class="cls-12" d="M358.16,374.87c-.05-.31-4.58-30.8-9.57-61.81-8.59-53.33-11.43-64.26-12.33-66.35-5.43-3.07-59.86-25.9-125-52-85.93-34.45-122.36-47.36-128.07-48.14-2,2.09-9.18,13.23-35.86,67.43-15.72,31.95-30.65,63.54-30.8,63.85L12,275.69c.15-.33,15.52-32.85,31.51-65.31,32.75-66.47,36-67.88,37.8-68.64,1.46-.62,3.27-1.4,44.15,14,28,10.54,62.67,24.27,86.77,33.93,30.25,12.12,61.67,24.95,86.23,35.19,39.68,16.55,40.87,17.73,41.45,18.3,1.11,1.1,3,3,13.41,67.6,5.09,31.56,9.78,63.07,9.82,63.39Z" transform="translate(44.82 16.4)"/><path class="cls-13" d="M277.77,256.4a20.3,20.3,0,0,0,3.11-2.23c1.2-1.12,2.8-5.67,4.55-5.19s0,4.23,0,5.27,3.84-1,4.4-2.88,2.39-2.47,3.11.56.72,8.07-1.68,9.66-12.46-.44-13.49-.56S277.77,256.4,277.77,256.4Z" transform="translate(44.82 16.4)"/><path class="cls-14" d="M262.92,312.86l-.05,0c-6-1.78-11.62,1.33-16,4.63h0c-1.59,1.19-3,2.41-4.23,3.42-2.24,1.88-3.77,3.08-4.29,2.19-1.6-2.72-11.8-31.46-11.8-31.46s-13.75,36.57-15.83,35.29a8.92,8.92,0,0,1-2-2.27,60.38,60.38,0,0,0-5.44-7.09,23.9,23.9,0,0,0-5.56-4.52c-.31-.17-.62-.34-.94-.49-5.86-2.94-9.66-2.25-11.26-1.68a4.58,4.58,0,0,0-.87.4l12.88-41.36a49.58,49.58,0,0,1,7.35-3,41.47,41.47,0,0,1,10-1.53,50.19,50.19,0,0,1,9.71.74c10.22,1.64,20.83,5.32,24,5.29l.15.39a330.37,330.37,0,0,1,13.16,37.32c0,.13.08.26.11.39s.06.21.09.34Q262.55,311.36,262.92,312.86Z" transform="translate(44.82 16.4)"/><path class="cls-15" d="M208.74,324.64A153.75,153.75,0,0,1,198.9,340c-8.21,11.67-17.78,23.8-17.78,23.8l-8.33,1.85-9.4,2.1a377.08,377.08,0,0,1,13.44-37c4.79-11.54,8.71-20,8.71-20,1.6-.57,5.4-1.26,11.26,1.68.32.15.63.32.94.49a23.9,23.9,0,0,1,5.56,4.52A60.38,60.38,0,0,1,208.74,324.64Z" transform="translate(44.82 16.4)"/><path class="cls-16" d="M274.65,364.44l-6.66.47-7,.49c-3.27-4.83-7.06-13.48-10.4-22.11-3.47-8.93-6.47-17.83-8-22.4,1.22-1,2.64-2.23,4.23-3.42h0c4.39-3.3,10-6.41,16-4.63,1.12,4.68,3,12.86,4.93,21.34C271.15,348.85,274.65,364.44,274.65,364.44Z" transform="translate(44.82 16.4)"/><path class="cls-17" d="M196.8,256l-.21.2c-1.52,1.34-10.54,9.25-12.8,9.19-1.27,0-8.31-3-14.47-6.26h0c-5.88-3.08-10.94-6.34-9.38-7.4,3.19-2.15,22.27,2.16,22.27,2.16l8-7.27a2.32,2.32,0,0,0,.39,1.12,41.9,41.9,0,0,0,2.58,4,49,49,0,0,0,3.26,4.23s.13,0,.28,0Z" transform="translate(44.82 16.4)"/><path class="cls-18" d="M252.51,254a16.27,16.27,0,0,1-2.53,3.35s-.43.25-2.79-.64c-.91-.35-2.1-.86-3.67-1.63.32,1,.8,2.11,1.34,3.38s1.18,2.67,1.78,4c1.85,4.2,3.52,8.27,2.5,8.85a1.91,1.91,0,0,1-.51.05c-1.86,0-6.22-1.22-11.54-2.58-3.85-1-8.21-2-12.49-2.71a50.19,50.19,0,0,0-9.71-.74,41.47,41.47,0,0,0-10,1.53,49.58,49.58,0,0,0-7.35,3c-.3.11-.47.1-.51-.08-.24-1.08.48-2.76,2-6.59.57-1.4,1.2-3.22,1.78-5v0c.81-2.44,1.49-4.73,1.72-5.5,0-.16.07-.25.08-.27l-.15.1a.47.47,0,0,0-.12.09c-.65.43-2.27,1.54-3.66,2.39-.42.27-.83.51-1.17.7a7.05,7.05,0,0,1-.77.37l-.21.06h-.07c-.18-.13-1.8-2.23-3.35-4.44a38.7,38.7,0,0,1-2.56-4,2.32,2.32,0,0,1-.39-1.12A12.67,12.67,0,0,1,192,244.2c3.23-3.91,9.94-11.25,11.67-12.71.85-.71,3.56-1.67,6.64-2.6,2.87-.87,6-1.71,8.33-2.29,1.86-.47,3.12-.76,3.12-.76a24.48,24.48,0,0,1,5.72,1.24c.51.17,1,.35,1.5.55,9.14,3.65,16.25,11.72,23.2,16.06.42.27.85.52,1.27.76h0l.38.21s0,0,0,0A11.37,11.37,0,0,1,252.51,254Z" transform="translate(44.82 16.4)"/><path class="cls-19" d="M279.05,261l-2.45-.12c-18.29-1-21.72-1.48-26.62-3.55a16.27,16.27,0,0,0,2.53-3.35,11.37,11.37,0,0,0,1.32-9.3c1.61,1,7.55,4.78,11.32,6.9,4.4,2.48,13.42,4.36,13.42,4.36A5.9,5.9,0,0,1,279.05,261Z" transform="translate(44.82 16.4)"/><path class="cls-20" d="M164.31,251.62c.19-.22-2.88-12.38-5.35-12.62s-.24,4-1.52,4.71-6.31-4-8.7-5.67-4.31.08-5.67,5a8.68,8.68,0,0,0,4.79,10.15c2.95,1.35,12.34.92,15.49,2.52C163.43,254.65,163.27,252.82,164.31,251.62Z" transform="translate(44.82 16.4)"/><path class="cls-21" d="M198.9,340c-8.21,11.67-17.78,23.8-17.78,23.8l-8.33,1.85-9.4,2.1a377.08,377.08,0,0,1,13.44-37A48.62,48.62,0,0,1,198.9,340Z" transform="translate(44.82 16.4)"/><path class="cls-22" d="M248.78,271.81a67,67,0,0,1-9.46,1.36c-9,.84-28.5-3-34.37-1s-7.55,24.08-8.74,30.78c-.8,4.48.69,7,1.53,10a13,13,0,0,1,.38,5.3c-.83,6.34-2.88,5.39-7.91,7.18-3.94,1.41-13.49,28.56-17.42,40.18l-9.4,2.1c7.18-24.79,22.15-56.93,22.15-56.93a4.58,4.58,0,0,0-.87.4l12.88-41.36a49.58,49.58,0,0,1,7.35-3,41.47,41.47,0,0,1,10-1.53,50.19,50.19,0,0,1,9.71.74c10.22,1.64,20.83,5.32,24,5.29Z" transform="translate(44.82 16.4)"/><path class="cls-23" d="M274.65,364.44l-6.66.47-7,.49c-3.27-4.83-7.06-13.48-10.4-22.11a29.08,29.08,0,0,1,17.2-9.11C271.15,348.85,274.65,364.44,274.65,364.44Z" transform="translate(44.82 16.4)"/><path class="cls-24" d="M268,364.91l-7,.49c-6.67-9.81-15.42-35.51-18.38-44.51-2.24,1.88-3.77,3.08-4.29,2.19-1.6-2.72-11.8-31.46-11.8-31.46s3.33-8.79,4.45-9.75,12.58,34,15.87,35.6h0c3.28,1.61,7.17,4.17,7.46,11.52C254.61,336.14,261.44,358.31,268,364.91Z" transform="translate(44.82 16.4)"/><path class="cls-25" d="M227.44,227.08c-.14,1.93-1,4.34-4.28,4-4.22-.37-4.6-3.24-4.56-4.53,1.86-.47,3.12-.76,3.12-.76A24.48,24.48,0,0,1,227.44,227.08Z" transform="translate(44.82 16.4)"/><path class="cls-26" d="M198.74,255a14.62,14.62,0,0,1-1.94,1.07l-.21.06h-.07c-.18-.13-1.8-2.23-3.35-4.44a38.7,38.7,0,0,1-2.56-4,2.32,2.32,0,0,1-.39-1.12A12.67,12.67,0,0,1,192,244.2C193.52,246.72,197.09,252.5,198.74,255Z" transform="translate(44.82 16.4)"/><path class="cls-27" d="M202.52,252.56a53.52,53.52,0,0,1-5.72,3.55l-.21.06c-1.52,1.34-10.54,9.25-12.8,9.19-1.27,0-8.31-3-14.47-6.26.42.18,7.24,3.15,11,3.1,1.83,0,7.42-5.11,12.89-10.48l0,0c5.95-5.85,11.74-12,12.36-12.41S204.16,246.8,202.52,252.56Z" transform="translate(44.82 16.4)"/><path class="cls-28" d="M252.51,254a16.27,16.27,0,0,1-2.53,3.35s-.43.25-2.79-.64c5.3-4.4,5.22-10.61,4.95-13,.42.27.85.52,1.27.76h0l.38.21s0,0,0,0A11.37,11.37,0,0,1,252.51,254Z" transform="translate(44.82 16.4)"/><path class="cls-29" d="M276.6,260.91c-18.29-1-21.72-1.48-26.62-3.55,0,0-.84.48-6.46-2.27,0,0-5.67-13-4.72-13.94s3.85,8.73,13.71,12.86a23.83,23.83,0,0,0,3.22,1.08C265.58,257.58,273.43,257.5,276.6,260.91Z" transform="translate(44.82 16.4)"/><path class="cls-30" d="M228.94,227.63c-.48,1.81-1.61,4.55-4.17,5.18-3.89,1-6.83-1.26-11.1-2.22a6.43,6.43,0,0,1-3.4-1.7c2.87-.87,6-1.71,8.33-2.29,1.86-.47,3.12-.76,3.12-.76a24.48,24.48,0,0,1,5.72,1.24C228,227.25,228.45,227.43,228.94,227.63Z" transform="translate(44.82 16.4)"/><path class="cls-31" d="M230.3,214.44a31.15,31.15,0,0,1-.34,3.17c-.43,2.71-1.36,5.77-3.33,7.36l-.1.07c-2.41,1.84-5.24.16-7.24-1.78a15.53,15.53,0,0,1-2-2.32,6.5,6.5,0,0,1,.72-2.16,2.77,2.77,0,0,0,.09-1.3,2,2,0,0,0-.24-.71c-.46-.74-1.28-.43-.57-1.75.31-.59,1.11-.72,2.19-.65,1.86.13,4.54.83,7,.71A9.86,9.86,0,0,0,230.3,214.44Z" transform="translate(44.82 16.4)"/><path class="cls-32" d="M226.53,225c0,.44,0,.89-.06,1.33-.1,1.52-.34,2.92-.86,3a7.14,7.14,0,0,1-5.32-.68,2,2,0,0,1-.61-.58,25.34,25.34,0,0,1-.39-4.88C221.29,225.2,224.12,226.88,226.53,225Z" transform="translate(44.82 16.4)"/><path class="cls-33" d="M234.83,210.47c-2.17,2.28-3.29,3.39-4.53,4a9.86,9.86,0,0,1-3.77.64c-2.48.12-5.16-.58-7-.71-1.08-.07-1.88.06-2.19.65-.71,1.32.11,1,.57,1.75a2,2,0,0,1,.24.71c.23,1.68-.72,1.9-.81,3.46a5.81,5.81,0,0,1-3.21-2.86c-1.08-2.22,1.6-2.7,1.6-2.7a4.11,4.11,0,0,1-1.48-5.56c1.86-3.6,7.13-2.94,9.88-4.5a14.74,14.74,0,0,1-1.3,1.86c.53-.36,1.54-.6,3.34.18C229.32,208.74,233,211.07,234.83,210.47Z" transform="translate(44.82 16.4)"/><path class="cls-34" d="M230.3,214.44a31.15,31.15,0,0,1-.34,3.17c-4-.19-8.43-2.19-9.44-2.33-1.46-.2-2.06.42-1.94,1.72a1.93,1.93,0,0,1-.54,1.78,2.77,2.77,0,0,0,.09-1.3,2,2,0,0,0-.24-.71c-.46-.74-1.28-.43-.57-1.75.31-.59,1.11-.72,2.19-.65,1.86.13,4.54.83,7,.71A9.86,9.86,0,0,0,230.3,214.44Z" transform="translate(44.82 16.4)"/><path class="cls-35" d="M226.53,225c0,.44,0,.89-.06,1.33a13.49,13.49,0,0,0-4.2.27,4.76,4.76,0,0,0-2,2.08,2,2,0,0,1-.61-.58,25.34,25.34,0,0,1-.39-4.88C221.29,225.2,224.12,226.88,226.53,225Z" transform="translate(44.82 16.4)"/><path class="cls-36" d="M237.09,268.84c-3.85-1-8.21-2-12.49-2.71a50.19,50.19,0,0,0-9.71-.74,41.47,41.47,0,0,0-10,1.53,49.58,49.58,0,0,0-7.35,3c-.3.11-.47.1-.51-.08-.24-1.08.48-2.76,2-6.59.57-1.4,1.2-3.22,1.78-5v0c.81-2.44,1.49-4.73,1.72-5.5a32.13,32.13,0,0,1,4.28,2.24C213.5,259,236,260.25,237.09,268.84Z" transform="translate(44.82 16.4)"/><path class="cls-37" d="M234,245.57l-1.23,0a1.45,1.45,0,0,1-1.29-.69l-.64-1a1.44,1.44,0,0,1-.05-1.46l.58-1.08a1.45,1.45,0,0,1,1.24-.77l1.23,0a1.45,1.45,0,0,1,1.29.69l.64,1a1.44,1.44,0,0,1,.05,1.46l-.58,1.08A1.45,1.45,0,0,1,234,245.57Z" transform="translate(44.82 16.4)"/></g><path class="cls-38" d="M630.14,257a3.19,3.19,0,0,1-2.73,2c-2.16.24-8-2.15-8.45-3.75s.65-4.85.71-5h0a2.3,2.3,0,0,1-1.28-1.6c0-.69,1.09-2.63,1.86-3.87l.25-.39c-2.13-4.61-4.48-11.21-5.06-12.51-.84-1.9-19.71-16.37-21.75-17.93l-.18-.13.13-.13,4.23-4.08,6.51-6.27s21,20.44,21.92,25.19a58.33,58.33,0,0,1,.16,15.91l3.48,11.94Z" transform="translate(44.82 16.4)"/><path class="cls-39" d="M626.51,308.64c-.09.28-.2.57-.31.86-1.66,4.25-5.07,8.68-11.28,9.42a33.1,33.1,0,0,1-9.47-.06c-4-.66-5.62-2-5.62-2V304.55l10.93-4.95,1.77-.8s14.09.13,14.86,3h0A14.52,14.52,0,0,1,626.51,308.64Z" transform="translate(44.82 16.4)"/><path class="cls-40" d="M522.14,315s-5,8.4,10.66,14.62,21.57-2.31,21.57-2.31-1.14-14.77-1.69-15.57-17-3-17-3Z" transform="translate(44.82 16.4)"/><path class="cls-33" d="M579.59,167.46l-4.31,1.91s-1.89,6.36-5.3,10.35a8,8,0,0,1-5.16,3.15c-3.6.3-7.56-1.45-10.45-3.57a19.3,19.3,0,0,1-1.88-1.58c-1.37-1.32-2.23-2.62-2.28-3.56a13,13,0,0,1,.55-4.78h0c-3.2-1.51-3.92-3.11-2.72-6.62a6.11,6.11,0,0,0,2.13,5s-.85-1.49,0-5.8a11.83,11.83,0,0,1,11.52-9.35c-3.73,1.25-5.11,3.17-5.18,3.27.22-.1,10.91-5.37,16.13,0a11.9,11.9,0,0,0-9.32-.49c.27-.08,2.57-.54,10,4.08.32.19.62.39.9.58C581.21,164.66,579.59,167.46,579.59,167.46Z" transform="translate(44.82 16.4)"/><path class="cls-41" d="M570,179.72c-.2,2.3-.78,5.34-2.45,5.78-2.71.72-8.54.48-10-.8-.75-.67-2.09-3.18-3.18-5.4,2.89,2.12,6.85,3.87,10.45,3.57A8,8,0,0,0,570,179.72Z" transform="translate(44.82 16.4)"/><path class="cls-42" d="M604.28,206.91a22.59,22.59,0,0,1-.81,3.44,16.51,16.51,0,0,1-2.4,4.91,7.33,7.33,0,0,1-2.2,2l-5-2.39h0c0,.11.17,1,.41,2.28.16.86.35,1.91.58,3,.17.89.36,1.83.56,2.78.29,1.33.59,2.68.89,3.88s.62,2.3.91,3.1a17.15,17.15,0,0,0,1.68,3.35c1.23,1.93,2.47,3.27,2.63,4.55a.39.39,0,0,1,0,.19c-.1.24-.55.22-1.27,0-1.49-.43-4.15-1.63-7.45-2.92a64.48,64.48,0,0,0-11.62-3.51,31.71,31.71,0,0,0-6-.45,49.65,49.65,0,0,0-21.19,5.27,18.66,18.66,0,0,0-4.62,3.33c-4.58,4.77-9.06,10.24-11.63,11.72a2.27,2.27,0,0,1-1.19.37c-.89,0-.53-1.24.22-3.27.45-1.2,1-2.71,1.56-4.44a36.07,36.07,0,0,0,1.15-4.9,28.93,28.93,0,0,0,.31-3.44c0-.94,0-1.94.09-3,0-1.31.1-2.67.15-4,.09-2.07.19-4.16.29-6.11.06-1.4.13-2.73.19-3.94.16-2.94.29-5.18.34-6,0-.2,0-.31,0-.31h0c-.35.16-11.51,5.15-12.69,5.39-.4.08-1.28-.51-2.25-1.66a16.43,16.43,0,0,1-2.68-4.69,19.41,19.41,0,0,1-1-3.54,20.18,20.18,0,0,1-.22-4.6s3.34-2.39,8.24-5.53a181.6,181.6,0,0,1,16.21-9.36c1.66-.83,3.33-1.61,4.94-2.3a38.25,38.25,0,0,1,9.66-2.95,53,53,0,0,1,13.6.06,53.94,53.94,0,0,1,8.23,1.73,39.91,39.91,0,0,1,5.59,2.06,16.34,16.34,0,0,1,3.27,2.41c2.08,1.8,4.6,4.32,6.84,6.72,1.57,1.69,3,3.32,4.06,4.62a11.88,11.88,0,0,1,1.76,2.54A9.42,9.42,0,0,1,604.28,206.91Z" transform="translate(44.82 16.4)"/><path class="cls-43" d="M601.49,238a68.34,68.34,0,0,0-47.58-1.6,65.19,65.19,0,0,0-15.66,7.71,36.07,36.07,0,0,0,1.15-4.9,71.34,71.34,0,0,1,59.48-6c1.23,1.93,2.47,3.27,2.63,4.55A.39.39,0,0,1,601.49,238Z" transform="translate(44.82 16.4)"/><path class="cls-43" d="M596.29,226.84a76.76,76.76,0,0,0-56.49,6c0-1.31.1-2.67.15-4A80.32,80.32,0,0,1,595.4,223C595.69,224.29,596,225.64,596.29,226.84Z" transform="translate(44.82 16.4)"/><path class="cls-43" d="M601.07,215.26a7.33,7.33,0,0,1-2.2,2l-5-2.39h0c0,.11.17,1,.41,2.28a85.78,85.78,0,0,0-54,5.54c.06-1.4.13-2.73.19-3.94A89.49,89.49,0,0,1,601.07,215.26Z" transform="translate(44.82 16.4)"/><path class="cls-43" d="M604.28,206.91a22.59,22.59,0,0,1-.81,3.44,95,95,0,0,0-62.7,2.41c0-.2,0-.31,0-.31h0c-.35.16-11.51,5.15-12.69,5.39-.4.08-1.28-.51-2.25-1.66A98.07,98.07,0,0,1,604.28,206.91Z" transform="translate(44.82 16.4)"/><path class="cls-43" d="M602.62,200.81a103.45,103.45,0,0,0-79.46,10.68,19.41,19.41,0,0,1-1-3.54,107,107,0,0,1,76.36-11.76C600.13,197.88,601.57,199.51,602.62,200.81Z" transform="translate(44.82 16.4)"/><path class="cls-43" d="M591.72,189.47a112.52,112.52,0,0,0-61.5,8.35,181.6,181.6,0,0,1,16.21-9.36A116.54,116.54,0,0,1,582.86,185a39.91,39.91,0,0,1,5.59,2.06A16.34,16.34,0,0,1,591.72,189.47Z" transform="translate(44.82 16.4)"/><path class="cls-44" d="M627,302.88l-.49.06a9.31,9.31,0,0,0-1.43.32c-5.47,1.56-13.6,7.31-19.31,10.8l-.89.54c-2.3,1.37-4.12,2.28-5.07,2.22a.68.68,0,0,1-.6-.29c-1.68-2.64-15.81-30.42-21.08-43.84a10.25,10.25,0,0,0-1.52,2v0c-4.9,7.92-12.71,32.3-17.85,44.9-1.95,4.8-3.52,7.89-4.4,7.71a10.31,10.31,0,0,1-1.69-.58c-4.88-2-15.73-8.25-24.11-9.72l-3.61-.6c-1.85-.3-2.64-.49-2.8-1a.83.83,0,0,1,0-.39s0,0,0-.07h0c.19-1,1.39-2.85,2.35-6.79,2-8.38,12-51.47,13.06-56.24.06-.29.1-.43.1-.43,2.57-1.48,7.05-6.95,11.63-11.72s16-8.45,25.81-8.6a31.71,31.71,0,0,1,6,.45c8.17,1.48,16,5.56,19.07,6.43A110.2,110.2,0,0,1,606,252.32c2.72,7.74,5.57,16.22,8.61,21.81,5,9.1,12.43,23.56,12.83,27.65h0C627.46,302.43,627.35,302.81,627,302.88Z" transform="translate(44.82 16.4)"/><path class="cls-45" d="M563.22,290.66c-3.79,12.56-3.47,19.87-4.45,28.94-1.95,4.8-3.52,7.89-4.4,7.71a10.31,10.31,0,0,1-1.69-.58c-4.88-2-15.73-8.25-24.11-9.72l-3.61-.6c-1.85-.3-2.64-.49-2.8-1l0-.39V315h0c.14-.55,1.32-4.45,8.73-5.92,8-1.59,13.1-2.55,18.21-17.56s9.24-21,13.33-21.2S567.61,276.13,563.22,290.66Z" transform="translate(44.82 16.4)"/><path class="cls-46" d="M552.68,326.73c-.7,2.53-1.48,5.29-2.29,8.11-.44,1.5-.88,3-1.32,4.54h0c-3.59,12.22-7.33,24.25-7.33,24.25l-15.16-.48-7.83-.24,4-30.11,1.36-10.24.83-6.16.65-.37C528.94,314.23,544.23,307.29,552.68,326.73Z" transform="translate(44.82 16.4)"/><path class="cls-47" d="M627.41,363.64h-16.2l-4-31.29-1.73-13.49-.55-4.26a19.22,19.22,0,0,1,17-11.41,23.7,23.7,0,0,1,3.24.07,62.44,62.44,0,0,1,1.1,6.24c.17,1.35.33,2.78.47,4.27.36,3.76.61,7.9.77,12.13C628.15,343.88,627.41,363.64,627.41,363.64Z" transform="translate(44.82 16.4)"/><path class="cls-48" d="M550.39,334.84c-.44,1.5-.88,3-1.32,4.54h0c-3.59,12.22-7.33,24.25-7.33,24.25l-23-.72,4-30.11C528.14,331.14,537.24,330.18,550.39,334.84Z" transform="translate(44.82 16.4)"/><path class="cls-49" d="M627.41,363.64h-16.2l-4-31.29a26.73,26.73,0,0,1,9.71-5.53,25.3,25.3,0,0,1,10.55-.92C628.15,343.88,627.41,363.64,627.41,363.64Z" transform="translate(44.82 16.4)"/><path class="cls-50" d="M621.38,363.64H611.21l-4-31.29-1.73-13.49c-4-.66-5.62-2-5.62-2h0a.68.68,0,0,1-.6-.29c-1.68-2.64-15.81-30.42-21.08-43.84a10.24,10.24,0,0,0-1.5,2c.42-.76,5.1-9,10.29-11.14,5.75,1.28,11.33,22.84,18.84,31.78a20.88,20.88,0,0,0,5,4.31,25.37,25.37,0,0,0,11.1,3.59,21.78,21.78,0,0,0,3.24.07,62.44,62.44,0,0,1,1.1,6.24c.17,1.35.33,2.78.47,4.27-2.18.94-7.1,3.57-9.2,8.83a13.16,13.16,0,0,0-.58,4.22C616.7,335.76,619.67,354,621.38,363.64Z" transform="translate(44.82 16.4)"/><path class="cls-51" d="M552.68,326.73c-.7,2.53-1.48,5.29-2.29,8.11-.44,1.5-.88,3-1.32,4.54h0c-3.59,12.22-7.33,24.25-7.33,24.25l-15.16-.48c3.5-10.82,10.6-34.18,9.13-40.88-1-4.74-5.86-6-10.1-6.24C528.94,314.23,544.23,307.29,552.68,326.73Z" transform="translate(44.82 16.4)"/><path class="cls-52" d="M606,252.32c-12.39-.68-30-11.47-44.8-9.81a47.55,47.55,0,0,0-23.59,9.4c.06-.29.1-.43.1-.43,2.57-1.48,7.05-6.95,11.63-11.72s16-8.45,25.81-8.6a31.71,31.71,0,0,1,6,.45c8.17,1.48,16,5.56,19.07,6.43A110.2,110.2,0,0,1,606,252.32Z" transform="translate(44.82 16.4)"/><path class="cls-53" d="M551.37,186.16a37.77,37.77,0,0,0-5.68,9,62.21,62.21,0,0,0-4.91,17.27h0c-.29.13-7.93,3.55-11.26,4.88h0a13.1,13.1,0,0,1-1.42.51c-.63.12-2.42-1.38-3.92-4.13A19,19,0,0,1,522,203.35l.55-.39h0C525.49,200.88,539.56,191.21,551.37,186.16Z" transform="translate(44.82 16.4)"/><path class="cls-54" d="M598.87,217.24l-5-2.39c-5.16-16.23-12.11-26.52-19.21-31.58a49.21,49.21,0,0,1,13.82,3.79c3.6,1.67,15.33,14.37,15.93,16.29S603.42,214.72,598.87,217.24Z" transform="translate(44.82 16.4)"/><path class="cls-55" d="M528.09,217.84s-21.32,9.34-30.06,6.23a22.25,22.25,0,0,1-2.13-.91c-.76-.37-1.56-.8-2.41-1.29-2.46-.33-11.76-5.53-19.24-10.72-5.68-4-10.32-7.89-10.12-9.68.48-4.15,3.51-8.78,5-8.39s2.72,3.28,2.72,3.28a6.74,6.74,0,0,1,2.39.72c.56.48.4,3.35.72,4.47a33.48,33.48,0,0,0,2.2,4.3l29.82,5.7,15.53-8.6h0l3.56,9.54Z" transform="translate(44.82 16.4)"/><path class="cls-56" d="M622.17,244.14a1.4,1.4,0,0,1-1.92.65l.25-.39c-2.13-4.61-4.48-11.21-5.06-12.51-.84-1.9-19.71-16.37-21.75-17.93,0-.08,0-.17-.05-.26-.53-3-2-11.23-2.67-13.95-.84-3.35,2.59,2.46,6.35,9,.16.29.35.58.55.88,4.36,6.51,16.6,15.81,19.69,19.77C620.79,233.53,622.71,243.25,622.17,244.14Z" transform="translate(44.82 16.4)"/><path class="cls-57" d="M630.14,257a3.19,3.19,0,0,1-2.73,2c-2.16.24-8-2.15-8.45-3.75s.65-4.85.71-5h0s3.07,1.68,4.39,1.21-1.95-3.54-2-4.11,2.51,1.11,3.23,2.67.42,5.63,3.53,6.17l1.13.19Z" transform="translate(44.82 16.4)"/><path class="cls-58" d="M545.69,195.18a62.21,62.21,0,0,0-4.91,17.27h0c-.29.13-7.93,3.55-11.26,4.88h0a13.1,13.1,0,0,1-1.42.51s-21.32,9.34-30.06,6.23a22.25,22.25,0,0,1-2.13-.91c-.76-.37-1.56-.8-2.41-1.29-2.46-.33-11.76-5.53-19.24-10.72,2.12.12,4.83,1.79,9.16,3.81,7.43,3.48,24.08,6.71,36.42,1.08a40.89,40.89,0,0,0,4.34-2.33c.65-.38,1.29-.79,1.93-1.22C536.34,205.71,545.69,195.18,545.69,195.18Z" transform="translate(44.82 16.4)"/><path class="cls-59" d="M579.59,167.46l-4.31,1.91s-1.89,6.36-5.3,10.35a8,8,0,0,1-5.16,3.15c-3.6.3-7.56-1.45-10.45-3.57a19.3,19.3,0,0,1-1.88-1.58c-1.37-1.32-2.23-2.62-2.28-3.56a13,13,0,0,1,.55-4.78h0S552,174.3,556,176s5.68,1,5.68,1-7.18-1.62-8.56-5.87c9.87,3.52,15.3-3.11,15.51-3.37a11.51,11.51,0,0,1-8.2,2.35c4.48-3.43,8.93-8.2,13.83-10.06C581.21,164.66,579.59,167.46,579.59,167.46Z" transform="translate(44.82 16.4)"/><path class="cls-60" d="M565.87,206c1,6-1.38,10-7.44,11.88-6.09,2.21-9.17-.65-10.06-7.15s1.25-12.75,7.28-13.46C561.88,196.47,565,200.81,565.87,206Zm-12.13,2.71c.61,4.75,2.19,6.36,4.33,5.7s3-3.05,2.3-7.47-2.1-6.44-4.29-6C554.08,201.27,553,203.94,553.74,208.74Z" transform="translate(44.82 16.4)"/><path class="cls-61" d="M585.75,205.74c.87,7.59-1.18,11.84-7,10.64-6-.94-9.55-5-10.45-10.48s1.29-10.23,7.28-10.91C581.75,194.15,585,199.08,585.75,205.74Zm-12-.17c.7,4.56,2.37,6.82,4.48,7.05s2.86-2.12,2.14-7.09c-.71-4.82-2.2-7.16-4.38-7C574,198.72,573,201,573.79,205.57Z" transform="translate(44.82 16.4)"/><path class="cls-62" d="M567.81,190.58l-1.55,1.12a1.72,1.72,0,0,1-1.71.18l-1.75-.79a1.75,1.75,0,0,1-1-1.4l-.19-1.9a1.71,1.71,0,0,1,.71-1.57l1.55-1.12a1.74,1.74,0,0,1,1.72-.18l1.74.79a1.71,1.71,0,0,1,1,1.4l.19,1.9A1.72,1.72,0,0,1,567.81,190.58Z" transform="translate(44.82 16.4)"/><path class="cls-63" d="M562.3,223.92a38.84,38.84,0,0,1,15-1.79,1.49,1.49,0,0,1,1.37,1.5h0a1.49,1.49,0,0,1-1.44,1.49c-3,.11-9.87.49-14,1.75a1.5,1.5,0,0,1-1.92-1.18l0-.09A1.5,1.5,0,0,1,562.3,223.92Z" transform="translate(44.82 16.4)"/><path class="cls-64" d="M601.49,238c-.1.24-.55.22-1.27,0-1.49-.43-4.15-1.63-7.45-2.92a64.48,64.48,0,0,0-11.62-3.51,31.71,31.71,0,0,0-6-.45,49.65,49.65,0,0,0-21.19,5.27,18.66,18.66,0,0,0-4.62,3.33c-4.58,4.77-9.06,10.24-11.63,11.72a2.27,2.27,0,0,1-1.19.37c-.89,0-.53-1.24.22-3.27,1.43,0,3.17-.22,4.09-1.33,1.76-2.11,6.55-15.26,18.53-17.86s14.36-20.48,21.36-21.47c3.93-.55,9.18,5.73,14.17,12.26.17.89.36,1.83.56,2.78.29,1.33.59,2.68.89,3.88s.62,2.3.91,3.1a17.15,17.15,0,0,0,1.68,3.35c1.23,1.93,2.47,3.27,2.63,4.55A.39.39,0,0,1,601.49,238Z" transform="translate(44.82 16.4)"/></g></g></g></svg>